{
	"asset":{
		"generator":"Khronos glTF Blender I/O v4.1.62",
		"version":"2.0"
	},
	"scene":0,
	"scenes":[
		{
			"name":"Scene",
			"nodes":[
				36
			]
		}
	],
	"nodes":[
		{
			"name":"head0",
			"rotation":[
				0.34862926602363586,
				0.010955463163554668,
				0.0188802070915699,
				0.9370064735412598
			],
			"scale":[
				1.0000001192092896,
				1,
				1
			],
			"translation":[
				-2.086162567138672e-07,
				4.154902458190918,
				9.741634130477905e-07
			]
		},
		{
			"children":[
				0
			],
			"name":"neck1",
			"rotation":[
				0.23391222953796387,
				-0.00023980184050742537,
				0.0030944161117076874,
				0.9722527861595154
			],
			"translation":[
				2.086162567138672e-07,
				7.551660537719727,
				-1.7061829566955566e-06
			]
		},
		{
			"children":[
				1
			],
			"name":"neck0",
			"rotation":[
				-0.3421820104122162,
				0.0031894370913505554,
				0.0015937677817419171,
				0.939626932144165
			],
			"scale":[
				0.9999999403953552,
				0.9999999403953552,
				1
			],
			"translation":[
				4.544854164123535e-07,
				10.64217472076416,
				3.0314549803733826e-06
			]
		},
		{
			"name":"leg_front_left_toe",
			"rotation":[
				-0.6178790926933289,
				-0.1484893411397934,
				-0.047940194606781006,
				0.7706348896026611
			],
			"translation":[
				4.470348358154297e-08,
				8.440938949584961,
				1.4901161193847656e-06
			]
		},
		{
			"children":[
				3
			],
			"name":"leg_front_left_ankle",
			"rotation":[
				-0.08327478915452957,
				0.667930006980896,
				0.07641518861055374,
				0.7355920076370239
			],
			"scale":[
				1,
				0.9999998211860657,
				1
			],
			"translation":[
				1.0132789611816406e-06,
				6.100989818572998,
				8.940696716308594e-07
			]
		},
		{
			"children":[
				4
			],
			"name":"leg_front_left_bot0",
			"rotation":[
				0.21898967027664185,
				-0.32817381620407104,
				-0.1843229979276657,
				0.9002057909965515
			],
			"scale":[
				0.9999999403953552,
				1,
				1
			],
			"translation":[
				-3.5762786865234375e-07,
				9.264869689941406,
				-7.152557373046875e-07
			]
		},
		{
			"children":[
				5
			],
			"name":"leg_front_left_top1",
			"rotation":[
				-0.48900938034057617,
				-0.645122230052948,
				-0.03829526528716087,
				0.5858504176139832
			],
			"scale":[
				1.0000001192092896,
				1,
				1.0000001192092896
			],
			"translation":[
				2.086162567138672e-07,
				7.511796951293945,
				-1.4901161193847656e-06
			]
		},
		{
			"children":[
				6
			],
			"name":"leg_front_left_top0",
			"rotation":[
				0.8020578622817993,
				0.28410524129867554,
				0.28894707560539246,
				0.4387448728084564
			],
			"scale":[
				0.9999999403953552,
				0.9999999403953552,
				0.9999997615814209
			],
			"translation":[
				0.06904563307762146,
				4.568149089813232,
				1.4118807315826416
			]
		},
		{
			"name":"leg_front_right_toe",
			"rotation":[
				-0.5701726078987122,
				0.5380239486694336,
				0.3054750859737396,
				0.5404798984527588
			],
			"translation":[
				1.3709068298339844e-06,
				8.478992462158203,
				4.291534423828125e-06
			]
		},
		{
			"children":[
				8
			],
			"name":"leg_front_right_ankle",
			"rotation":[
				-0.02635863423347473,
				0.36561039090156555,
				0.06165348365902901,
				0.9283496737480164
			],
			"scale":[
				0.9999998807907104,
				1,
				1
			],
			"translation":[
				5.140900611877441e-07,
				5.494627952575684,
				5.960464477539063e-08
			]
		},
		{
			"children":[
				9
			],
			"name":"leg_front_right_bot0",
			"rotation":[
				0.11661365628242493,
				-0.8546574115753174,
				-0.1966724544763565,
				0.466135174036026
			],
			"scale":[
				0.9999998807907104,
				0.9999996423721313,
				0.9999999403953552
			],
			"translation":[
				-7.3909759521484375e-06,
				9.5455961227417,
				3.337860107421875e-06
			]
		},
		{
			"children":[
				10
			],
			"name":"leg_front_right_top1",
			"rotation":[
				-0.45365235209465027,
				0.7690690755844116,
				0.059322111308574677,
				0.44633305072784424
			],
			"scale":[
				1,
				0.9999999403953552,
				1
			],
			"translation":[
				6.854534149169922e-07,
				7.804464340209961,
				5.960464477539062e-07
			]
		},
		{
			"children":[
				11
			],
			"name":"leg_front_right_top0",
			"rotation":[
				0.7405068278312683,
				-0.4132501184940338,
				-0.41133201122283936,
				0.3341856002807617
			],
			"scale":[
				1,
				0.9999998807907104,
				0.9999998211860657
			],
			"translation":[
				-0.20060256123542786,
				4.577385902404785,
				1.3953410387039185
			]
		},
		{
			"children":[
				2,
				7,
				12
			],
			"name":"body_top1",
			"rotation":[
				-0.019632644951343536,
				-0.0076910825446248055,
				-0.007812372874468565,
				0.9997471570968628
			],
			"scale":[
				0.9999998807907104,
				0.9999997615814209,
				0.9999999403953552
			],
			"translation":[
				-7.450580596923828e-08,
				5.043299198150635,
				7.450580596923828e-08
			]
		},
		{
			"children":[
				13
			],
			"name":"body_top0",
			"rotation":[
				-0.005789539776742458,
				-0.0029037408530712128,
				-0.0029173381626605988,
				0.99997478723526
			],
			"scale":[
				1,
				1,
				0.9999999403953552
			],
			"translation":[
				0.10943964123725891,
				10.015119552612305,
				-0.1921030431985855
			]
		},
		{
			"name":"tail5",
			"rotation":[
				0.03333447128534317,
				0.004121880978345871,
				-0.0016773196402937174,
				0.9994343519210815
			],
			"scale":[
				0.9999998807907104,
				0.9999999403953552,
				1
			],
			"translation":[
				2.1606683731079102e-07,
				3.786149024963379,
				-8.493661880493164e-07
			]
		},
		{
			"children":[
				15
			],
			"name":"tail4",
			"rotation":[
				0.02753720059990883,
				-0.010669994167983532,
				0.006148714106529951,
				0.9995449185371399
			],
			"scale":[
				0.9999999403953552,
				1.0000001192092896,
				1
			],
			"translation":[
				-4.470348358154297e-08,
				4.251161098480225,
				-2.1830201148986816e-06
			]
		},
		{
			"children":[
				16
			],
			"name":"tail3",
			"rotation":[
				0.09602370113134384,
				0.02453628182411194,
				-0.009452554397284985,
				0.9950316548347473
			],
			"scale":[
				1,
				0.9999998807907104,
				0.9999998211860657
			],
			"translation":[
				3.1117366461330676e-07,
				4.247927188873291,
				-2.315025994903408e-06
			]
		},
		{
			"children":[
				17
			],
			"name":"tail2",
			"rotation":[
				0.0031755096279084682,
				-0.017433853819966316,
				0.00671630771830678,
				0.9998204112052917
			],
			"scale":[
				1,
				0.9999998807907104,
				0.9999999403953552
			],
			"translation":[
				2.0675361156463623e-07,
				3.753976821899414,
				-1.4603137969970703e-06
			]
		},
		{
			"children":[
				18
			],
			"name":"tail1",
			"rotation":[
				-0.10397730022668839,
				0.0019176113419234753,
				-0.0028113052248954773,
				0.9945738315582275
			],
			"scale":[
				0.9999999403953552,
				1,
				1.0000001192092896
			],
			"translation":[
				-2.2910535335540771e-07,
				7.011042594909668,
				1.341104507446289e-06
			]
		},
		{
			"children":[
				19
			],
			"name":"tail0",
			"rotation":[
				-0.2087450921535492,
				0.005804583430290222,
				-0.006633854936808348,
				0.9779303669929504
			],
			"scale":[
				0.9999999403953552,
				0.9999998211860657,
				0.9999998807907104
			],
			"translation":[
				2.60770320892334e-08,
				16.437143325805664,
				1.1846423149108887e-06
			]
		},
		{
			"children":[
				20
			],
			"name":"pelvis",
			"rotation":[
				-0.09063757210969925,
				0.00521666556596756,
				-0.005056563764810562,
				0.9958574771881104
			],
			"scale":[
				1,
				0.9999998807907104,
				0.9999998807907104
			],
			"translation":[
				4.056281852626853e-07,
				7.067295551300049,
				1.1008969522663392e-06
			]
		},
		{
			"name":"leg_hind_right_toe",
			"rotation":[
				-0.46523043513298035,
				0.5218891501426697,
				0.5218853950500488,
				0.4887003004550934
			],
			"scale":[
				1,
				1.0000001192092896,
				0.9999998807907104
			],
			"translation":[
				4.6156346797943115e-06,
				9.712913513183594,
				-8.940696716308594e-07
			]
		},
		{
			"children":[
				22
			],
			"name":"leg_hind_right_ankle",
			"rotation":[
				-0.3258601725101471,
				-0.732468843460083,
				0.3385277986526489,
				0.49264949560165405
			],
			"scale":[
				1.0000001192092896,
				0.9999998807907104,
				1
			],
			"translation":[
				-3.337860107421875e-06,
				7.480723857879639,
				2.9802322387695312e-08
			]
		},
		{
			"children":[
				23
			],
			"name":"leg_hind_right_bot0",
			"rotation":[
				0.2887192964553833,
				0.36988401412963867,
				-0.15330156683921814,
				0.8696698546409607
			],
			"scale":[
				1,
				0.9999998807907104,
				0.9999999403953552
			],
			"translation":[
				-5.960464477539063e-08,
				9.062544822692871,
				2.980232238769531e-07
			]
		},
		{
			"children":[
				24
			],
			"name":"leg_hind_right_top1",
			"rotation":[
				0.4597139358520508,
				-0.6676132678985596,
				-0.021779168397188187,
				0.585219144821167
			],
			"scale":[
				1,
				0.9999999403953552,
				1
			],
			"translation":[
				-3.2782554626464844e-07,
				8.85000991821289,
				5.364418029785156e-07
			]
		},
		{
			"children":[
				25
			],
			"name":"leg_hind_right_top0",
			"rotation":[
				-0.8167151212692261,
				0.32894256711006165,
				-0.3188575506210327,
				0.3508604168891907
			],
			"scale":[
				0.9999999403953552,
				1.0000001192092896,
				1.0000001192092896
			],
			"translation":[
				-0.1567770540714264,
				12.043210983276367,
				-1.2285737991333008
			]
		},
		{
			"name":"leg_hind_left_toe",
			"rotation":[
				-0.6906808018684387,
				0.2366405874490738,
				0.23664160072803497,
				0.6410632133483887
			],
			"scale":[
				0.9999998807907104,
				1,
				1
			],
			"translation":[
				-1.1920928955078125e-06,
				9.565640449523926,
				-5.960464477539062e-07
			]
		},
		{
			"children":[
				27
			],
			"name":"leg_hind_left_ankle",
			"rotation":[
				-0.41090813279151917,
				-0.1702730804681778,
				0.15237478911876678,
				0.8825777769088745
			],
			"scale":[
				0.9999998807907104,
				1,
				1
			],
			"translation":[
				7.152557373046875e-07,
				7.883760929107666,
				8.344650268554688e-07
			]
		},
		{
			"children":[
				28
			],
			"name":"leg_hind_left_bot0",
			"rotation":[
				0.3858545124530792,
				-0.09562280774116516,
				-0.005948915146291256,
				0.9175713658332825
			],
			"scale":[
				0.9999999403953552,
				0.9999998807907104,
				0.9999998211860657
			],
			"translation":[
				4.544854164123535e-07,
				8.750118255615234,
				6.556510925292969e-07
			]
		},
		{
			"children":[
				29
			],
			"name":"leg_hind_left_top1",
			"rotation":[
				0.44392678141593933,
				0.6016499400138855,
				-0.07291178405284882,
				0.6600229740142822
			],
			"scale":[
				0.9999999403953552,
				0.9999999403953552,
				1.0000001192092896
			],
			"translation":[
				-4.172325134277344e-07,
				9.644110679626465,
				2.980232238769531e-07
			]
		},
		{
			"children":[
				30
			],
			"name":"leg_hind_left_top0",
			"rotation":[
				-0.7449954748153687,
				-0.4527921676635742,
				0.43890973925590515,
				0.21752990782260895
			],
			"scale":[
				0.9999998807907104,
				1,
				1
			],
			"translation":[
				0.2418501228094101,
				12.064247131347656,
				-1.1979262828826904
			]
		},
		{
			"children":[
				21,
				26,
				31
			],
			"name":"body_bot",
			"rotation":[
				0.9990663528442383,
				-0.013206199742853642,
				0.012802902609109879,
				0.03909234702587128
			],
			"scale":[
				1.000001311302185,
				1,
				1.000010371208191
			],
			"translation":[
				0.026075594127178192,
				0.9784585237503052,
				-0.04576966166496277
			]
		},
		{
			"children":[
				14,
				32
			],
			"name":"body",
			"rotation":[
				0.7234302163124084,
				9.075960605287037e-08,
				0.018392382189631462,
				0.6901525259017944
			],
			"translation":[
				0.007440805435180664,
				31.977340698242188,
				1.240455985069275
			]
		},
		{
			"children":[
				33
			],
			"name":"root",
			"rotation":[
				-0.7071031928062439,
				0,
				0,
				0.7071103453636169
			],
			"translation":[
				2.0425591468811035,
				-1.6907765865325928,
				22.537330627441406
			]
		},
		{
			"mesh":0,
			"name":"frip_F_export",
			"skin":0
		},
		{
			"children":[
				35,
				34
			],
			"name":"rig",
			"rotation":[
				0.7071068286895752,
				0,
				0,
				0.7071068286895752
			]
		}
	],
	"animations":[
		{
			"channels":[
				{
					"sampler":0,
					"target":{
						"node":34,
						"path":"translation"
					}
				},
				{
					"sampler":1,
					"target":{
						"node":34,
						"path":"rotation"
					}
				},
				{
					"sampler":2,
					"target":{
						"node":34,
						"path":"scale"
					}
				},
				{
					"sampler":3,
					"target":{
						"node":33,
						"path":"translation"
					}
				},
				{
					"sampler":4,
					"target":{
						"node":33,
						"path":"rotation"
					}
				},
				{
					"sampler":5,
					"target":{
						"node":33,
						"path":"scale"
					}
				},
				{
					"sampler":6,
					"target":{
						"node":14,
						"path":"translation"
					}
				},
				{
					"sampler":7,
					"target":{
						"node":14,
						"path":"rotation"
					}
				},
				{
					"sampler":8,
					"target":{
						"node":14,
						"path":"scale"
					}
				},
				{
					"sampler":9,
					"target":{
						"node":13,
						"path":"translation"
					}
				},
				{
					"sampler":10,
					"target":{
						"node":13,
						"path":"rotation"
					}
				},
				{
					"sampler":11,
					"target":{
						"node":13,
						"path":"scale"
					}
				},
				{
					"sampler":12,
					"target":{
						"node":2,
						"path":"translation"
					}
				},
				{
					"sampler":13,
					"target":{
						"node":2,
						"path":"rotation"
					}
				},
				{
					"sampler":14,
					"target":{
						"node":2,
						"path":"scale"
					}
				},
				{
					"sampler":15,
					"target":{
						"node":1,
						"path":"translation"
					}
				},
				{
					"sampler":16,
					"target":{
						"node":1,
						"path":"rotation"
					}
				},
				{
					"sampler":17,
					"target":{
						"node":1,
						"path":"scale"
					}
				},
				{
					"sampler":18,
					"target":{
						"node":0,
						"path":"translation"
					}
				},
				{
					"sampler":19,
					"target":{
						"node":0,
						"path":"rotation"
					}
				},
				{
					"sampler":20,
					"target":{
						"node":0,
						"path":"scale"
					}
				},
				{
					"sampler":21,
					"target":{
						"node":7,
						"path":"translation"
					}
				},
				{
					"sampler":22,
					"target":{
						"node":7,
						"path":"rotation"
					}
				},
				{
					"sampler":23,
					"target":{
						"node":7,
						"path":"scale"
					}
				},
				{
					"sampler":24,
					"target":{
						"node":6,
						"path":"translation"
					}
				},
				{
					"sampler":25,
					"target":{
						"node":6,
						"path":"rotation"
					}
				},
				{
					"sampler":26,
					"target":{
						"node":6,
						"path":"scale"
					}
				},
				{
					"sampler":27,
					"target":{
						"node":5,
						"path":"translation"
					}
				},
				{
					"sampler":28,
					"target":{
						"node":5,
						"path":"rotation"
					}
				},
				{
					"sampler":29,
					"target":{
						"node":5,
						"path":"scale"
					}
				},
				{
					"sampler":30,
					"target":{
						"node":4,
						"path":"translation"
					}
				},
				{
					"sampler":31,
					"target":{
						"node":4,
						"path":"rotation"
					}
				},
				{
					"sampler":32,
					"target":{
						"node":4,
						"path":"scale"
					}
				},
				{
					"sampler":33,
					"target":{
						"node":3,
						"path":"translation"
					}
				},
				{
					"sampler":34,
					"target":{
						"node":3,
						"path":"rotation"
					}
				},
				{
					"sampler":35,
					"target":{
						"node":3,
						"path":"scale"
					}
				},
				{
					"sampler":36,
					"target":{
						"node":12,
						"path":"translation"
					}
				},
				{
					"sampler":37,
					"target":{
						"node":12,
						"path":"rotation"
					}
				},
				{
					"sampler":38,
					"target":{
						"node":12,
						"path":"scale"
					}
				},
				{
					"sampler":39,
					"target":{
						"node":11,
						"path":"translation"
					}
				},
				{
					"sampler":40,
					"target":{
						"node":11,
						"path":"rotation"
					}
				},
				{
					"sampler":41,
					"target":{
						"node":11,
						"path":"scale"
					}
				},
				{
					"sampler":42,
					"target":{
						"node":10,
						"path":"translation"
					}
				},
				{
					"sampler":43,
					"target":{
						"node":10,
						"path":"rotation"
					}
				},
				{
					"sampler":44,
					"target":{
						"node":10,
						"path":"scale"
					}
				},
				{
					"sampler":45,
					"target":{
						"node":9,
						"path":"translation"
					}
				},
				{
					"sampler":46,
					"target":{
						"node":9,
						"path":"rotation"
					}
				},
				{
					"sampler":47,
					"target":{
						"node":9,
						"path":"scale"
					}
				},
				{
					"sampler":48,
					"target":{
						"node":8,
						"path":"translation"
					}
				},
				{
					"sampler":49,
					"target":{
						"node":8,
						"path":"rotation"
					}
				},
				{
					"sampler":50,
					"target":{
						"node":8,
						"path":"scale"
					}
				},
				{
					"sampler":51,
					"target":{
						"node":32,
						"path":"translation"
					}
				},
				{
					"sampler":52,
					"target":{
						"node":32,
						"path":"rotation"
					}
				},
				{
					"sampler":53,
					"target":{
						"node":32,
						"path":"scale"
					}
				},
				{
					"sampler":54,
					"target":{
						"node":21,
						"path":"translation"
					}
				},
				{
					"sampler":55,
					"target":{
						"node":21,
						"path":"rotation"
					}
				},
				{
					"sampler":56,
					"target":{
						"node":21,
						"path":"scale"
					}
				},
				{
					"sampler":57,
					"target":{
						"node":20,
						"path":"translation"
					}
				},
				{
					"sampler":58,
					"target":{
						"node":20,
						"path":"rotation"
					}
				},
				{
					"sampler":59,
					"target":{
						"node":20,
						"path":"scale"
					}
				},
				{
					"sampler":60,
					"target":{
						"node":19,
						"path":"translation"
					}
				},
				{
					"sampler":61,
					"target":{
						"node":19,
						"path":"rotation"
					}
				},
				{
					"sampler":62,
					"target":{
						"node":19,
						"path":"scale"
					}
				},
				{
					"sampler":63,
					"target":{
						"node":18,
						"path":"translation"
					}
				},
				{
					"sampler":64,
					"target":{
						"node":18,
						"path":"rotation"
					}
				},
				{
					"sampler":65,
					"target":{
						"node":18,
						"path":"scale"
					}
				},
				{
					"sampler":66,
					"target":{
						"node":17,
						"path":"translation"
					}
				},
				{
					"sampler":67,
					"target":{
						"node":17,
						"path":"rotation"
					}
				},
				{
					"sampler":68,
					"target":{
						"node":17,
						"path":"scale"
					}
				},
				{
					"sampler":69,
					"target":{
						"node":16,
						"path":"translation"
					}
				},
				{
					"sampler":70,
					"target":{
						"node":16,
						"path":"rotation"
					}
				},
				{
					"sampler":71,
					"target":{
						"node":16,
						"path":"scale"
					}
				},
				{
					"sampler":72,
					"target":{
						"node":15,
						"path":"translation"
					}
				},
				{
					"sampler":73,
					"target":{
						"node":15,
						"path":"rotation"
					}
				},
				{
					"sampler":74,
					"target":{
						"node":15,
						"path":"scale"
					}
				},
				{
					"sampler":75,
					"target":{
						"node":26,
						"path":"translation"
					}
				},
				{
					"sampler":76,
					"target":{
						"node":26,
						"path":"rotation"
					}
				},
				{
					"sampler":77,
					"target":{
						"node":26,
						"path":"scale"
					}
				},
				{
					"sampler":78,
					"target":{
						"node":25,
						"path":"translation"
					}
				},
				{
					"sampler":79,
					"target":{
						"node":25,
						"path":"rotation"
					}
				},
				{
					"sampler":80,
					"target":{
						"node":25,
						"path":"scale"
					}
				},
				{
					"sampler":81,
					"target":{
						"node":24,
						"path":"translation"
					}
				},
				{
					"sampler":82,
					"target":{
						"node":24,
						"path":"rotation"
					}
				},
				{
					"sampler":83,
					"target":{
						"node":24,
						"path":"scale"
					}
				},
				{
					"sampler":84,
					"target":{
						"node":23,
						"path":"translation"
					}
				},
				{
					"sampler":85,
					"target":{
						"node":23,
						"path":"rotation"
					}
				},
				{
					"sampler":86,
					"target":{
						"node":23,
						"path":"scale"
					}
				},
				{
					"sampler":87,
					"target":{
						"node":22,
						"path":"translation"
					}
				},
				{
					"sampler":88,
					"target":{
						"node":22,
						"path":"rotation"
					}
				},
				{
					"sampler":89,
					"target":{
						"node":22,
						"path":"scale"
					}
				},
				{
					"sampler":90,
					"target":{
						"node":31,
						"path":"translation"
					}
				},
				{
					"sampler":91,
					"target":{
						"node":31,
						"path":"rotation"
					}
				},
				{
					"sampler":92,
					"target":{
						"node":31,
						"path":"scale"
					}
				},
				{
					"sampler":93,
					"target":{
						"node":30,
						"path":"translation"
					}
				},
				{
					"sampler":94,
					"target":{
						"node":30,
						"path":"rotation"
					}
				},
				{
					"sampler":95,
					"target":{
						"node":30,
						"path":"scale"
					}
				},
				{
					"sampler":96,
					"target":{
						"node":29,
						"path":"translation"
					}
				},
				{
					"sampler":97,
					"target":{
						"node":29,
						"path":"rotation"
					}
				},
				{
					"sampler":98,
					"target":{
						"node":29,
						"path":"scale"
					}
				},
				{
					"sampler":99,
					"target":{
						"node":28,
						"path":"translation"
					}
				},
				{
					"sampler":100,
					"target":{
						"node":28,
						"path":"rotation"
					}
				},
				{
					"sampler":101,
					"target":{
						"node":28,
						"path":"scale"
					}
				},
				{
					"sampler":102,
					"target":{
						"node":27,
						"path":"translation"
					}
				},
				{
					"sampler":103,
					"target":{
						"node":27,
						"path":"rotation"
					}
				},
				{
					"sampler":104,
					"target":{
						"node":27,
						"path":"scale"
					}
				},
				{
					"sampler":105,
					"target":{
						"node":36,
						"path":"translation"
					}
				},
				{
					"sampler":106,
					"target":{
						"node":36,
						"path":"rotation"
					}
				},
				{
					"sampler":107,
					"target":{
						"node":36,
						"path":"scale"
					}
				}
			],
			"name":"rig|rig|run",
			"samplers":[
				{
					"input":19,
					"interpolation":"STEP",
					"output":20
				},
				{
					"input":19,
					"interpolation":"STEP",
					"output":21
				},
				{
					"input":19,
					"interpolation":"STEP",
					"output":22
				},
				{
					"input":19,
					"interpolation":"STEP",
					"output":23
				},
				{
					"input":24,
					"interpolation":"LINEAR",
					"output":25
				},
				{
					"input":19,
					"interpolation":"STEP",
					"output":26
				},
				{
					"input":19,
					"interpolation":"STEP",
					"output":27
				},
				{
					"input":24,
					"interpolation":"LINEAR",
					"output":28
				},
				{
					"input":19,
					"interpolation":"STEP",
					"output":29
				},
				{
					"input":19,
					"interpolation":"STEP",
					"output":30
				},
				{
					"input":24,
					"interpolation":"LINEAR",
					"output":31
				},
				{
					"input":19,
					"interpolation":"STEP",
					"output":32
				},
				{
					"input":19,
					"interpolation":"STEP",
					"output":33
				},
				{
					"input":24,
					"interpolation":"LINEAR",
					"output":34
				},
				{
					"input":19,
					"interpolation":"STEP",
					"output":35
				},
				{
					"input":19,
					"interpolation":"STEP",
					"output":36
				},
				{
					"input":24,
					"interpolation":"LINEAR",
					"output":37
				},
				{
					"input":19,
					"interpolation":"STEP",
					"output":38
				},
				{
					"input":19,
					"interpolation":"STEP",
					"output":39
				},
				{
					"input":24,
					"interpolation":"LINEAR",
					"output":40
				},
				{
					"input":19,
					"interpolation":"STEP",
					"output":41
				},
				{
					"input":19,
					"interpolation":"STEP",
					"output":42
				},
				{
					"input":24,
					"interpolation":"LINEAR",
					"output":43
				},
				{
					"input":19,
					"interpolation":"STEP",
					"output":44
				},
				{
					"input":19,
					"interpolation":"STEP",
					"output":45
				},
				{
					"input":24,
					"interpolation":"LINEAR",
					"output":46
				},
				{
					"input":19,
					"interpolation":"STEP",
					"output":47
				},
				{
					"input":19,
					"interpolation":"STEP",
					"output":48
				},
				{
					"input":24,
					"interpolation":"LINEAR",
					"output":49
				},
				{
					"input":19,
					"interpolation":"STEP",
					"output":50
				},
				{
					"input":19,
					"interpolation":"STEP",
					"output":51
				},
				{
					"input":24,
					"interpolation":"LINEAR",
					"output":52
				},
				{
					"input":19,
					"interpolation":"STEP",
					"output":53
				},
				{
					"input":19,
					"interpolation":"STEP",
					"output":54
				},
				{
					"input":24,
					"interpolation":"LINEAR",
					"output":55
				},
				{
					"input":19,
					"interpolation":"STEP",
					"output":56
				},
				{
					"input":19,
					"interpolation":"STEP",
					"output":57
				},
				{
					"input":24,
					"interpolation":"LINEAR",
					"output":58
				},
				{
					"input":19,
					"interpolation":"STEP",
					"output":59
				},
				{
					"input":19,
					"interpolation":"STEP",
					"output":60
				},
				{
					"input":24,
					"interpolation":"LINEAR",
					"output":61
				},
				{
					"input":19,
					"interpolation":"STEP",
					"output":62
				},
				{
					"input":19,
					"interpolation":"STEP",
					"output":63
				},
				{
					"input":24,
					"interpolation":"LINEAR",
					"output":64
				},
				{
					"input":19,
					"interpolation":"STEP",
					"output":65
				},
				{
					"input":19,
					"interpolation":"STEP",
					"output":66
				},
				{
					"input":24,
					"interpolation":"LINEAR",
					"output":67
				},
				{
					"input":19,
					"interpolation":"STEP",
					"output":68
				},
				{
					"input":19,
					"interpolation":"STEP",
					"output":69
				},
				{
					"input":24,
					"interpolation":"LINEAR",
					"output":70
				},
				{
					"input":19,
					"interpolation":"STEP",
					"output":71
				},
				{
					"input":19,
					"interpolation":"STEP",
					"output":72
				},
				{
					"input":24,
					"interpolation":"LINEAR",
					"output":73
				},
				{
					"input":19,
					"interpolation":"STEP",
					"output":74
				},
				{
					"input":19,
					"interpolation":"STEP",
					"output":75
				},
				{
					"input":24,
					"interpolation":"LINEAR",
					"output":76
				},
				{
					"input":19,
					"interpolation":"STEP",
					"output":77
				},
				{
					"input":19,
					"interpolation":"STEP",
					"output":78
				},
				{
					"input":24,
					"interpolation":"LINEAR",
					"output":79
				},
				{
					"input":19,
					"interpolation":"STEP",
					"output":80
				},
				{
					"input":19,
					"interpolation":"STEP",
					"output":81
				},
				{
					"input":24,
					"interpolation":"LINEAR",
					"output":82
				},
				{
					"input":19,
					"interpolation":"STEP",
					"output":83
				},
				{
					"input":19,
					"interpolation":"STEP",
					"output":84
				},
				{
					"input":24,
					"interpolation":"LINEAR",
					"output":85
				},
				{
					"input":19,
					"interpolation":"STEP",
					"output":86
				},
				{
					"input":19,
					"interpolation":"STEP",
					"output":87
				},
				{
					"input":24,
					"interpolation":"LINEAR",
					"output":88
				},
				{
					"input":19,
					"interpolation":"STEP",
					"output":89
				},
				{
					"input":19,
					"interpolation":"STEP",
					"output":90
				},
				{
					"input":24,
					"interpolation":"LINEAR",
					"output":91
				},
				{
					"input":19,
					"interpolation":"STEP",
					"output":92
				},
				{
					"input":19,
					"interpolation":"STEP",
					"output":93
				},
				{
					"input":24,
					"interpolation":"LINEAR",
					"output":94
				},
				{
					"input":19,
					"interpolation":"STEP",
					"output":95
				},
				{
					"input":19,
					"interpolation":"STEP",
					"output":96
				},
				{
					"input":24,
					"interpolation":"LINEAR",
					"output":97
				},
				{
					"input":19,
					"interpolation":"STEP",
					"output":98
				},
				{
					"input":19,
					"interpolation":"STEP",
					"output":99
				},
				{
					"input":24,
					"interpolation":"LINEAR",
					"output":100
				},
				{
					"input":19,
					"interpolation":"STEP",
					"output":101
				},
				{
					"input":19,
					"interpolation":"STEP",
					"output":102
				},
				{
					"input":24,
					"interpolation":"LINEAR",
					"output":103
				},
				{
					"input":19,
					"interpolation":"STEP",
					"output":104
				},
				{
					"input":19,
					"interpolation":"STEP",
					"output":105
				},
				{
					"input":24,
					"interpolation":"LINEAR",
					"output":106
				},
				{
					"input":19,
					"interpolation":"STEP",
					"output":107
				},
				{
					"input":19,
					"interpolation":"STEP",
					"output":108
				},
				{
					"input":24,
					"interpolation":"LINEAR",
					"output":109
				},
				{
					"input":19,
					"interpolation":"STEP",
					"output":110
				},
				{
					"input":19,
					"interpolation":"STEP",
					"output":111
				},
				{
					"input":24,
					"interpolation":"LINEAR",
					"output":112
				},
				{
					"input":19,
					"interpolation":"STEP",
					"output":113
				},
				{
					"input":19,
					"interpolation":"STEP",
					"output":114
				},
				{
					"input":24,
					"interpolation":"LINEAR",
					"output":115
				},
				{
					"input":19,
					"interpolation":"STEP",
					"output":116
				},
				{
					"input":19,
					"interpolation":"STEP",
					"output":117
				},
				{
					"input":24,
					"interpolation":"LINEAR",
					"output":118
				},
				{
					"input":19,
					"interpolation":"STEP",
					"output":119
				},
				{
					"input":19,
					"interpolation":"STEP",
					"output":120
				},
				{
					"input":24,
					"interpolation":"LINEAR",
					"output":121
				},
				{
					"input":19,
					"interpolation":"STEP",
					"output":122
				},
				{
					"input":19,
					"interpolation":"STEP",
					"output":123
				},
				{
					"input":24,
					"interpolation":"LINEAR",
					"output":124
				},
				{
					"input":19,
					"interpolation":"STEP",
					"output":125
				},
				{
					"input":19,
					"interpolation":"STEP",
					"output":126
				},
				{
					"input":19,
					"interpolation":"STEP",
					"output":127
				},
				{
					"input":19,
					"interpolation":"STEP",
					"output":128
				}
			]
		}
	],
	"materials":[
		{
			"doubleSided":true,
			"name":"whiskers",
			"pbrMetallicRoughness":{
				"baseColorFactor":[
					0.800000011920929,
					0.800000011920929,
					0.800000011920929,
					1
				],
				"metallicFactor":0,
				"roughnessFactor":0.5
			}
		},
		{
			"doubleSided":true,
			"name":"SHD_eye",
			"pbrMetallicRoughness":{
				"baseColorFactor":[
					0.800000011920929,
					0.800000011920929,
					0.800000011920929,
					1
				],
				"metallicFactor":0,
				"roughnessFactor":0.18807339668273926
			}
		},
		{
			"doubleSided":true,
			"name":"SHD_frip",
			"pbrMetallicRoughness":{
				"baseColorFactor":[
					0.800000011920929,
					0.800000011920929,
					0.800000011920929,
					1
				],
				"metallicFactor":0,
				"roughnessFactor":0.71100914478302
			}
		}
	],
	"meshes":[
		{
			"name":"frip_F_export",
			"primitives":[
				{
					"attributes":{
						"POSITION":0,
						"NORMAL":1,
						"TEXCOORD_0":2,
						"JOINTS_0":3,
						"WEIGHTS_0":4
					},
					"indices":5,
					"material":0
				},
				{
					"attributes":{
						"POSITION":6,
						"NORMAL":7,
						"TEXCOORD_0":8,
						"JOINTS_0":9,
						"WEIGHTS_0":10
					},
					"indices":11,
					"material":1
				},
				{
					"attributes":{
						"POSITION":12,
						"NORMAL":13,
						"TEXCOORD_0":14,
						"JOINTS_0":15,
						"WEIGHTS_0":16
					},
					"indices":17,
					"material":2
				}
			]
		}
	],
	"skins":[
		{
			"inverseBindMatrices":18,
			"joints":[
				34,
				33,
				14,
				13,
				2,
				1,
				0,
				7,
				6,
				5,
				4,
				3,
				12,
				11,
				10,
				9,
				8,
				32,
				21,
				20,
				19,
				18,
				17,
				16,
				15,
				26,
				25,
				24,
				23,
				22,
				31,
				30,
				29,
				28,
				27
			],
			"name":"rig"
		}
	],
	"accessors":[
		{
			"bufferView":0,
			"componentType":5126,
			"count":650,
			"max":[
				9.29804801940918,
				12.312238693237305,
				39.68628692626953
			],
			"min":[
				-6.355209827423096,
				9.286209106445312,
				36.51567459106445
			],
			"type":"VEC3"
		},
		{
			"bufferView":1,
			"componentType":5126,
			"count":650,
			"type":"VEC3"
		},
		{
			"bufferView":2,
			"componentType":5126,
			"count":650,
			"type":"VEC2"
		},
		{
			"bufferView":3,
			"componentType":5121,
			"count":650,
			"type":"VEC4"
		},
		{
			"bufferView":4,
			"componentType":5126,
			"count":650,
			"type":"VEC4"
		},
		{
			"bufferView":5,
			"componentType":5123,
			"count":2880,
			"type":"SCALAR"
		},
		{
			"bufferView":6,
			"componentType":5126,
			"count":578,
			"max":[
				5.5397419929504395,
				16.989696502685547,
				37.508487701416016
			],
			"min":[
				-2.634904384613037,
				13.630427360534668,
				35.69944763183594
			],
			"type":"VEC3"
		},
		{
			"bufferView":7,
			"componentType":5126,
			"count":578,
			"type":"VEC3"
		},
		{
			"bufferView":8,
			"componentType":5126,
			"count":578,
			"type":"VEC2"
		},
		{
			"bufferView":9,
			"componentType":5121,
			"count":578,
			"type":"VEC4"
		},
		{
			"bufferView":10,
			"componentType":5126,
			"count":578,
			"type":"VEC4"
		},
		{
			"bufferView":11,
			"componentType":5123,
			"count":3264,
			"type":"SCALAR"
		},
		{
			"bufferView":12,
			"componentType":5126,
			"count":3827,
			"max":[
				10.578726768493652,
				22.908252716064453,
				40.485389709472656
			],
			"min":[
				-6.4936065673828125,
				-22.537330627441406,
				-43.866947174072266
			],
			"type":"VEC3"
		},
		{
			"bufferView":13,
			"componentType":5126,
			"count":3827,
			"type":"VEC3"
		},
		{
			"bufferView":14,
			"componentType":5126,
			"count":3827,
			"type":"VEC2"
		},
		{
			"bufferView":15,
			"componentType":5121,
			"count":3827,
			"type":"VEC4"
		},
		{
			"bufferView":16,
			"componentType":5126,
			"count":3827,
			"type":"VEC4"
		},
		{
			"bufferView":17,
			"componentType":5123,
			"count":18984,
			"type":"SCALAR"
		},
		{
			"bufferView":18,
			"componentType":5126,
			"count":35,
			"type":"MAT4"
		},
		{
			"bufferView":19,
			"componentType":5126,
			"count":2,
			"max":[
				0.43333333333333335
			],
			"min":[
				0.03333333333333333
			],
			"type":"SCALAR"
		},
		{
			"bufferView":20,
			"componentType":5126,
			"count":2,
			"type":"VEC3"
		},
		{
			"bufferView":21,
			"componentType":5126,
			"count":2,
			"type":"VEC4"
		},
		{
			"bufferView":22,
			"componentType":5126,
			"count":2,
			"type":"VEC3"
		},
		{
			"bufferView":23,
			"componentType":5126,
			"count":2,
			"type":"VEC3"
		},
		{
			"bufferView":24,
			"componentType":5126,
			"count":13,
			"max":[
				0.43333333333333335
			],
			"min":[
				0.03333333333333333
			],
			"type":"SCALAR"
		},
		{
			"bufferView":25,
			"componentType":5126,
			"count":13,
			"type":"VEC4"
		},
		{
			"bufferView":26,
			"componentType":5126,
			"count":2,
			"type":"VEC3"
		},
		{
			"bufferView":27,
			"componentType":5126,
			"count":2,
			"type":"VEC3"
		},
		{
			"bufferView":28,
			"componentType":5126,
			"count":13,
			"type":"VEC4"
		},
		{
			"bufferView":29,
			"componentType":5126,
			"count":2,
			"type":"VEC3"
		},
		{
			"bufferView":30,
			"componentType":5126,
			"count":2,
			"type":"VEC3"
		},
		{
			"bufferView":31,
			"componentType":5126,
			"count":13,
			"type":"VEC4"
		},
		{
			"bufferView":32,
			"componentType":5126,
			"count":2,
			"type":"VEC3"
		},
		{
			"bufferView":33,
			"componentType":5126,
			"count":2,
			"type":"VEC3"
		},
		{
			"bufferView":34,
			"componentType":5126,
			"count":13,
			"type":"VEC4"
		},
		{
			"bufferView":35,
			"componentType":5126,
			"count":2,
			"type":"VEC3"
		},
		{
			"bufferView":36,
			"componentType":5126,
			"count":2,
			"type":"VEC3"
		},
		{
			"bufferView":37,
			"componentType":5126,
			"count":13,
			"type":"VEC4"
		},
		{
			"bufferView":38,
			"componentType":5126,
			"count":2,
			"type":"VEC3"
		},
		{
			"bufferView":39,
			"componentType":5126,
			"count":2,
			"type":"VEC3"
		},
		{
			"bufferView":40,
			"componentType":5126,
			"count":13,
			"type":"VEC4"
		},
		{
			"bufferView":41,
			"componentType":5126,
			"count":2,
			"type":"VEC3"
		},
		{
			"bufferView":42,
			"componentType":5126,
			"count":2,
			"type":"VEC3"
		},
		{
			"bufferView":43,
			"componentType":5126,
			"count":13,
			"type":"VEC4"
		},
		{
			"bufferView":44,
			"componentType":5126,
			"count":2,
			"type":"VEC3"
		},
		{
			"bufferView":45,
			"componentType":5126,
			"count":2,
			"type":"VEC3"
		},
		{
			"bufferView":46,
			"componentType":5126,
			"count":13,
			"type":"VEC4"
		},
		{
			"bufferView":47,
			"componentType":5126,
			"count":2,
			"type":"VEC3"
		},
		{
			"bufferView":48,
			"componentType":5126,
			"count":2,
			"type":"VEC3"
		},
		{
			"bufferView":49,
			"componentType":5126,
			"count":13,
			"type":"VEC4"
		},
		{
			"bufferView":50,
			"componentType":5126,
			"count":2,
			"type":"VEC3"
		},
		{
			"bufferView":51,
			"componentType":5126,
			"count":2,
			"type":"VEC3"
		},
		{
			"bufferView":52,
			"componentType":5126,
			"count":13,
			"type":"VEC4"
		},
		{
			"bufferView":53,
			"componentType":5126,
			"count":2,
			"type":"VEC3"
		},
		{
			"bufferView":54,
			"componentType":5126,
			"count":2,
			"type":"VEC3"
		},
		{
			"bufferView":55,
			"componentType":5126,
			"count":13,
			"type":"VEC4"
		},
		{
			"bufferView":56,
			"componentType":5126,
			"count":2,
			"type":"VEC3"
		},
		{
			"bufferView":57,
			"componentType":5126,
			"count":2,
			"type":"VEC3"
		},
		{
			"bufferView":58,
			"componentType":5126,
			"count":13,
			"type":"VEC4"
		},
		{
			"bufferView":59,
			"componentType":5126,
			"count":2,
			"type":"VEC3"
		},
		{
			"bufferView":60,
			"componentType":5126,
			"count":2,
			"type":"VEC3"
		},
		{
			"bufferView":61,
			"componentType":5126,
			"count":13,
			"type":"VEC4"
		},
		{
			"bufferView":62,
			"componentType":5126,
			"count":2,
			"type":"VEC3"
		},
		{
			"bufferView":63,
			"componentType":5126,
			"count":2,
			"type":"VEC3"
		},
		{
			"bufferView":64,
			"componentType":5126,
			"count":13,
			"type":"VEC4"
		},
		{
			"bufferView":65,
			"componentType":5126,
			"count":2,
			"type":"VEC3"
		},
		{
			"bufferView":66,
			"componentType":5126,
			"count":2,
			"type":"VEC3"
		},
		{
			"bufferView":67,
			"componentType":5126,
			"count":13,
			"type":"VEC4"
		},
		{
			"bufferView":68,
			"componentType":5126,
			"count":2,
			"type":"VEC3"
		},
		{
			"bufferView":69,
			"componentType":5126,
			"count":2,
			"type":"VEC3"
		},
		{
			"bufferView":70,
			"componentType":5126,
			"count":13,
			"type":"VEC4"
		},
		{
			"bufferView":71,
			"componentType":5126,
			"count":2,
			"type":"VEC3"
		},
		{
			"bufferView":72,
			"componentType":5126,
			"count":2,
			"type":"VEC3"
		},
		{
			"bufferView":73,
			"componentType":5126,
			"count":13,
			"type":"VEC4"
		},
		{
			"bufferView":74,
			"componentType":5126,
			"count":2,
			"type":"VEC3"
		},
		{
			"bufferView":75,
			"componentType":5126,
			"count":2,
			"type":"VEC3"
		},
		{
			"bufferView":76,
			"componentType":5126,
			"count":13,
			"type":"VEC4"
		},
		{
			"bufferView":77,
			"componentType":5126,
			"count":2,
			"type":"VEC3"
		},
		{
			"bufferView":78,
			"componentType":5126,
			"count":2,
			"type":"VEC3"
		},
		{
			"bufferView":79,
			"componentType":5126,
			"count":13,
			"type":"VEC4"
		},
		{
			"bufferView":80,
			"componentType":5126,
			"count":2,
			"type":"VEC3"
		},
		{
			"bufferView":81,
			"componentType":5126,
			"count":2,
			"type":"VEC3"
		},
		{
			"bufferView":82,
			"componentType":5126,
			"count":13,
			"type":"VEC4"
		},
		{
			"bufferView":83,
			"componentType":5126,
			"count":2,
			"type":"VEC3"
		},
		{
			"bufferView":84,
			"componentType":5126,
			"count":2,
			"type":"VEC3"
		},
		{
			"bufferView":85,
			"componentType":5126,
			"count":13,
			"type":"VEC4"
		},
		{
			"bufferView":86,
			"componentType":5126,
			"count":2,
			"type":"VEC3"
		},
		{
			"bufferView":87,
			"componentType":5126,
			"count":2,
			"type":"VEC3"
		},
		{
			"bufferView":88,
			"componentType":5126,
			"count":13,
			"type":"VEC4"
		},
		{
			"bufferView":89,
			"componentType":5126,
			"count":2,
			"type":"VEC3"
		},
		{
			"bufferView":90,
			"componentType":5126,
			"count":2,
			"type":"VEC3"
		},
		{
			"bufferView":91,
			"componentType":5126,
			"count":13,
			"type":"VEC4"
		},
		{
			"bufferView":92,
			"componentType":5126,
			"count":2,
			"type":"VEC3"
		},
		{
			"bufferView":93,
			"componentType":5126,
			"count":2,
			"type":"VEC3"
		},
		{
			"bufferView":94,
			"componentType":5126,
			"count":13,
			"type":"VEC4"
		},
		{
			"bufferView":95,
			"componentType":5126,
			"count":2,
			"type":"VEC3"
		},
		{
			"bufferView":96,
			"componentType":5126,
			"count":2,
			"type":"VEC3"
		},
		{
			"bufferView":97,
			"componentType":5126,
			"count":13,
			"type":"VEC4"
		},
		{
			"bufferView":98,
			"componentType":5126,
			"count":2,
			"type":"VEC3"
		},
		{
			"bufferView":99,
			"componentType":5126,
			"count":2,
			"type":"VEC3"
		},
		{
			"bufferView":100,
			"componentType":5126,
			"count":13,
			"type":"VEC4"
		},
		{
			"bufferView":101,
			"componentType":5126,
			"count":2,
			"type":"VEC3"
		},
		{
			"bufferView":102,
			"componentType":5126,
			"count":2,
			"type":"VEC3"
		},
		{
			"bufferView":103,
			"componentType":5126,
			"count":13,
			"type":"VEC4"
		},
		{
			"bufferView":104,
			"componentType":5126,
			"count":2,
			"type":"VEC3"
		},
		{
			"bufferView":105,
			"componentType":5126,
			"count":2,
			"type":"VEC3"
		},
		{
			"bufferView":106,
			"componentType":5126,
			"count":13,
			"type":"VEC4"
		},
		{
			"bufferView":107,
			"componentType":5126,
			"count":2,
			"type":"VEC3"
		},
		{
			"bufferView":108,
			"componentType":5126,
			"count":2,
			"type":"VEC3"
		},
		{
			"bufferView":109,
			"componentType":5126,
			"count":13,
			"type":"VEC4"
		},
		{
			"bufferView":110,
			"componentType":5126,
			"count":2,
			"type":"VEC3"
		},
		{
			"bufferView":111,
			"componentType":5126,
			"count":2,
			"type":"VEC3"
		},
		{
			"bufferView":112,
			"componentType":5126,
			"count":13,
			"type":"VEC4"
		},
		{
			"bufferView":113,
			"componentType":5126,
			"count":2,
			"type":"VEC3"
		},
		{
			"bufferView":114,
			"componentType":5126,
			"count":2,
			"type":"VEC3"
		},
		{
			"bufferView":115,
			"componentType":5126,
			"count":13,
			"type":"VEC4"
		},
		{
			"bufferView":116,
			"componentType":5126,
			"count":2,
			"type":"VEC3"
		},
		{
			"bufferView":117,
			"componentType":5126,
			"count":2,
			"type":"VEC3"
		},
		{
			"bufferView":118,
			"componentType":5126,
			"count":13,
			"type":"VEC4"
		},
		{
			"bufferView":119,
			"componentType":5126,
			"count":2,
			"type":"VEC3"
		},
		{
			"bufferView":120,
			"componentType":5126,
			"count":2,
			"type":"VEC3"
		},
		{
			"bufferView":121,
			"componentType":5126,
			"count":13,
			"type":"VEC4"
		},
		{
			"bufferView":122,
			"componentType":5126,
			"count":2,
			"type":"VEC3"
		},
		{
			"bufferView":123,
			"componentType":5126,
			"count":2,
			"type":"VEC3"
		},
		{
			"bufferView":124,
			"componentType":5126,
			"count":13,
			"type":"VEC4"
		},
		{
			"bufferView":125,
			"componentType":5126,
			"count":2,
			"type":"VEC3"
		},
		{
			"bufferView":126,
			"componentType":5126,
			"count":2,
			"type":"VEC3"
		},
		{
			"bufferView":127,
			"componentType":5126,
			"count":2,
			"type":"VEC4"
		},
		{
			"bufferView":128,
			"componentType":5126,
			"count":2,
			"type":"VEC3"
		}
	],
	"bufferViews":[
		{
			"buffer":0,
			"byteLength":7800,
			"byteOffset":0,
			"target":34962
		},
		{
			"buffer":0,
			"byteLength":7800,
			"byteOffset":7800,
			"target":34962
		},
		{
			"buffer":0,
			"byteLength":5200,
			"byteOffset":15600,
			"target":34962
		},
		{
			"buffer":0,
			"byteLength":2600,
			"byteOffset":20800,
			"target":34962
		},
		{
			"buffer":0,
			"byteLength":10400,
			"byteOffset":23400,
			"target":34962
		},
		{
			"buffer":0,
			"byteLength":5760,
			"byteOffset":33800,
			"target":34963
		},
		{
			"buffer":0,
			"byteLength":6936,
			"byteOffset":39560,
			"target":34962
		},
		{
			"buffer":0,
			"byteLength":6936,
			"byteOffset":46496,
			"target":34962
		},
		{
			"buffer":0,
			"byteLength":4624,
			"byteOffset":53432,
			"target":34962
		},
		{
			"buffer":0,
			"byteLength":2312,
			"byteOffset":58056,
			"target":34962
		},
		{
			"buffer":0,
			"byteLength":9248,
			"byteOffset":60368,
			"target":34962
		},
		{
			"buffer":0,
			"byteLength":6528,
			"byteOffset":69616,
			"target":34963
		},
		{
			"buffer":0,
			"byteLength":45924,
			"byteOffset":76144,
			"target":34962
		},
		{
			"buffer":0,
			"byteLength":45924,
			"byteOffset":122068,
			"target":34962
		},
		{
			"buffer":0,
			"byteLength":30616,
			"byteOffset":167992,
			"target":34962
		},
		{
			"buffer":0,
			"byteLength":15308,
			"byteOffset":198608,
			"target":34962
		},
		{
			"buffer":0,
			"byteLength":61232,
			"byteOffset":213916,
			"target":34962
		},
		{
			"buffer":0,
			"byteLength":37968,
			"byteOffset":275148,
			"target":34963
		},
		{
			"buffer":0,
			"byteLength":2240,
			"byteOffset":313116
		},
		{
			"buffer":0,
			"byteLength":8,
			"byteOffset":315356
		},
		{
			"buffer":0,
			"byteLength":24,
			"byteOffset":315364
		},
		{
			"buffer":0,
			"byteLength":32,
			"byteOffset":315388
		},
		{
			"buffer":0,
			"byteLength":24,
			"byteOffset":315420
		},
		{
			"buffer":0,
			"byteLength":24,
			"byteOffset":315444
		},
		{
			"buffer":0,
			"byteLength":52,
			"byteOffset":315468
		},
		{
			"buffer":0,
			"byteLength":208,
			"byteOffset":315520
		},
		{
			"buffer":0,
			"byteLength":24,
			"byteOffset":315728
		},
		{
			"buffer":0,
			"byteLength":24,
			"byteOffset":315752
		},
		{
			"buffer":0,
			"byteLength":208,
			"byteOffset":315776
		},
		{
			"buffer":0,
			"byteLength":24,
			"byteOffset":315984
		},
		{
			"buffer":0,
			"byteLength":24,
			"byteOffset":316008
		},
		{
			"buffer":0,
			"byteLength":208,
			"byteOffset":316032
		},
		{
			"buffer":0,
			"byteLength":24,
			"byteOffset":316240
		},
		{
			"buffer":0,
			"byteLength":24,
			"byteOffset":316264
		},
		{
			"buffer":0,
			"byteLength":208,
			"byteOffset":316288
		},
		{
			"buffer":0,
			"byteLength":24,
			"byteOffset":316496
		},
		{
			"buffer":0,
			"byteLength":24,
			"byteOffset":316520
		},
		{
			"buffer":0,
			"byteLength":208,
			"byteOffset":316544
		},
		{
			"buffer":0,
			"byteLength":24,
			"byteOffset":316752
		},
		{
			"buffer":0,
			"byteLength":24,
			"byteOffset":316776
		},
		{
			"buffer":0,
			"byteLength":208,
			"byteOffset":316800
		},
		{
			"buffer":0,
			"byteLength":24,
			"byteOffset":317008
		},
		{
			"buffer":0,
			"byteLength":24,
			"byteOffset":317032
		},
		{
			"buffer":0,
			"byteLength":208,
			"byteOffset":317056
		},
		{
			"buffer":0,
			"byteLength":24,
			"byteOffset":317264
		},
		{
			"buffer":0,
			"byteLength":24,
			"byteOffset":317288
		},
		{
			"buffer":0,
			"byteLength":208,
			"byteOffset":317312
		},
		{
			"buffer":0,
			"byteLength":24,
			"byteOffset":317520
		},
		{
			"buffer":0,
			"byteLength":24,
			"byteOffset":317544
		},
		{
			"buffer":0,
			"byteLength":208,
			"byteOffset":317568
		},
		{
			"buffer":0,
			"byteLength":24,
			"byteOffset":317776
		},
		{
			"buffer":0,
			"byteLength":24,
			"byteOffset":317800
		},
		{
			"buffer":0,
			"byteLength":208,
			"byteOffset":317824
		},
		{
			"buffer":0,
			"byteLength":24,
			"byteOffset":318032
		},
		{
			"buffer":0,
			"byteLength":24,
			"byteOffset":318056
		},
		{
			"buffer":0,
			"byteLength":208,
			"byteOffset":318080
		},
		{
			"buffer":0,
			"byteLength":24,
			"byteOffset":318288
		},
		{
			"buffer":0,
			"byteLength":24,
			"byteOffset":318312
		},
		{
			"buffer":0,
			"byteLength":208,
			"byteOffset":318336
		},
		{
			"buffer":0,
			"byteLength":24,
			"byteOffset":318544
		},
		{
			"buffer":0,
			"byteLength":24,
			"byteOffset":318568
		},
		{
			"buffer":0,
			"byteLength":208,
			"byteOffset":318592
		},
		{
			"buffer":0,
			"byteLength":24,
			"byteOffset":318800
		},
		{
			"buffer":0,
			"byteLength":24,
			"byteOffset":318824
		},
		{
			"buffer":0,
			"byteLength":208,
			"byteOffset":318848
		},
		{
			"buffer":0,
			"byteLength":24,
			"byteOffset":319056
		},
		{
			"buffer":0,
			"byteLength":24,
			"byteOffset":319080
		},
		{
			"buffer":0,
			"byteLength":208,
			"byteOffset":319104
		},
		{
			"buffer":0,
			"byteLength":24,
			"byteOffset":319312
		},
		{
			"buffer":0,
			"byteLength":24,
			"byteOffset":319336
		},
		{
			"buffer":0,
			"byteLength":208,
			"byteOffset":319360
		},
		{
			"buffer":0,
			"byteLength":24,
			"byteOffset":319568
		},
		{
			"buffer":0,
			"byteLength":24,
			"byteOffset":319592
		},
		{
			"buffer":0,
			"byteLength":208,
			"byteOffset":319616
		},
		{
			"buffer":0,
			"byteLength":24,
			"byteOffset":319824
		},
		{
			"buffer":0,
			"byteLength":24,
			"byteOffset":319848
		},
		{
			"buffer":0,
			"byteLength":208,
			"byteOffset":319872
		},
		{
			"buffer":0,
			"byteLength":24,
			"byteOffset":320080
		},
		{
			"buffer":0,
			"byteLength":24,
			"byteOffset":320104
		},
		{
			"buffer":0,
			"byteLength":208,
			"byteOffset":320128
		},
		{
			"buffer":0,
			"byteLength":24,
			"byteOffset":320336
		},
		{
			"buffer":0,
			"byteLength":24,
			"byteOffset":320360
		},
		{
			"buffer":0,
			"byteLength":208,
			"byteOffset":320384
		},
		{
			"buffer":0,
			"byteLength":24,
			"byteOffset":320592
		},
		{
			"buffer":0,
			"byteLength":24,
			"byteOffset":320616
		},
		{
			"buffer":0,
			"byteLength":208,
			"byteOffset":320640
		},
		{
			"buffer":0,
			"byteLength":24,
			"byteOffset":320848
		},
		{
			"buffer":0,
			"byteLength":24,
			"byteOffset":320872
		},
		{
			"buffer":0,
			"byteLength":208,
			"byteOffset":320896
		},
		{
			"buffer":0,
			"byteLength":24,
			"byteOffset":321104
		},
		{
			"buffer":0,
			"byteLength":24,
			"byteOffset":321128
		},
		{
			"buffer":0,
			"byteLength":208,
			"byteOffset":321152
		},
		{
			"buffer":0,
			"byteLength":24,
			"byteOffset":321360
		},
		{
			"buffer":0,
			"byteLength":24,
			"byteOffset":321384
		},
		{
			"buffer":0,
			"byteLength":208,
			"byteOffset":321408
		},
		{
			"buffer":0,
			"byteLength":24,
			"byteOffset":321616
		},
		{
			"buffer":0,
			"byteLength":24,
			"byteOffset":321640
		},
		{
			"buffer":0,
			"byteLength":208,
			"byteOffset":321664
		},
		{
			"buffer":0,
			"byteLength":24,
			"byteOffset":321872
		},
		{
			"buffer":0,
			"byteLength":24,
			"byteOffset":321896
		},
		{
			"buffer":0,
			"byteLength":208,
			"byteOffset":321920
		},
		{
			"buffer":0,
			"byteLength":24,
			"byteOffset":322128
		},
		{
			"buffer":0,
			"byteLength":24,
			"byteOffset":322152
		},
		{
			"buffer":0,
			"byteLength":208,
			"byteOffset":322176
		},
		{
			"buffer":0,
			"byteLength":24,
			"byteOffset":322384
		},
		{
			"buffer":0,
			"byteLength":24,
			"byteOffset":322408
		},
		{
			"buffer":0,
			"byteLength":208,
			"byteOffset":322432
		},
		{
			"buffer":0,
			"byteLength":24,
			"byteOffset":322640
		},
		{
			"buffer":0,
			"byteLength":24,
			"byteOffset":322664
		},
		{
			"buffer":0,
			"byteLength":208,
			"byteOffset":322688
		},
		{
			"buffer":0,
			"byteLength":24,
			"byteOffset":322896
		},
		{
			"buffer":0,
			"byteLength":24,
			"byteOffset":322920
		},
		{
			"buffer":0,
			"byteLength":208,
			"byteOffset":322944
		},
		{
			"buffer":0,
			"byteLength":24,
			"byteOffset":323152
		},
		{
			"buffer":0,
			"byteLength":24,
			"byteOffset":323176
		},
		{
			"buffer":0,
			"byteLength":208,
			"byteOffset":323200
		},
		{
			"buffer":0,
			"byteLength":24,
			"byteOffset":323408
		},
		{
			"buffer":0,
			"byteLength":24,
			"byteOffset":323432
		},
		{
			"buffer":0,
			"byteLength":208,
			"byteOffset":323456
		},
		{
			"buffer":0,
			"byteLength":24,
			"byteOffset":323664
		},
		{
			"buffer":0,
			"byteLength":24,
			"byteOffset":323688
		},
		{
			"buffer":0,
			"byteLength":208,
			"byteOffset":323712
		},
		{
			"buffer":0,
			"byteLength":24,
			"byteOffset":323920
		},
		{
			"buffer":0,
			"byteLength":24,
			"byteOffset":323944
		},
		{
			"buffer":0,
			"byteLength":208,
			"byteOffset":323968
		},
		{
			"buffer":0,
			"byteLength":24,
			"byteOffset":324176
		},
		{
			"buffer":0,
			"byteLength":24,
			"byteOffset":324200
		},
		{
			"buffer":0,
			"byteLength":32,
			"byteOffset":324224
		},
		{
			"buffer":0,
			"byteLength":24,
			"byteOffset":324256
		}
	],
	"buffers":[
		{
			"byteLength":324280,
			"uri":"data:application/octet-stream;base64,"
		}
	]
}
