{
	"asset":{
		"generator":"Khronos glTF Blender I/O v4.1.62",
		"version":"2.0"
	},
	"scene":0,
	"scenes":[
		{
			"name":"Scene",
			"nodes":[
				22
			]
		}
	],
	"nodes":[
		{
			"name":"head0",
			"rotation":[
				0.20495139062404633,
				0.172899067401886,
				0.5016981363296509,
				0.8224353194236755
			],
			"scale":[
				1,
				0.9999998807907104,
				1
			],
			"translation":[
				1.4901161193847656e-08,
				1.6058930158615112,
				-2.638611476868391e-06
			]
		},
		{
			"children":[
				0
			],
			"name":"neck4",
			"rotation":[
				0.10275392979383469,
				-7.143062975956127e-05,
				-3.8179878174560145e-05,
				0.9947068095207214
			],
			"scale":[
				1.0000001192092896,
				1,
				1
			],
			"translation":[
				1.0477378964424133e-08,
				0.9147777557373047,
				-4.069152055308223e-07
			]
		},
		{
			"children":[
				1
			],
			"name":"neck3",
			"rotation":[
				0.10056385397911072,
				-6.667425623163581e-05,
				-2.3499593226006255e-05,
				0.9949305653572083
			],
			"translation":[
				7.683411240577698e-09,
				1.2938936948776245,
				-5.056899681221694e-07
			]
		},
		{
			"children":[
				2
			],
			"name":"neck2",
			"rotation":[
				-0.19985972344875336,
				0.00013430042599793524,
				6.0589216445805505e-05,
				0.9798244833946228
			],
			"scale":[
				0.9999999403953552,
				1.0000001192092896,
				1
			],
			"translation":[
				-1.1175870895385742e-08,
				1.2192802429199219,
				-5.172259989194572e-07
			]
		},
		{
			"children":[
				3
			],
			"name":"neck1",
			"rotation":[
				-0.03881209343671799,
				2.828681499522645e-05,
				1.8225900930701755e-05,
				0.9992465376853943
			],
			"scale":[
				1,
				0.9999999403953552,
				0.9999998807907104
			],
			"translation":[
				8.847564458847046e-09,
				1.0129820108413696,
				-6.307964213192463e-07
			]
		},
		{
			"children":[
				4
			],
			"name":"neck0",
			"rotation":[
				-0.046883825212717056,
				0.007780356798321009,
				0.020085366442799568,
				0.9986681342124939
			],
			"scale":[
				0.9999999403953552,
				1,
				1.0000001192092896
			],
			"translation":[
				-1.4901161193847656e-08,
				5.689146041870117,
				5.976762622594833e-07
			]
		},
		{
			"children":[
				5
			],
			"name":"body_top1",
			"rotation":[
				0.06739349663257599,
				-0.005537092220038176,
				-0.016067981719970703,
				0.9975817203521729
			],
			"scale":[
				1,
				0.9999999403953552,
				0.9999998807907104
			],
			"translation":[
				-1.862645149230957e-09,
				5.783036231994629,
				-2.724773366935551e-07
			]
		},
		{
			"children":[
				6
			],
			"name":"body_top0",
			"rotation":[
				0.9162850975990295,
				0.002932956675067544,
				-0.0027875127270817757,
				0.40050631761550903
			],
			"scale":[
				0.9999999403953552,
				0.9999998807907104,
				0.9999996423721313
			],
			"translation":[
				0.509119987487793,
				-5.565021514892578,
				-0.1818593144416809
			]
		},
		{
			"name":"leg_left_foot",
			"rotation":[
				-0.4560050368309021,
				0.44756072759628296,
				0.447561115026474,
				0.6256499886512756
			],
			"scale":[
				1.0000001192092896,
				1.000000238418579,
				1.0000001192092896
			],
			"translation":[
				-2.980232238769531e-07,
				7.220810890197754,
				8.940696716308594e-08
			]
		},
		{
			"children":[
				8
			],
			"name":"leg_left_bot0",
			"rotation":[
				-0.26714175939559937,
				-0.25131553411483765,
				0.1816563755273819,
				0.9124016165733337
			],
			"scale":[
				1,
				0.9999998807907104,
				0.9999999403953552
			],
			"translation":[
				2.384185791015625e-07,
				5.5574870109558105,
				-2.384185791015625e-07
			]
		},
		{
			"children":[
				9
			],
			"name":"leg_left_top1",
			"rotation":[
				0.22325271368026733,
				0.8994993567466736,
				-0.31457197666168213,
				0.2051917314529419
			],
			"scale":[
				1,
				0.9999999403953552,
				1.0000001192092896
			],
			"translation":[
				2.980232238769531e-07,
				9.395109176635742,
				0
			]
		},
		{
			"children":[
				10
			],
			"name":"leg_left_top0",
			"rotation":[
				0.11114886403083801,
				0.6880007386207581,
				-0.6538834571838379,
				0.2945120334625244
			],
			"scale":[
				0.9999999403953552,
				0.9999996423721313,
				0.9999998211860657
			],
			"translation":[
				0.2690470814704895,
				0.2572771906852722,
				-6.658171653747559
			]
		},
		{
			"name":"tail2",
			"rotation":[
				-0.8186405301094055,
				0.02195029705762863,
				-0.26535457372665405,
				0.5088544487953186
			],
			"scale":[
				1.0000001192092896,
				0.9999999403953552,
				0.9999998807907104
			],
			"translation":[
				1.30385160446167e-08,
				3.4398868083953857,
				7.959897629916668e-08
			]
		},
		{
			"children":[
				12
			],
			"name":"tail1",
			"rotation":[
				-0.192723348736763,
				-0.0076814754866063595,
				0.13008277118206024,
				0.9725621938705444
			],
			"scale":[
				1,
				0.9999999403953552,
				0.9999999403953552
			],
			"translation":[
				1.8775463104248047e-06,
				6.780004501342773,
				-3.3490359783172607e-06
			]
		},
		{
			"children":[
				13
			],
			"name":"tail0",
			"rotation":[
				0.42388954758644104,
				0.013539343141019344,
				-0.31201013922691345,
				0.8501670956611633
			],
			"scale":[
				0.9999999403953552,
				0.9999998211860657,
				1
			],
			"translation":[
				0,
				3.784180164337158,
				1.817941665649414e-06
			]
		},
		{
			"children":[
				14
			],
			"name":"body_bot",
			"rotation":[
				0.4600156247615814,
				-0.14406785368919373,
				0.13692370057106018,
				0.8653796911239624
			],
			"scale":[
				1,
				0.9999999403953552,
				0.9999998807907104
			],
			"translation":[
				0,
				11.997360229492188,
				1.0728836059570312e-06
			]
		},
		{
			"name":"leg_right_foot",
			"rotation":[
				-0.45600590109825134,
				-0.44755956530570984,
				-0.44755998253822327,
				0.6256510019302368
			],
			"scale":[
				0.9999999403953552,
				0.9999999403953552,
				0.9999999403953552
			],
			"translation":[
				1.1920928955078125e-07,
				7.220810413360596,
				-1.7881393432617188e-07
			]
		},
		{
			"children":[
				16
			],
			"name":"leg_right_bot0",
			"rotation":[
				-0.2671419084072113,
				0.25131383538246155,
				-0.18165622651576996,
				0.9124021530151367
			],
			"scale":[
				0.9999999403953552,
				1,
				1
			],
			"translation":[
				4.76837158203125e-07,
				5.557479381561279,
				2.384185791015625e-07
			]
		},
		{
			"children":[
				17
			],
			"name":"leg_right_top1",
			"rotation":[
				0.1706470251083374,
				-0.9218184947967529,
				0.2957516610622406,
				0.1834700107574463
			],
			"scale":[
				0.9999999403953552,
				1.000000238418579,
				1
			],
			"translation":[
				5.960464477539063e-08,
				8.82234001159668,
				2.384185791015625e-07
			]
		},
		{
			"children":[
				18
			],
			"name":"leg_right_top0",
			"rotation":[
				0.04783567786216736,
				-0.6931101679801941,
				0.6587395668029785,
				0.28874242305755615
			],
			"scale":[
				0.9999999403953552,
				0.9999998807907104,
				0.9999998807907104
			],
			"translation":[
				-0.22336149215698242,
				0.26096779108047485,
				-6.683800220489502
			]
		},
		{
			"children":[
				7,
				11,
				15,
				19
			],
			"name":"body",
			"rotation":[
				0.9996769428253174,
				0,
				0,
				0.02541676163673401
			],
			"translation":[
				-0.5799999833106995,
				-3.603715658187866,
				-3.628995656967163
			]
		},
		{
			"mesh":0,
			"name":"Untitled",
			"skin":0
		},
		{
			"children":[
				21,
				20
			],
			"name":"rig",
			"rotation":[
				0.7071068286895752,
				0,
				0,
				0.7071068286895752
			]
		}
	],
	"animations":[
		{
			"channels":[
				{
					"sampler":0,
					"target":{
						"node":20,
						"path":"translation"
					}
				},
				{
					"sampler":1,
					"target":{
						"node":20,
						"path":"rotation"
					}
				},
				{
					"sampler":2,
					"target":{
						"node":20,
						"path":"scale"
					}
				},
				{
					"sampler":3,
					"target":{
						"node":7,
						"path":"translation"
					}
				},
				{
					"sampler":4,
					"target":{
						"node":7,
						"path":"rotation"
					}
				},
				{
					"sampler":5,
					"target":{
						"node":7,
						"path":"scale"
					}
				},
				{
					"sampler":6,
					"target":{
						"node":6,
						"path":"translation"
					}
				},
				{
					"sampler":7,
					"target":{
						"node":6,
						"path":"rotation"
					}
				},
				{
					"sampler":8,
					"target":{
						"node":6,
						"path":"scale"
					}
				},
				{
					"sampler":9,
					"target":{
						"node":5,
						"path":"translation"
					}
				},
				{
					"sampler":10,
					"target":{
						"node":5,
						"path":"rotation"
					}
				},
				{
					"sampler":11,
					"target":{
						"node":5,
						"path":"scale"
					}
				},
				{
					"sampler":12,
					"target":{
						"node":4,
						"path":"translation"
					}
				},
				{
					"sampler":13,
					"target":{
						"node":4,
						"path":"rotation"
					}
				},
				{
					"sampler":14,
					"target":{
						"node":4,
						"path":"scale"
					}
				},
				{
					"sampler":15,
					"target":{
						"node":3,
						"path":"translation"
					}
				},
				{
					"sampler":16,
					"target":{
						"node":3,
						"path":"rotation"
					}
				},
				{
					"sampler":17,
					"target":{
						"node":3,
						"path":"scale"
					}
				},
				{
					"sampler":18,
					"target":{
						"node":2,
						"path":"translation"
					}
				},
				{
					"sampler":19,
					"target":{
						"node":2,
						"path":"rotation"
					}
				},
				{
					"sampler":20,
					"target":{
						"node":2,
						"path":"scale"
					}
				},
				{
					"sampler":21,
					"target":{
						"node":1,
						"path":"translation"
					}
				},
				{
					"sampler":22,
					"target":{
						"node":1,
						"path":"rotation"
					}
				},
				{
					"sampler":23,
					"target":{
						"node":1,
						"path":"scale"
					}
				},
				{
					"sampler":24,
					"target":{
						"node":0,
						"path":"translation"
					}
				},
				{
					"sampler":25,
					"target":{
						"node":0,
						"path":"rotation"
					}
				},
				{
					"sampler":26,
					"target":{
						"node":0,
						"path":"scale"
					}
				},
				{
					"sampler":27,
					"target":{
						"node":11,
						"path":"translation"
					}
				},
				{
					"sampler":28,
					"target":{
						"node":11,
						"path":"rotation"
					}
				},
				{
					"sampler":29,
					"target":{
						"node":11,
						"path":"scale"
					}
				},
				{
					"sampler":30,
					"target":{
						"node":10,
						"path":"translation"
					}
				},
				{
					"sampler":31,
					"target":{
						"node":10,
						"path":"rotation"
					}
				},
				{
					"sampler":32,
					"target":{
						"node":10,
						"path":"scale"
					}
				},
				{
					"sampler":33,
					"target":{
						"node":9,
						"path":"translation"
					}
				},
				{
					"sampler":34,
					"target":{
						"node":9,
						"path":"rotation"
					}
				},
				{
					"sampler":35,
					"target":{
						"node":9,
						"path":"scale"
					}
				},
				{
					"sampler":36,
					"target":{
						"node":8,
						"path":"translation"
					}
				},
				{
					"sampler":37,
					"target":{
						"node":8,
						"path":"rotation"
					}
				},
				{
					"sampler":38,
					"target":{
						"node":8,
						"path":"scale"
					}
				},
				{
					"sampler":39,
					"target":{
						"node":15,
						"path":"translation"
					}
				},
				{
					"sampler":40,
					"target":{
						"node":15,
						"path":"rotation"
					}
				},
				{
					"sampler":41,
					"target":{
						"node":15,
						"path":"scale"
					}
				},
				{
					"sampler":42,
					"target":{
						"node":14,
						"path":"translation"
					}
				},
				{
					"sampler":43,
					"target":{
						"node":14,
						"path":"rotation"
					}
				},
				{
					"sampler":44,
					"target":{
						"node":14,
						"path":"scale"
					}
				},
				{
					"sampler":45,
					"target":{
						"node":13,
						"path":"translation"
					}
				},
				{
					"sampler":46,
					"target":{
						"node":13,
						"path":"rotation"
					}
				},
				{
					"sampler":47,
					"target":{
						"node":13,
						"path":"scale"
					}
				},
				{
					"sampler":48,
					"target":{
						"node":12,
						"path":"translation"
					}
				},
				{
					"sampler":49,
					"target":{
						"node":12,
						"path":"rotation"
					}
				},
				{
					"sampler":50,
					"target":{
						"node":12,
						"path":"scale"
					}
				},
				{
					"sampler":51,
					"target":{
						"node":19,
						"path":"translation"
					}
				},
				{
					"sampler":52,
					"target":{
						"node":19,
						"path":"rotation"
					}
				},
				{
					"sampler":53,
					"target":{
						"node":19,
						"path":"scale"
					}
				},
				{
					"sampler":54,
					"target":{
						"node":18,
						"path":"translation"
					}
				},
				{
					"sampler":55,
					"target":{
						"node":18,
						"path":"rotation"
					}
				},
				{
					"sampler":56,
					"target":{
						"node":18,
						"path":"scale"
					}
				},
				{
					"sampler":57,
					"target":{
						"node":17,
						"path":"translation"
					}
				},
				{
					"sampler":58,
					"target":{
						"node":17,
						"path":"rotation"
					}
				},
				{
					"sampler":59,
					"target":{
						"node":17,
						"path":"scale"
					}
				},
				{
					"sampler":60,
					"target":{
						"node":16,
						"path":"translation"
					}
				},
				{
					"sampler":61,
					"target":{
						"node":16,
						"path":"rotation"
					}
				},
				{
					"sampler":62,
					"target":{
						"node":16,
						"path":"scale"
					}
				},
				{
					"sampler":63,
					"target":{
						"node":22,
						"path":"translation"
					}
				},
				{
					"sampler":64,
					"target":{
						"node":22,
						"path":"rotation"
					}
				},
				{
					"sampler":65,
					"target":{
						"node":22,
						"path":"scale"
					}
				}
			],
			"name":"rig|rig|walk",
			"samplers":[
				{
					"input":7,
					"interpolation":"STEP",
					"output":8
				},
				{
					"input":7,
					"interpolation":"STEP",
					"output":9
				},
				{
					"input":7,
					"interpolation":"STEP",
					"output":10
				},
				{
					"input":7,
					"interpolation":"STEP",
					"output":11
				},
				{
					"input":12,
					"interpolation":"LINEAR",
					"output":13
				},
				{
					"input":7,
					"interpolation":"STEP",
					"output":14
				},
				{
					"input":7,
					"interpolation":"STEP",
					"output":15
				},
				{
					"input":12,
					"interpolation":"LINEAR",
					"output":16
				},
				{
					"input":7,
					"interpolation":"STEP",
					"output":17
				},
				{
					"input":7,
					"interpolation":"STEP",
					"output":18
				},
				{
					"input":12,
					"interpolation":"LINEAR",
					"output":19
				},
				{
					"input":7,
					"interpolation":"STEP",
					"output":20
				},
				{
					"input":7,
					"interpolation":"STEP",
					"output":21
				},
				{
					"input":12,
					"interpolation":"LINEAR",
					"output":22
				},
				{
					"input":7,
					"interpolation":"STEP",
					"output":23
				},
				{
					"input":7,
					"interpolation":"STEP",
					"output":24
				},
				{
					"input":12,
					"interpolation":"LINEAR",
					"output":25
				},
				{
					"input":7,
					"interpolation":"STEP",
					"output":26
				},
				{
					"input":7,
					"interpolation":"STEP",
					"output":27
				},
				{
					"input":12,
					"interpolation":"LINEAR",
					"output":28
				},
				{
					"input":7,
					"interpolation":"STEP",
					"output":29
				},
				{
					"input":7,
					"interpolation":"STEP",
					"output":30
				},
				{
					"input":12,
					"interpolation":"LINEAR",
					"output":31
				},
				{
					"input":7,
					"interpolation":"STEP",
					"output":32
				},
				{
					"input":7,
					"interpolation":"STEP",
					"output":33
				},
				{
					"input":12,
					"interpolation":"LINEAR",
					"output":34
				},
				{
					"input":7,
					"interpolation":"STEP",
					"output":35
				},
				{
					"input":7,
					"interpolation":"STEP",
					"output":36
				},
				{
					"input":12,
					"interpolation":"LINEAR",
					"output":37
				},
				{
					"input":7,
					"interpolation":"STEP",
					"output":38
				},
				{
					"input":7,
					"interpolation":"STEP",
					"output":39
				},
				{
					"input":12,
					"interpolation":"LINEAR",
					"output":40
				},
				{
					"input":7,
					"interpolation":"STEP",
					"output":41
				},
				{
					"input":7,
					"interpolation":"STEP",
					"output":42
				},
				{
					"input":12,
					"interpolation":"LINEAR",
					"output":43
				},
				{
					"input":7,
					"interpolation":"STEP",
					"output":44
				},
				{
					"input":7,
					"interpolation":"STEP",
					"output":45
				},
				{
					"input":12,
					"interpolation":"LINEAR",
					"output":46
				},
				{
					"input":7,
					"interpolation":"STEP",
					"output":47
				},
				{
					"input":12,
					"interpolation":"LINEAR",
					"output":48
				},
				{
					"input":12,
					"interpolation":"LINEAR",
					"output":49
				},
				{
					"input":7,
					"interpolation":"STEP",
					"output":50
				},
				{
					"input":7,
					"interpolation":"STEP",
					"output":51
				},
				{
					"input":12,
					"interpolation":"LINEAR",
					"output":52
				},
				{
					"input":7,
					"interpolation":"STEP",
					"output":53
				},
				{
					"input":7,
					"interpolation":"STEP",
					"output":54
				},
				{
					"input":12,
					"interpolation":"LINEAR",
					"output":55
				},
				{
					"input":7,
					"interpolation":"STEP",
					"output":56
				},
				{
					"input":7,
					"interpolation":"STEP",
					"output":57
				},
				{
					"input":12,
					"interpolation":"LINEAR",
					"output":58
				},
				{
					"input":7,
					"interpolation":"STEP",
					"output":59
				},
				{
					"input":7,
					"interpolation":"STEP",
					"output":60
				},
				{
					"input":12,
					"interpolation":"LINEAR",
					"output":61
				},
				{
					"input":7,
					"interpolation":"STEP",
					"output":62
				},
				{
					"input":7,
					"interpolation":"STEP",
					"output":63
				},
				{
					"input":12,
					"interpolation":"LINEAR",
					"output":64
				},
				{
					"input":7,
					"interpolation":"STEP",
					"output":65
				},
				{
					"input":7,
					"interpolation":"STEP",
					"output":66
				},
				{
					"input":12,
					"interpolation":"LINEAR",
					"output":67
				},
				{
					"input":7,
					"interpolation":"STEP",
					"output":68
				},
				{
					"input":7,
					"interpolation":"LINEAR",
					"output":69
				},
				{
					"input":12,
					"interpolation":"LINEAR",
					"output":70
				},
				{
					"input":7,
					"interpolation":"LINEAR",
					"output":71
				},
				{
					"input":7,
					"interpolation":"STEP",
					"output":72
				},
				{
					"input":7,
					"interpolation":"STEP",
					"output":73
				},
				{
					"input":7,
					"interpolation":"STEP",
					"output":74
				}
			]
		}
	],
	"materials":[
		{
			"doubleSided":true,
			"name":"Material.003",
			"pbrMetallicRoughness":{
				"baseColorFactor":[
					0.800000011920929,
					0.800000011920929,
					0.800000011920929,
					1
				],
				"metallicFactor":0
			}
		}
	],
	"meshes":[
		{
			"name":"Untitled",
			"primitives":[
				{
					"attributes":{
						"POSITION":0,
						"NORMAL":1,
						"TEXCOORD_0":2,
						"JOINTS_0":3,
						"WEIGHTS_0":4
					},
					"indices":5,
					"material":0
				}
			]
		}
	],
	"skins":[
		{
			"inverseBindMatrices":6,
			"joints":[
				20,
				7,
				6,
				5,
				4,
				3,
				2,
				1,
				0,
				11,
				10,
				9,
				8,
				15,
				14,
				13,
				12,
				19,
				18,
				17,
				16
			],
			"name":"rig"
		}
	],
	"accessors":[
		{
			"bufferView":0,
			"componentType":5126,
			"count":5463,
			"max":[
				37.365169525146484,
				24.914133071899414,
				21.980209350585938
			],
			"min":[
				-37.365169525146484,
				-24.914142608642578,
				-21.980207443237305
			],
			"type":"VEC3"
		},
		{
			"bufferView":1,
			"componentType":5126,
			"count":5463,
			"type":"VEC3"
		},
		{
			"bufferView":2,
			"componentType":5126,
			"count":5463,
			"type":"VEC2"
		},
		{
			"bufferView":3,
			"componentType":5121,
			"count":5463,
			"type":"VEC4"
		},
		{
			"bufferView":4,
			"componentType":5126,
			"count":5463,
			"type":"VEC4"
		},
		{
			"bufferView":5,
			"componentType":5123,
			"count":22212,
			"type":"SCALAR"
		},
		{
			"bufferView":6,
			"componentType":5126,
			"count":21,
			"type":"MAT4"
		},
		{
			"bufferView":7,
			"componentType":5126,
			"count":2,
			"max":[
				1.0333333333333334
			],
			"min":[
				0.03333333333333333
			],
			"type":"SCALAR"
		},
		{
			"bufferView":8,
			"componentType":5126,
			"count":2,
			"type":"VEC3"
		},
		{
			"bufferView":9,
			"componentType":5126,
			"count":2,
			"type":"VEC4"
		},
		{
			"bufferView":10,
			"componentType":5126,
			"count":2,
			"type":"VEC3"
		},
		{
			"bufferView":11,
			"componentType":5126,
			"count":2,
			"type":"VEC3"
		},
		{
			"bufferView":12,
			"componentType":5126,
			"count":31,
			"max":[
				1.0333333333333334
			],
			"min":[
				0.03333333333333333
			],
			"type":"SCALAR"
		},
		{
			"bufferView":13,
			"componentType":5126,
			"count":31,
			"type":"VEC4"
		},
		{
			"bufferView":14,
			"componentType":5126,
			"count":2,
			"type":"VEC3"
		},
		{
			"bufferView":15,
			"componentType":5126,
			"count":2,
			"type":"VEC3"
		},
		{
			"bufferView":16,
			"componentType":5126,
			"count":31,
			"type":"VEC4"
		},
		{
			"bufferView":17,
			"componentType":5126,
			"count":2,
			"type":"VEC3"
		},
		{
			"bufferView":18,
			"componentType":5126,
			"count":2,
			"type":"VEC3"
		},
		{
			"bufferView":19,
			"componentType":5126,
			"count":31,
			"type":"VEC4"
		},
		{
			"bufferView":20,
			"componentType":5126,
			"count":2,
			"type":"VEC3"
		},
		{
			"bufferView":21,
			"componentType":5126,
			"count":2,
			"type":"VEC3"
		},
		{
			"bufferView":22,
			"componentType":5126,
			"count":31,
			"type":"VEC4"
		},
		{
			"bufferView":23,
			"componentType":5126,
			"count":2,
			"type":"VEC3"
		},
		{
			"bufferView":24,
			"componentType":5126,
			"count":2,
			"type":"VEC3"
		},
		{
			"bufferView":25,
			"componentType":5126,
			"count":31,
			"type":"VEC4"
		},
		{
			"bufferView":26,
			"componentType":5126,
			"count":2,
			"type":"VEC3"
		},
		{
			"bufferView":27,
			"componentType":5126,
			"count":2,
			"type":"VEC3"
		},
		{
			"bufferView":28,
			"componentType":5126,
			"count":31,
			"type":"VEC4"
		},
		{
			"bufferView":29,
			"componentType":5126,
			"count":2,
			"type":"VEC3"
		},
		{
			"bufferView":30,
			"componentType":5126,
			"count":2,
			"type":"VEC3"
		},
		{
			"bufferView":31,
			"componentType":5126,
			"count":31,
			"type":"VEC4"
		},
		{
			"bufferView":32,
			"componentType":5126,
			"count":2,
			"type":"VEC3"
		},
		{
			"bufferView":33,
			"componentType":5126,
			"count":2,
			"type":"VEC3"
		},
		{
			"bufferView":34,
			"componentType":5126,
			"count":31,
			"type":"VEC4"
		},
		{
			"bufferView":35,
			"componentType":5126,
			"count":2,
			"type":"VEC3"
		},
		{
			"bufferView":36,
			"componentType":5126,
			"count":2,
			"type":"VEC3"
		},
		{
			"bufferView":37,
			"componentType":5126,
			"count":31,
			"type":"VEC4"
		},
		{
			"bufferView":38,
			"componentType":5126,
			"count":2,
			"type":"VEC3"
		},
		{
			"bufferView":39,
			"componentType":5126,
			"count":2,
			"type":"VEC3"
		},
		{
			"bufferView":40,
			"componentType":5126,
			"count":31,
			"type":"VEC4"
		},
		{
			"bufferView":41,
			"componentType":5126,
			"count":2,
			"type":"VEC3"
		},
		{
			"bufferView":42,
			"componentType":5126,
			"count":2,
			"type":"VEC3"
		},
		{
			"bufferView":43,
			"componentType":5126,
			"count":31,
			"type":"VEC4"
		},
		{
			"bufferView":44,
			"componentType":5126,
			"count":2,
			"type":"VEC3"
		},
		{
			"bufferView":45,
			"componentType":5126,
			"count":2,
			"type":"VEC3"
		},
		{
			"bufferView":46,
			"componentType":5126,
			"count":31,
			"type":"VEC4"
		},
		{
			"bufferView":47,
			"componentType":5126,
			"count":2,
			"type":"VEC3"
		},
		{
			"bufferView":48,
			"componentType":5126,
			"count":31,
			"type":"VEC3"
		},
		{
			"bufferView":49,
			"componentType":5126,
			"count":31,
			"type":"VEC4"
		},
		{
			"bufferView":50,
			"componentType":5126,
			"count":2,
			"type":"VEC3"
		},
		{
			"bufferView":51,
			"componentType":5126,
			"count":2,
			"type":"VEC3"
		},
		{
			"bufferView":52,
			"componentType":5126,
			"count":31,
			"type":"VEC4"
		},
		{
			"bufferView":53,
			"componentType":5126,
			"count":2,
			"type":"VEC3"
		},
		{
			"bufferView":54,
			"componentType":5126,
			"count":2,
			"type":"VEC3"
		},
		{
			"bufferView":55,
			"componentType":5126,
			"count":31,
			"type":"VEC4"
		},
		{
			"bufferView":56,
			"componentType":5126,
			"count":2,
			"type":"VEC3"
		},
		{
			"bufferView":57,
			"componentType":5126,
			"count":2,
			"type":"VEC3"
		},
		{
			"bufferView":58,
			"componentType":5126,
			"count":31,
			"type":"VEC4"
		},
		{
			"bufferView":59,
			"componentType":5126,
			"count":2,
			"type":"VEC3"
		},
		{
			"bufferView":60,
			"componentType":5126,
			"count":2,
			"type":"VEC3"
		},
		{
			"bufferView":61,
			"componentType":5126,
			"count":31,
			"type":"VEC4"
		},
		{
			"bufferView":62,
			"componentType":5126,
			"count":2,
			"type":"VEC3"
		},
		{
			"bufferView":63,
			"componentType":5126,
			"count":2,
			"type":"VEC3"
		},
		{
			"bufferView":64,
			"componentType":5126,
			"count":31,
			"type":"VEC4"
		},
		{
			"bufferView":65,
			"componentType":5126,
			"count":2,
			"type":"VEC3"
		},
		{
			"bufferView":66,
			"componentType":5126,
			"count":2,
			"type":"VEC3"
		},
		{
			"bufferView":67,
			"componentType":5126,
			"count":31,
			"type":"VEC4"
		},
		{
			"bufferView":68,
			"componentType":5126,
			"count":2,
			"type":"VEC3"
		},
		{
			"bufferView":69,
			"componentType":5126,
			"count":2,
			"type":"VEC3"
		},
		{
			"bufferView":70,
			"componentType":5126,
			"count":31,
			"type":"VEC4"
		},
		{
			"bufferView":71,
			"componentType":5126,
			"count":2,
			"type":"VEC3"
		},
		{
			"bufferView":72,
			"componentType":5126,
			"count":2,
			"type":"VEC3"
		},
		{
			"bufferView":73,
			"componentType":5126,
			"count":2,
			"type":"VEC4"
		},
		{
			"bufferView":74,
			"componentType":5126,
			"count":2,
			"type":"VEC3"
		}
	],
	"bufferViews":[
		{
			"buffer":0,
			"byteLength":65556,
			"byteOffset":0,
			"target":34962
		},
		{
			"buffer":0,
			"byteLength":65556,
			"byteOffset":65556,
			"target":34962
		},
		{
			"buffer":0,
			"byteLength":43704,
			"byteOffset":131112,
			"target":34962
		},
		{
			"buffer":0,
			"byteLength":21852,
			"byteOffset":174816,
			"target":34962
		},
		{
			"buffer":0,
			"byteLength":87408,
			"byteOffset":196668,
			"target":34962
		},
		{
			"buffer":0,
			"byteLength":44424,
			"byteOffset":284076,
			"target":34963
		},
		{
			"buffer":0,
			"byteLength":1344,
			"byteOffset":328500
		},
		{
			"buffer":0,
			"byteLength":8,
			"byteOffset":329844
		},
		{
			"buffer":0,
			"byteLength":24,
			"byteOffset":329852
		},
		{
			"buffer":0,
			"byteLength":32,
			"byteOffset":329876
		},
		{
			"buffer":0,
			"byteLength":24,
			"byteOffset":329908
		},
		{
			"buffer":0,
			"byteLength":24,
			"byteOffset":329932
		},
		{
			"buffer":0,
			"byteLength":124,
			"byteOffset":329956
		},
		{
			"buffer":0,
			"byteLength":496,
			"byteOffset":330080
		},
		{
			"buffer":0,
			"byteLength":24,
			"byteOffset":330576
		},
		{
			"buffer":0,
			"byteLength":24,
			"byteOffset":330600
		},
		{
			"buffer":0,
			"byteLength":496,
			"byteOffset":330624
		},
		{
			"buffer":0,
			"byteLength":24,
			"byteOffset":331120
		},
		{
			"buffer":0,
			"byteLength":24,
			"byteOffset":331144
		},
		{
			"buffer":0,
			"byteLength":496,
			"byteOffset":331168
		},
		{
			"buffer":0,
			"byteLength":24,
			"byteOffset":331664
		},
		{
			"buffer":0,
			"byteLength":24,
			"byteOffset":331688
		},
		{
			"buffer":0,
			"byteLength":496,
			"byteOffset":331712
		},
		{
			"buffer":0,
			"byteLength":24,
			"byteOffset":332208
		},
		{
			"buffer":0,
			"byteLength":24,
			"byteOffset":332232
		},
		{
			"buffer":0,
			"byteLength":496,
			"byteOffset":332256
		},
		{
			"buffer":0,
			"byteLength":24,
			"byteOffset":332752
		},
		{
			"buffer":0,
			"byteLength":24,
			"byteOffset":332776
		},
		{
			"buffer":0,
			"byteLength":496,
			"byteOffset":332800
		},
		{
			"buffer":0,
			"byteLength":24,
			"byteOffset":333296
		},
		{
			"buffer":0,
			"byteLength":24,
			"byteOffset":333320
		},
		{
			"buffer":0,
			"byteLength":496,
			"byteOffset":333344
		},
		{
			"buffer":0,
			"byteLength":24,
			"byteOffset":333840
		},
		{
			"buffer":0,
			"byteLength":24,
			"byteOffset":333864
		},
		{
			"buffer":0,
			"byteLength":496,
			"byteOffset":333888
		},
		{
			"buffer":0,
			"byteLength":24,
			"byteOffset":334384
		},
		{
			"buffer":0,
			"byteLength":24,
			"byteOffset":334408
		},
		{
			"buffer":0,
			"byteLength":496,
			"byteOffset":334432
		},
		{
			"buffer":0,
			"byteLength":24,
			"byteOffset":334928
		},
		{
			"buffer":0,
			"byteLength":24,
			"byteOffset":334952
		},
		{
			"buffer":0,
			"byteLength":496,
			"byteOffset":334976
		},
		{
			"buffer":0,
			"byteLength":24,
			"byteOffset":335472
		},
		{
			"buffer":0,
			"byteLength":24,
			"byteOffset":335496
		},
		{
			"buffer":0,
			"byteLength":496,
			"byteOffset":335520
		},
		{
			"buffer":0,
			"byteLength":24,
			"byteOffset":336016
		},
		{
			"buffer":0,
			"byteLength":24,
			"byteOffset":336040
		},
		{
			"buffer":0,
			"byteLength":496,
			"byteOffset":336064
		},
		{
			"buffer":0,
			"byteLength":24,
			"byteOffset":336560
		},
		{
			"buffer":0,
			"byteLength":372,
			"byteOffset":336584
		},
		{
			"buffer":0,
			"byteLength":496,
			"byteOffset":336956
		},
		{
			"buffer":0,
			"byteLength":24,
			"byteOffset":337452
		},
		{
			"buffer":0,
			"byteLength":24,
			"byteOffset":337476
		},
		{
			"buffer":0,
			"byteLength":496,
			"byteOffset":337500
		},
		{
			"buffer":0,
			"byteLength":24,
			"byteOffset":337996
		},
		{
			"buffer":0,
			"byteLength":24,
			"byteOffset":338020
		},
		{
			"buffer":0,
			"byteLength":496,
			"byteOffset":338044
		},
		{
			"buffer":0,
			"byteLength":24,
			"byteOffset":338540
		},
		{
			"buffer":0,
			"byteLength":24,
			"byteOffset":338564
		},
		{
			"buffer":0,
			"byteLength":496,
			"byteOffset":338588
		},
		{
			"buffer":0,
			"byteLength":24,
			"byteOffset":339084
		},
		{
			"buffer":0,
			"byteLength":24,
			"byteOffset":339108
		},
		{
			"buffer":0,
			"byteLength":496,
			"byteOffset":339132
		},
		{
			"buffer":0,
			"byteLength":24,
			"byteOffset":339628
		},
		{
			"buffer":0,
			"byteLength":24,
			"byteOffset":339652
		},
		{
			"buffer":0,
			"byteLength":496,
			"byteOffset":339676
		},
		{
			"buffer":0,
			"byteLength":24,
			"byteOffset":340172
		},
		{
			"buffer":0,
			"byteLength":24,
			"byteOffset":340196
		},
		{
			"buffer":0,
			"byteLength":496,
			"byteOffset":340220
		},
		{
			"buffer":0,
			"byteLength":24,
			"byteOffset":340716
		},
		{
			"buffer":0,
			"byteLength":24,
			"byteOffset":340740
		},
		{
			"buffer":0,
			"byteLength":496,
			"byteOffset":340764
		},
		{
			"buffer":0,
			"byteLength":24,
			"byteOffset":341260
		},
		{
			"buffer":0,
			"byteLength":24,
			"byteOffset":341284
		},
		{
			"buffer":0,
			"byteLength":32,
			"byteOffset":341308
		},
		{
			"buffer":0,
			"byteLength":24,
			"byteOffset":341340
		}
	],
	"buffers":[
		{
			"byteLength":341364,
			"uri":"Untitled_walk.bin"
		}
	]
}
