{
	"asset":{
		"generator":"Khronos glTF Blender I/O v4.1.62",
		"version":"2.0"
	},
	"scene":0,
	"scenes":[
		{
			"name":"Scene",
			"nodes":[
				26
			]
		}
	],
	"nodes":[
		{
			"name":"head0_end",
			"rotation":[
				7.939526369682426e-08,
				-4.4703490686970326e-08,
				-2.2933820176262998e-08,
				1
			],
			"scale":[
				0.9999999403953552,
				0.9999999403953552,
				0.9999999403953552
			],
			"translation":[
				9.5367431640625e-07,
				35.18378829956055,
				3.814697265625e-06
			]
		},
		{
			"children":[
				0
			],
			"name":"head0",
			"rotation":[
				0.20495162904262543,
				0.17289884388446808,
				0.5016985535621643,
				0.8224350810050964
			],
			"scale":[
				1,
				1,
				0.9999998807907104
			],
			"translation":[
				1.3969838619232178e-09,
				1.6058958768844604,
				-7.339403964579105e-07
			]
		},
		{
			"children":[
				1
			],
			"name":"neck4",
			"rotation":[
				0.10275259613990784,
				-7.144341361708939e-05,
				-3.822832150035538e-05,
				0.994706928730011
			],
			"scale":[
				1.0000001192092896,
				1,
				1
			],
			"translation":[
				6.51925802230835e-09,
				0.9147772789001465,
				-1.6621925169602036e-07
			]
		},
		{
			"children":[
				2
			],
			"name":"neck3",
			"rotation":[
				0.10056482255458832,
				-6.666803528787568e-05,
				-2.3461385353584774e-05,
				0.9949305057525635
			],
			"scale":[
				1,
				1.0000001192092896,
				0.9999999403953552
			],
			"translation":[
				9.080395102500916e-09,
				1.2938951253890991,
				-5.069487087894231e-07
			]
		},
		{
			"children":[
				3
			],
			"name":"neck2",
			"rotation":[
				-0.19986025989055634,
				0.0001343028125120327,
				6.063316686777398e-05,
				0.979824423789978
			],
			"scale":[
				0.9999999403953552,
				0.9999999403953552,
				0.9999999403953552
			],
			"translation":[
				1.909211277961731e-08,
				1.2192792892456055,
				4.895409801974893e-07
			]
		},
		{
			"children":[
				4
			],
			"name":"neck1",
			"rotation":[
				-0.038811322301626205,
				2.826921991072595e-05,
				1.818005694076419e-05,
				0.9992465376853943
			],
			"scale":[
				1,
				1,
				1.0000001192092896
			],
			"translation":[
				-6.51925802230835e-09,
				1.012985348701477,
				-6.317422958090901e-07
			]
		},
		{
			"children":[
				5
			],
			"name":"neck0",
			"rotation":[
				-0.04688384011387825,
				0.007780349813401699,
				0.020085368305444717,
				0.9986681342124939
			],
			"scale":[
				0.9999999403953552,
				0.9999998807907104,
				1.0000001192092896
			],
			"translation":[
				-1.4901161193847656e-08,
				5.689140319824219,
				8.388888090848923e-07
			]
		},
		{
			"children":[
				6
			],
			"name":"body_top1",
			"rotation":[
				0.06739326566457748,
				-0.005537094082683325,
				-0.016067985445261,
				0.9975817203521729
			],
			"scale":[
				1,
				1,
				0.9999999403953552
			],
			"translation":[
				9.313225746154785e-09,
				5.783035755157471,
				8.003480616025627e-07
			]
		},
		{
			"children":[
				7
			],
			"name":"body_top0",
			"rotation":[
				0.9162850975990295,
				0.0029329578392207623,
				-0.0027875120285898447,
				0.4005063474178314
			],
			"scale":[
				0.9999999403953552,
				0.9999998211860657,
				0.9999996423721313
			],
			"translation":[
				0.509119987487793,
				-5.565022945404053,
				-0.1818593144416809
			]
		},
		{
			"name":"leg_left_foot_end",
			"rotation":[
				-7.45054640205467e-09,
				2.700834755842152e-08,
				-1.1920928955078125e-07,
				1
			],
			"translation":[
				-3.725292856415763e-07,
				2.000000476837158,
				-8.500260264554527e-07
			]
		},
		{
			"children":[
				9
			],
			"name":"leg_left_foot",
			"rotation":[
				-0.45600488781929016,
				0.44756096601486206,
				0.4475610852241516,
				0.6256499290466309
			],
			"scale":[
				1,
				1.0000001192092896,
				1
			],
			"translation":[
				1.7881393432617188e-07,
				7.220808029174805,
				-2.980232238769531e-07
			]
		},
		{
			"children":[
				10
			],
			"name":"leg_left_bot0",
			"rotation":[
				-0.26714175939559937,
				-0.251315712928772,
				0.18165650963783264,
				0.912401556968689
			],
			"scale":[
				1,
				0.9999999403953552,
				1
			],
			"translation":[
				-4.76837158203125e-07,
				5.557485580444336,
				-2.384185791015625e-07
			]
		},
		{
			"children":[
				11
			],
			"name":"leg_left_top1",
			"rotation":[
				0.2232528030872345,
				0.8994992971420288,
				-0.3145720362663269,
				0.2051917165517807
			],
			"scale":[
				0.9999999403953552,
				1.0000001192092896,
				1.0000001192092896
			],
			"translation":[
				-5.364418029785156e-07,
				9.395106315612793,
				-3.5762786865234375e-07
			]
		},
		{
			"children":[
				12
			],
			"name":"leg_left_top0",
			"rotation":[
				0.11114895343780518,
				0.6880007386207581,
				-0.6538835167884827,
				0.2945120334625244
			],
			"scale":[
				0.9999998211860657,
				0.9999997019767761,
				0.9999999403953552
			],
			"translation":[
				0.2690470814704895,
				0.2572757601737976,
				-6.658173561096191
			]
		},
		{
			"name":"tail2_end",
			"rotation":[
				2.2724270820617676e-07,
				-1.5273690223693848e-07,
				1.341104507446289e-07,
				1
			],
			"translation":[
				-5.239395477474318e-07,
				1.4291670322418213,
				2.3396985397994285e-06
			]
		},
		{
			"children":[
				14
			],
			"name":"tail2",
			"rotation":[
				-0.8186404705047607,
				0.021950263530015945,
				-0.26535463333129883,
				0.5088545083999634
			],
			"scale":[
				1,
				0.9999999403953552,
				0.9999997615814209
			],
			"translation":[
				6.05359673500061e-07,
				3.4398858547210693,
				-2.0859879441559315e-06
			]
		},
		{
			"children":[
				15
			],
			"name":"tail1",
			"rotation":[
				-0.19272343814373016,
				-0.007681506220251322,
				0.13008281588554382,
				0.9725621938705444
			],
			"scale":[
				1,
				0.9999999403953552,
				1
			],
			"translation":[
				-1.1920928955078125e-07,
				6.780004978179932,
				-9.862706065177917e-07
			]
		},
		{
			"children":[
				16
			],
			"name":"tail0",
			"rotation":[
				0.42388954758644104,
				0.013539435341954231,
				-0.31201013922691345,
				0.8501670956611633
			],
			"scale":[
				0.9999999403953552,
				1,
				1.0000001192092896
			],
			"translation":[
				-2.384185791015625e-07,
				3.784179210662842,
				1.4603137969970703e-06
			]
		},
		{
			"children":[
				17
			],
			"name":"body_bot",
			"rotation":[
				0.4600156247615814,
				-0.14406785368919373,
				0.1369236409664154,
				0.8653796911239624
			],
			"scale":[
				1,
				0.9999998807907104,
				0.9999999403953552
			],
			"translation":[
				0,
				11.997359275817871,
				5.364418029785156e-07
			]
		},
		{
			"name":"leg_right_foot_end",
			"rotation":[
				-7.450495331795537e-09,
				-1.65309728572538e-07,
				-2.3096797008292924e-07,
				1
			],
			"translation":[
				-4.768377266373136e-07,
				1.9999983310699463,
				1.0089001989399549e-06
			]
		},
		{
			"children":[
				19
			],
			"name":"leg_right_foot",
			"rotation":[
				-0.45600610971450806,
				-0.4475594758987427,
				-0.44755977392196655,
				0.6256510615348816
			],
			"scale":[
				0.9999999403953552,
				1.0000001192092896,
				0.9999999403953552
			],
			"translation":[
				1.0728836059570312e-06,
				7.220808029174805,
				2.086162567138672e-07
			]
		},
		{
			"children":[
				20
			],
			"name":"leg_right_bot0",
			"rotation":[
				-0.26714184880256653,
				0.25131428241729736,
				-0.181656152009964,
				0.9124020338058472
			],
			"scale":[
				1.0000001192092896,
				1.0000001192092896,
				1.0000001192092896
			],
			"translation":[
				2.384185791015625e-07,
				5.557478904724121,
				-7.152557373046875e-07
			]
		},
		{
			"children":[
				21
			],
			"name":"leg_right_top1",
			"rotation":[
				0.17064714431762695,
				-0.9218186736106873,
				0.2957514524459839,
				0.1834694892168045
			],
			"scale":[
				0.9999998211860657,
				0.9999998211860657,
				0.9999998807907104
			],
			"translation":[
				-2.384185791015625e-07,
				8.822338104248047,
				-1.7881393432617188e-07
			]
		},
		{
			"children":[
				22
			],
			"name":"leg_right_top0",
			"rotation":[
				0.047835759818553925,
				-0.6931102275848389,
				0.6587395668029785,
				0.2887423038482666
			],
			"scale":[
				1,
				1.000000238418579,
				1
			],
			"translation":[
				-0.22336149215698242,
				0.26096636056900024,
				-6.683802604675293
			]
		},
		{
			"children":[
				8,
				13,
				18,
				23
			],
			"name":"body",
			"rotation":[
				0.9996769428253174,
				0,
				0,
				0.02541676163673401
			],
			"translation":[
				-0.5799999833106995,
				-3.603715658187866,
				-3.628995656967163
			]
		},
		{
			"mesh":0,
			"name":"Untitled",
			"skin":0
		},
		{
			"children":[
				25,
				24
			],
			"name":"rig",
			"rotation":[
				0.7071068286895752,
				0,
				0,
				0.7071068286895752
			]
		}
	],
	"materials":[
		{
			"doubleSided":true,
			"name":"Material.003",
			"pbrMetallicRoughness":{
				"baseColorFactor":[
					0.800000011920929,
					0.800000011920929,
					0.800000011920929,
					1
				],
				"metallicFactor":0
			}
		}
	],
	"meshes":[
		{
			"name":"Untitled",
			"primitives":[
				{
					"attributes":{
						"POSITION":0,
						"NORMAL":1,
						"TEXCOORD_0":2,
						"JOINTS_0":3,
						"WEIGHTS_0":4
					},
					"indices":5,
					"material":0
				}
			]
		}
	],
	"skins":[
		{
			"inverseBindMatrices":6,
			"joints":[
				24,
				8,
				7,
				6,
				5,
				4,
				3,
				2,
				1,
				0,
				13,
				12,
				11,
				10,
				9,
				18,
				17,
				16,
				15,
				14,
				23,
				22,
				21,
				20,
				19
			],
			"name":"rig"
		}
	],
	"accessors":[
		{
			"bufferView":0,
			"componentType":5126,
			"count":5463,
			"max":[
				37.36517333984375,
				24.914142608642578,
				21.980209350585938
			],
			"min":[
				-37.36517333984375,
				-24.914140701293945,
				-21.98021125793457
			],
			"type":"VEC3"
		},
		{
			"bufferView":1,
			"componentType":5126,
			"count":5463,
			"type":"VEC3"
		},
		{
			"bufferView":2,
			"componentType":5126,
			"count":5463,
			"type":"VEC2"
		},
		{
			"bufferView":3,
			"componentType":5121,
			"count":5463,
			"type":"VEC4"
		},
		{
			"bufferView":4,
			"componentType":5126,
			"count":5463,
			"type":"VEC4"
		},
		{
			"bufferView":5,
			"componentType":5123,
			"count":22212,
			"type":"SCALAR"
		},
		{
			"bufferView":6,
			"componentType":5126,
			"count":25,
			"type":"MAT4"
		}
	],
	"bufferViews":[
		{
			"buffer":0,
			"byteLength":65556,
			"byteOffset":0,
			"target":34962
		},
		{
			"buffer":0,
			"byteLength":65556,
			"byteOffset":65556,
			"target":34962
		},
		{
			"buffer":0,
			"byteLength":43704,
			"byteOffset":131112,
			"target":34962
		},
		{
			"buffer":0,
			"byteLength":21852,
			"byteOffset":174816,
			"target":34962
		},
		{
			"buffer":0,
			"byteLength":87408,
			"byteOffset":196668,
			"target":34962
		},
		{
			"buffer":0,
			"byteLength":44424,
			"byteOffset":284076,
			"target":34963
		},
		{
			"buffer":0,
			"byteLength":1600,
			"byteOffset":328500
		}
	],
	"buffers":[
		{
			"byteLength":330100,
			"uri":"data:application/octet-stream;base64,"
		}
	]
}
