{
	"asset":{
		"generator":"Khronos glTF Blender I/O v4.1.62",
		"version":"2.0"
	},
	"scene":0,
	"scenes":[
		{
			"name":"Scene",
			"nodes":[
				42
			]
		}
	],
	"nodes":[
		{
			"name":"head0_end",
			"rotation":[
				-5.369947757571936e-07,
				5.587935802964239e-08,
				1.816079020500183e-08,
				1
			],
			"scale":[
				0.9999999403953552,
				1,
				1
			],
			"translation":[
				-1.1920928955078125e-07,
				4.750382423400879,
				1.9222497940063477e-06
			]
		},
		{
			"children":[
				0
			],
			"name":"head0",
			"rotation":[
				0.3486289381980896,
				0.01095547340810299,
				0.018880179151892662,
				0.9370066523551941
			],
			"scale":[
				1.0000001192092896,
				1,
				1
			],
			"translation":[
				-1.043081283569336e-07,
				4.154906272888184,
				-4.991888999938965e-07
			]
		},
		{
			"children":[
				1
			],
			"name":"neck1",
			"rotation":[
				0.233912855386734,
				-0.00023981297272257507,
				0.0030943979509174824,
				0.972252607345581
			],
			"scale":[
				1,
				0.9999999403953552,
				0.9999999403953552
			],
			"translation":[
				2.8312206268310547e-07,
				7.551660537719727,
				-1.7154961824417114e-06
			]
		},
		{
			"children":[
				2
			],
			"name":"neck0",
			"rotation":[
				-0.3421822488307953,
				0.003189430572092533,
				0.0015937561402097344,
				0.9396268725395203
			],
			"scale":[
				0.9999999403953552,
				0.9999998807907104,
				1
			],
			"translation":[
				3.762543201446533e-07,
				10.642170906066895,
				-1.7266720533370972e-06
			]
		},
		{
			"name":"leg_front_left_toe_end",
			"rotation":[
				-2.996985415393283e-07,
				1.0128132998943329e-08,
				1.0493485547158343e-07,
				1
			],
			"scale":[
				1,
				0.9999999403953552,
				1
			],
			"translation":[
				0,
				3.041062116622925,
				3.3974647521972656e-06
			]
		},
		{
			"children":[
				4
			],
			"name":"leg_front_left_toe",
			"rotation":[
				-0.6178789734840393,
				-0.1484900563955307,
				-0.04794098809361458,
				0.7706347703933716
			],
			"scale":[
				1.0000001192092896,
				1,
				1
			],
			"translation":[
				-4.172325134277344e-07,
				8.440933227539062,
				9.834766387939453e-07
			]
		},
		{
			"children":[
				5
			],
			"name":"leg_front_left_ankle",
			"rotation":[
				-0.08327421545982361,
				0.6679366827011108,
				0.07641591876745224,
				0.7355859279632568
			],
			"scale":[
				1,
				0.9999999403953552,
				1
			],
			"translation":[
				-3.6507844924926758e-06,
				6.100986003875732,
				-1.1473894119262695e-06
			]
		},
		{
			"children":[
				6
			],
			"name":"leg_front_left_bot0",
			"rotation":[
				0.2189881056547165,
				-0.3281806707382202,
				-0.18432478606700897,
				0.9002033472061157
			],
			"scale":[
				0.9999998807907104,
				1,
				0.9999998211860657
			],
			"translation":[
				-4.76837158203125e-07,
				9.264867782592773,
				1.1920928955078125e-06
			]
		},
		{
			"children":[
				7
			],
			"name":"leg_front_left_top1",
			"rotation":[
				-0.4890092611312866,
				-0.6451223492622375,
				-0.038295142352581024,
				0.5858502984046936
			],
			"scale":[
				1.0000001192092896,
				1.0000001192092896,
				1
			],
			"translation":[
				1.4156103134155273e-06,
				7.511794567108154,
				-3.2782554626464844e-07
			]
		},
		{
			"children":[
				8
			],
			"name":"leg_front_left_top0",
			"rotation":[
				0.8020578622817993,
				0.284105122089386,
				0.2889467477798462,
				0.4387451112270355
			],
			"scale":[
				0.9999998807907104,
				1,
				0.9999998807907104
			],
			"translation":[
				0.06904515624046326,
				4.568148136138916,
				1.4118788242340088
			]
		},
		{
			"name":"leg_front_right_toe_end",
			"rotation":[
				1.7258096818295598e-07,
				-2.868473529815674e-07,
				-2.8746165980919614e-07,
				1
			],
			"scale":[
				1,
				0.9999999403953552,
				1
			],
			"translation":[
				-3.5762786865234375e-07,
				2.4094555377960205,
				1.2516975402832031e-06
			]
		},
		{
			"children":[
				10
			],
			"name":"leg_front_right_toe",
			"rotation":[
				-0.5701727867126465,
				0.5380239486694336,
				0.30547499656677246,
				0.5404797196388245
			],
			"scale":[
				0.9999999403953552,
				1,
				1
			],
			"translation":[
				-8.344650268554688e-07,
				8.478988647460938,
				1.3709068298339844e-06
			]
		},
		{
			"children":[
				11
			],
			"name":"leg_front_right_ankle",
			"rotation":[
				-0.026358511298894882,
				0.3656100332736969,
				0.06165304407477379,
				0.9283498525619507
			],
			"scale":[
				1,
				1,
				1.0000001192092896
			],
			"translation":[
				-1.1995434761047363e-06,
				5.494621276855469,
				-2.4437904357910156e-06
			]
		},
		{
			"children":[
				12
			],
			"name":"leg_front_right_bot0",
			"rotation":[
				0.11661368608474731,
				-0.8546572327613831,
				-0.19667227566242218,
				0.46613550186157227
			],
			"scale":[
				0.9999998211860657,
				1.0000001192092896,
				0.9999999403953552
			],
			"translation":[
				-5.125999450683594e-06,
				9.545595169067383,
				3.5762786865234375e-06
			]
		},
		{
			"children":[
				13
			],
			"name":"leg_front_right_top1",
			"rotation":[
				-0.45365235209465027,
				0.7690690755844116,
				0.059322014451026917,
				0.44633305072784424
			],
			"scale":[
				0.9999999403953552,
				0.9999998211860657,
				0.9999998807907104
			],
			"translation":[
				6.556510925292969e-07,
				7.80446195602417,
				8.940696716308594e-08
			]
		},
		{
			"children":[
				14
			],
			"name":"leg_front_right_top0",
			"rotation":[
				0.7405068278312683,
				-0.413250207901001,
				-0.4113316833972931,
				0.33418577909469604
			],
			"scale":[
				1.0000001192092896,
				1.0000001192092896,
				1.0000001192092896
			],
			"translation":[
				-0.20060302317142487,
				4.577386379241943,
				1.3953391313552856
			]
		},
		{
			"children":[
				3,
				9,
				15
			],
			"name":"body_top1",
			"rotation":[
				-0.01963244564831257,
				-0.007691074628382921,
				-0.007812363561242819,
				0.9997471570968628
			],
			"scale":[
				0.9999999403953552,
				0.9999997615814209,
				0.9999999403953552
			],
			"translation":[
				-1.1920928955078125e-07,
				5.043295860290527,
				-4.842877388000488e-07
			]
		},
		{
			"children":[
				16
			],
			"name":"body_top0",
			"rotation":[
				-0.0057895248755812645,
				-0.0029037499334663153,
				-0.0029173444490879774,
				0.99997478723526
			],
			"scale":[
				1,
				1,
				0.9999999403953552
			],
			"translation":[
				0.10943973064422607,
				10.015120506286621,
				-0.192104771733284
			]
		},
		{
			"name":"tail5_end",
			"rotation":[
				-3.1419043011737813e-07,
				-5.2619732571201894e-08,
				3.515743074444799e-08,
				1
			],
			"scale":[
				0.9999999403953552,
				0.9999998807907104,
				0.9999998807907104
			],
			"translation":[
				2.5331974029541016e-07,
				2.710618734359741,
				-3.129243850708008e-07
			]
		},
		{
			"children":[
				18
			],
			"name":"tail5",
			"rotation":[
				0.0333341583609581,
				0.004121856298297644,
				-0.0016773063689470291,
				0.9994343519210815
			],
			"scale":[
				0.9999998807907104,
				0.9999999403953552,
				1
			],
			"translation":[
				8.940696716308594e-08,
				3.7861504554748535,
				1.6354024410247803e-06
			]
		},
		{
			"children":[
				19
			],
			"name":"tail4",
			"rotation":[
				0.027538258582353592,
				-0.010670003481209278,
				0.006148770917207003,
				0.9995449185371399
			],
			"scale":[
				1,
				1,
				1.0000001192092896
			],
			"translation":[
				1.4901161193847656e-07,
				4.251156806945801,
				-3.896653652191162e-06
			]
		},
		{
			"children":[
				20
			],
			"name":"tail3",
			"rotation":[
				0.09602313488721848,
				0.02453617937862873,
				-0.00945246685296297,
				0.9950317740440369
			],
			"scale":[
				1,
				0.9999999403953552,
				1
			],
			"translation":[
				-2.2412336875277106e-07,
				4.247921466827393,
				4.993780748918653e-07
			]
		},
		{
			"children":[
				21
			],
			"name":"tail2",
			"rotation":[
				0.003175589954480529,
				-0.017433438450098038,
				0.006716161500662565,
				0.9998204708099365
			],
			"scale":[
				0.9999999403953552,
				0.9999998807907104,
				0.9999998211860657
			],
			"translation":[
				-8.028000593185425e-07,
				3.753974676132202,
				3.4570693969726562e-06
			]
		},
		{
			"children":[
				22
			],
			"name":"tail1",
			"rotation":[
				-0.10397753864526749,
				0.0019172641914337873,
				-0.0028112009167671204,
				0.9945738315582275
			],
			"scale":[
				0.9999998807907104,
				1,
				0.9999999403953552
			],
			"translation":[
				6.705522537231445e-08,
				7.0110392570495605,
				-1.1920928955078125e-07
			]
		},
		{
			"children":[
				23
			],
			"name":"tail0",
			"rotation":[
				-0.20874479413032532,
				0.005804613698273897,
				-0.006633998826146126,
				0.97793048620224
			],
			"scale":[
				0.9999999403953552,
				0.9999999403953552,
				0.9999999403953552
			],
			"translation":[
				1.4901161193847656e-07,
				16.437135696411133,
				3.688037395477295e-07
			]
		},
		{
			"children":[
				24
			],
			"name":"pelvis",
			"rotation":[
				-0.09063740074634552,
				0.00521657383069396,
				-0.0050566112622618675,
				0.9958574771881104
			],
			"scale":[
				1,
				1,
				0.9999999403953552
			],
			"translation":[
				1.5981062517766986e-07,
				7.067293643951416,
				5.171841621631756e-07
			]
		},
		{
			"name":"leg_hind_right_toe_end",
			"rotation":[
				7.101341736870381e-09,
				-3.830392415693495e-06,
				2.48352538534391e-08,
				1
			],
			"translation":[
				6.220994919203804e-08,
				2.999999523162842,
				-1.6088868051156169e-06
			]
		},
		{
			"children":[
				26
			],
			"name":"leg_hind_right_toe",
			"rotation":[
				-0.46521756052970886,
				0.5219013690948486,
				0.5218966603279114,
				0.4886874854564667
			],
			"scale":[
				1,
				1,
				0.9999999403953552
			],
			"translation":[
				-1.825392246246338e-07,
				9.712898254394531,
				1.1920928955078125e-07
			]
		},
		{
			"children":[
				27
			],
			"name":"leg_hind_right_ankle",
			"rotation":[
				-0.3258521556854248,
				-0.7324806451797485,
				0.33853617310523987,
				0.4926314353942871
			],
			"scale":[
				0.9999998807907104,
				1,
				1.0000001192092896
			],
			"translation":[
				-2.8014183044433594e-06,
				7.4807233810424805,
				1.2516975402832031e-06
			]
		},
		{
			"children":[
				28
			],
			"name":"leg_hind_right_bot0",
			"rotation":[
				0.2887195944786072,
				0.36988377571105957,
				-0.15330170094966888,
				0.8696698546409607
			],
			"scale":[
				1.0000001192092896,
				0.9999999403953552,
				1
			],
			"translation":[
				-2.384185791015625e-07,
				9.062529563903809,
				-3.5762786865234375e-07
			]
		},
		{
			"children":[
				29
			],
			"name":"leg_hind_right_top1",
			"rotation":[
				0.4597143828868866,
				-0.6676130890846252,
				-0.02177932858467102,
				0.5852187871932983
			],
			"scale":[
				1.0000001192092896,
				1.000000238418579,
				1.0000001192092896
			],
			"translation":[
				3.8743019104003906e-07,
				8.850000381469727,
				-1.7881393432617188e-07
			]
		},
		{
			"children":[
				30
			],
			"name":"leg_hind_right_top0",
			"rotation":[
				-0.8167151808738708,
				0.32894229888916016,
				-0.3188578486442566,
				0.3508603870868683
			],
			"scale":[
				1,
				0.9999998807907104,
				0.9999997615814209
			],
			"translation":[
				-0.15677659213542938,
				12.043209075927734,
				-1.2285737991333008
			]
		},
		{
			"name":"leg_hind_left_toe_end",
			"rotation":[
				3.728820807680222e-09,
				1.0280914466420654e-06,
				4.271660145604983e-07,
				1
			],
			"scale":[
				1,
				0.9999999403953552,
				1
			],
			"translation":[
				-6.364844011841342e-07,
				3.000002384185791,
				-3.1317094908445142e-06
			]
		},
		{
			"children":[
				32
			],
			"name":"leg_hind_left_toe",
			"rotation":[
				-0.6906812191009521,
				0.23663881421089172,
				0.2366400808095932,
				0.6410640478134155
			],
			"scale":[
				0.9999999403953552,
				0.9999999403953552,
				0.9999999403953552
			],
			"translation":[
				-5.960464477539063e-08,
				9.565620422363281,
				7.152557373046875e-07
			]
		},
		{
			"children":[
				33
			],
			"name":"leg_hind_left_ankle",
			"rotation":[
				-0.4109087586402893,
				-0.17027096450328827,
				0.1523737758398056,
				0.8825780749320984
			],
			"scale":[
				0.9999998807907104,
				0.9999999403953552,
				0.9999999403953552
			],
			"translation":[
				8.344650268554688e-07,
				7.88375186920166,
				0
			]
		},
		{
			"children":[
				34
			],
			"name":"leg_hind_left_bot0",
			"rotation":[
				0.3858545422554016,
				-0.09562277048826218,
				-0.005949034821242094,
				0.9175713658332825
			],
			"scale":[
				0.9999998807907104,
				1,
				0.9999998807907104
			],
			"translation":[
				2.7194619178771973e-07,
				8.750105857849121,
				-4.76837158203125e-07
			]
		},
		{
			"children":[
				35
			],
			"name":"leg_hind_left_top1",
			"rotation":[
				0.4439273476600647,
				0.6016495823860168,
				-0.07291176915168762,
				0.6600228548049927
			],
			"scale":[
				0.9999999403953552,
				0.9999998807907104,
				1
			],
			"translation":[
				-2.6226043701171875e-06,
				9.6441011428833,
				-1.1920928955078125e-07
			]
		},
		{
			"children":[
				36
			],
			"name":"leg_hind_left_top0",
			"rotation":[
				-0.7449958920478821,
				-0.45279204845428467,
				0.4389094114303589,
				0.21752963960170746
			],
			"scale":[
				1,
				0.9999997615814209,
				0.9999998807907104
			],
			"translation":[
				0.24185045063495636,
				12.064245223999023,
				-1.19792640209198
			]
		},
		{
			"children":[
				25,
				31,
				37
			],
			"name":"body_bot",
			"rotation":[
				0.9990662932395935,
				-0.013206187635660172,
				0.012803242541849613,
				0.03909236192703247
			],
			"scale":[
				1.000001311302185,
				1,
				1.0000101327896118
			],
			"translation":[
				0.026075612753629684,
				0.9784585237503052,
				-0.04577050358057022
			]
		},
		{
			"children":[
				17,
				38
			],
			"name":"body",
			"rotation":[
				0.7234302163124084,
				9.14032938226228e-08,
				0.018392382189631462,
				0.6901525259017944
			],
			"translation":[
				0.007440805435180664,
				31.97734260559082,
				1.240456223487854
			]
		},
		{
			"children":[
				39
			],
			"name":"root",
			"rotation":[
				-0.7071031928062439,
				0,
				0,
				0.7071103453636169
			],
			"translation":[
				2.0425591468811035,
				-1.6907767057418823,
				22.53733253479004
			]
		},
		{
			"mesh":0,
			"name":"frip_F_export",
			"skin":0
		},
		{
			"children":[
				41,
				40
			],
			"name":"rig",
			"rotation":[
				0.7071068286895752,
				0,
				0,
				0.7071068286895752
			]
		}
	],
	"materials":[
		{
			"doubleSided":true,
			"name":"whiskers",
			"pbrMetallicRoughness":{
				"baseColorFactor":[
					0.800000011920929,
					0.800000011920929,
					0.800000011920929,
					1
				],
				"metallicFactor":0,
				"roughnessFactor":0.5
			}
		},
		{
			"doubleSided":true,
			"name":"SHD_eye",
			"pbrMetallicRoughness":{
				"baseColorFactor":[
					0.800000011920929,
					0.800000011920929,
					0.800000011920929,
					1
				],
				"metallicFactor":0,
				"roughnessFactor":0.18807339668273926
			}
		},
		{
			"doubleSided":true,
			"name":"SHD_frip",
			"pbrMetallicRoughness":{
				"baseColorFactor":[
					0.800000011920929,
					0.800000011920929,
					0.800000011920929,
					1
				],
				"metallicFactor":0,
				"roughnessFactor":0.71100914478302
			}
		}
	],
	"meshes":[
		{
			"name":"frip_F_export",
			"primitives":[
				{
					"attributes":{
						"POSITION":0,
						"NORMAL":1,
						"TEXCOORD_0":2,
						"JOINTS_0":3,
						"WEIGHTS_0":4
					},
					"indices":5,
					"material":0
				},
				{
					"attributes":{
						"POSITION":6,
						"NORMAL":7,
						"TEXCOORD_0":8,
						"JOINTS_0":9,
						"WEIGHTS_0":10
					},
					"indices":11,
					"material":1
				},
				{
					"attributes":{
						"POSITION":12,
						"NORMAL":13,
						"TEXCOORD_0":14,
						"JOINTS_0":15,
						"WEIGHTS_0":16
					},
					"indices":17,
					"material":2
				}
			]
		}
	],
	"skins":[
		{
			"inverseBindMatrices":18,
			"joints":[
				40,
				39,
				17,
				16,
				3,
				2,
				1,
				0,
				9,
				8,
				7,
				6,
				5,
				4,
				15,
				14,
				13,
				12,
				11,
				10,
				38,
				25,
				24,
				23,
				22,
				21,
				20,
				19,
				18,
				31,
				30,
				29,
				28,
				27,
				26,
				37,
				36,
				35,
				34,
				33,
				32
			],
			"name":"rig"
		}
	],
	"accessors":[
		{
			"bufferView":0,
			"componentType":5126,
			"count":650,
			"max":[
				9.29804801940918,
				12.312243461608887,
				39.6862907409668
			],
			"min":[
				-6.35521125793457,
				9.286212921142578,
				36.51567840576172
			],
			"type":"VEC3"
		},
		{
			"bufferView":1,
			"componentType":5126,
			"count":650,
			"type":"VEC3"
		},
		{
			"bufferView":2,
			"componentType":5126,
			"count":650,
			"type":"VEC2"
		},
		{
			"bufferView":3,
			"componentType":5121,
			"count":650,
			"type":"VEC4"
		},
		{
			"bufferView":4,
			"componentType":5126,
			"count":650,
			"type":"VEC4"
		},
		{
			"bufferView":5,
			"componentType":5123,
			"count":2880,
			"type":"SCALAR"
		},
		{
			"bufferView":6,
			"componentType":5126,
			"count":578,
			"max":[
				5.5397419929504395,
				16.989700317382812,
				37.50849151611328
			],
			"min":[
				-2.6349058151245117,
				13.630431175231934,
				35.6994514465332
			],
			"type":"VEC3"
		},
		{
			"bufferView":7,
			"componentType":5126,
			"count":578,
			"type":"VEC3"
		},
		{
			"bufferView":8,
			"componentType":5126,
			"count":578,
			"type":"VEC2"
		},
		{
			"bufferView":9,
			"componentType":5121,
			"count":578,
			"type":"VEC4"
		},
		{
			"bufferView":10,
			"componentType":5126,
			"count":578,
			"type":"VEC4"
		},
		{
			"bufferView":11,
			"componentType":5123,
			"count":3264,
			"type":"SCALAR"
		},
		{
			"bufferView":12,
			"componentType":5126,
			"count":3827,
			"max":[
				10.578726768493652,
				22.90825653076172,
				40.48539352416992
			],
			"min":[
				-6.493607997894287,
				-22.537334442138672,
				-43.866943359375
			],
			"type":"VEC3"
		},
		{
			"bufferView":13,
			"componentType":5126,
			"count":3827,
			"type":"VEC3"
		},
		{
			"bufferView":14,
			"componentType":5126,
			"count":3827,
			"type":"VEC2"
		},
		{
			"bufferView":15,
			"componentType":5121,
			"count":3827,
			"type":"VEC4"
		},
		{
			"bufferView":16,
			"componentType":5126,
			"count":3827,
			"type":"VEC4"
		},
		{
			"bufferView":17,
			"componentType":5123,
			"count":18984,
			"type":"SCALAR"
		},
		{
			"bufferView":18,
			"componentType":5126,
			"count":41,
			"type":"MAT4"
		}
	],
	"bufferViews":[
		{
			"buffer":0,
			"byteLength":7800,
			"byteOffset":0,
			"target":34962
		},
		{
			"buffer":0,
			"byteLength":7800,
			"byteOffset":7800,
			"target":34962
		},
		{
			"buffer":0,
			"byteLength":5200,
			"byteOffset":15600,
			"target":34962
		},
		{
			"buffer":0,
			"byteLength":2600,
			"byteOffset":20800,
			"target":34962
		},
		{
			"buffer":0,
			"byteLength":10400,
			"byteOffset":23400,
			"target":34962
		},
		{
			"buffer":0,
			"byteLength":5760,
			"byteOffset":33800,
			"target":34963
		},
		{
			"buffer":0,
			"byteLength":6936,
			"byteOffset":39560,
			"target":34962
		},
		{
			"buffer":0,
			"byteLength":6936,
			"byteOffset":46496,
			"target":34962
		},
		{
			"buffer":0,
			"byteLength":4624,
			"byteOffset":53432,
			"target":34962
		},
		{
			"buffer":0,
			"byteLength":2312,
			"byteOffset":58056,
			"target":34962
		},
		{
			"buffer":0,
			"byteLength":9248,
			"byteOffset":60368,
			"target":34962
		},
		{
			"buffer":0,
			"byteLength":6528,
			"byteOffset":69616,
			"target":34963
		},
		{
			"buffer":0,
			"byteLength":45924,
			"byteOffset":76144,
			"target":34962
		},
		{
			"buffer":0,
			"byteLength":45924,
			"byteOffset":122068,
			"target":34962
		},
		{
			"buffer":0,
			"byteLength":30616,
			"byteOffset":167992,
			"target":34962
		},
		{
			"buffer":0,
			"byteLength":15308,
			"byteOffset":198608,
			"target":34962
		},
		{
			"buffer":0,
			"byteLength":61232,
			"byteOffset":213916,
			"target":34962
		},
		{
			"buffer":0,
			"byteLength":37968,
			"byteOffset":275148,
			"target":34963
		},
		{
			"buffer":0,
			"byteLength":2624,
			"byteOffset":313116
		}
	],
	"buffers":[
		{
			"byteLength":315740,
			"uri":"data:application/octet-stream;base64,"
		}
	]
}
