{
	"asset":{
		"generator":"Khronos glTF Blender I/O v4.1.62",
		"version":"2.0"
	},
	"scene":0,
	"scenes":[
		{
			"name":"Scene",
			"nodes":[
				41
			]
		}
	],
	"nodes":[
		{
			"name":"head0_end",
			"rotation":[
				-5.972106009721756e-08,
				-8.847564458847046e-09,
				1.3969838619232178e-09,
				1
			],
			"translation":[
				1.1187512427568436e-07,
				14.690690040588379,
				-4.137240466661751e-06
			]
		},
		{
			"children":[
				0
			],
			"name":"head0",
			"rotation":[
				0.4460315704345703,
				0.0531107634305954,
				0.038896288722753525,
				0.8925929665565491
			],
			"scale":[
				1.0000001192092896,
				1,
				1
			],
			"translation":[
				-3.129243850708008e-07,
				4.2205586433410645,
				-3.084540367126465e-06
			]
		},
		{
			"children":[
				1
			],
			"name":"neck2",
			"rotation":[
				-0.15754680335521698,
				-0.03413623571395874,
				-0.03658902272582054,
				0.9862428307533264
			],
			"translation":[
				4.792177321633062e-09,
				3.6086761951446533,
				1.0722811794039444e-06
			]
		},
		{
			"children":[
				2
			],
			"name":"neck1",
			"rotation":[
				-0.039989300072193146,
				-0.005479324143379927,
				-0.005873027723282576,
				0.9991678595542908
			],
			"scale":[
				1,
				0.9999999403953552,
				1
			],
			"translation":[
				7.450580596923828e-09,
				8.851073265075684,
				-1.8742866814136505e-08
			]
		},
		{
			"children":[
				3
			],
			"name":"neck0",
			"rotation":[
				-0.015140498988330364,
				0.005794689990580082,
				0.005562111735343933,
				0.9998531341552734
			],
			"scale":[
				1,
				1,
				1.0000001192092896
			],
			"translation":[
				0,
				10.2586030960083,
				-1.1920928955078125e-07
			]
		},
		{
			"name":"leg_front_left_hoof_end",
			"rotation":[
				-8.451751654092732e-08,
				1.93621963262558e-06,
				1.778826117515564e-07,
				1
			],
			"scale":[
				1,
				1.0000001192092896,
				1.0000001192092896
			],
			"translation":[
				4.172325134277344e-07,
				4.92849063873291,
				-2.5033950805664062e-06
			]
		},
		{
			"children":[
				5
			],
			"name":"leg_front_left_hoof",
			"rotation":[
				-0.0674392431974411,
				-0.4389917552471161,
				-0.0390155091881752,
				0.8951066732406616
			],
			"scale":[
				1,
				0.9999998807907104,
				1
			],
			"translation":[
				-6.854534149169922e-07,
				4.215746879577637,
				-2.384185791015625e-07
			]
		},
		{
			"children":[
				6
			],
			"name":"leg_front_left_bot0",
			"rotation":[
				0.11931291222572327,
				0.14580443501472473,
				0.04064808413386345,
				0.9812508821487427
			],
			"scale":[
				1,
				0.9999998211860657,
				0.9999999403953552
			],
			"translation":[
				8.046627044677734e-07,
				6.995718002319336,
				9.5367431640625e-07
			]
		},
		{
			"children":[
				7
			],
			"name":"leg_front_left_top2",
			"rotation":[
				-0.13179950416088104,
				0.7812617421150208,
				0.11722389608621597,
				0.5987633466720581
			],
			"scale":[
				0.9999998807907104,
				1,
				1
			],
			"translation":[
				6.955815479159355e-07,
				13.4046630859375,
				1.4540273696184158e-07
			]
		},
		{
			"children":[
				8
			],
			"name":"leg_front_left_top1",
			"rotation":[
				0.3264179229736328,
				0.7880287766456604,
				-0.34111154079437256,
				0.39510124921798706
			],
			"scale":[
				0.9999998807907104,
				0.9999997615814209,
				0.9999999403953552
			],
			"translation":[
				-1.430511474609375e-06,
				7.333192825317383,
				-1.9073486328125e-06
			]
		},
		{
			"children":[
				9
			],
			"name":"leg_front_left_top0",
			"rotation":[
				-0.5261363387107849,
				-0.606748104095459,
				-0.5823954939842224,
				0.1259072721004486
			],
			"scale":[
				1,
				1.0000003576278687,
				1.0000001192092896
			],
			"translation":[
				0.392560213804245,
				10.183540344238281,
				1.2862848043441772
			]
		},
		{
			"name":"leg_front_right_hoof_end",
			"rotation":[
				-8.451751654092732e-08,
				-1.93621963262558e-06,
				-1.778826117515564e-07,
				1
			],
			"scale":[
				1,
				1.0000001192092896,
				1.0000001192092896
			],
			"translation":[
				-4.172325134277344e-07,
				4.92849063873291,
				-2.5033950805664062e-06
			]
		},
		{
			"children":[
				11
			],
			"name":"leg_front_right_hoof",
			"rotation":[
				-0.0674392431974411,
				0.4389917552471161,
				0.0390155091881752,
				0.8951066732406616
			],
			"scale":[
				1,
				0.9999998807907104,
				1
			],
			"translation":[
				6.854534149169922e-07,
				4.215746879577637,
				-2.384185791015625e-07
			]
		},
		{
			"children":[
				12
			],
			"name":"leg_front_right_bot0",
			"rotation":[
				0.11931291222572327,
				-0.14580443501472473,
				-0.04064808413386345,
				0.9812508821487427
			],
			"scale":[
				1,
				0.9999998211860657,
				0.9999999403953552
			],
			"translation":[
				-8.046627044677734e-07,
				6.995718002319336,
				9.5367431640625e-07
			]
		},
		{
			"children":[
				13
			],
			"name":"leg_front_right_top2",
			"rotation":[
				-0.13179950416088104,
				-0.7812617421150208,
				-0.11722389608621597,
				0.5987633466720581
			],
			"scale":[
				0.9999998807907104,
				1,
				1
			],
			"translation":[
				-6.955815479159355e-07,
				13.4046630859375,
				1.4540273696184158e-07
			]
		},
		{
			"children":[
				14
			],
			"name":"leg_front_right_top1",
			"rotation":[
				0.3264179229736328,
				-0.7880287766456604,
				0.34111154079437256,
				0.39510124921798706
			],
			"scale":[
				0.9999998807907104,
				0.9999997615814209,
				0.9999999403953552
			],
			"translation":[
				1.430511474609375e-06,
				7.333192825317383,
				-1.9073486328125e-06
			]
		},
		{
			"children":[
				15
			],
			"name":"leg_front_right_top0",
			"rotation":[
				-0.5261363387107849,
				0.606748104095459,
				0.5823954939842224,
				0.1259072721004486
			],
			"scale":[
				1,
				1.0000003576278687,
				1.0000001192092896
			],
			"translation":[
				-0.392560213804245,
				10.183540344238281,
				1.2862848043441772
			]
		},
		{
			"children":[
				4,
				10,
				16
			],
			"name":"body_top1",
			"rotation":[
				0.047615982592105865,
				0,
				0,
				0.9988657236099243
			],
			"translation":[
				0,
				10.315216064453125,
				1.1399388313293457e-06
			]
		},
		{
			"children":[
				17
			],
			"name":"body_top0",
			"rotation":[
				-0.007752066012471914,
				0,
				0,
				0.9999699592590332
			],
			"scale":[
				1,
				0.9999999403953552,
				1
			],
			"translation":[
				0,
				9.806962966918945,
				2.2649765014648438e-06
			]
		},
		{
			"name":"tail4_end",
			"rotation":[
				5.21540641784668e-08,
				0,
				0,
				1
			],
			"translation":[
				0,
				2.7041611671447754,
				-2.86102294921875e-06
			]
		},
		{
			"children":[
				19
			],
			"name":"tail4",
			"rotation":[
				0.10164234787225723,
				0,
				0,
				0.9948210120201111
			],
			"scale":[
				1,
				0.9999998807907104,
				0.9999998807907104
			],
			"translation":[
				0,
				3.591413974761963,
				0
			]
		},
		{
			"children":[
				20
			],
			"name":"tail3",
			"rotation":[
				0.051477301865816116,
				0,
				0,
				0.9986741542816162
			],
			"translation":[
				0,
				1.3918352127075195,
				4.76837158203125e-07
			]
		},
		{
			"children":[
				21
			],
			"name":"tail2",
			"rotation":[
				-9.462237358093262e-07,
				0,
				0,
				1
			],
			"translation":[
				0,
				2.840101957321167,
				-2.682209014892578e-07
			]
		},
		{
			"children":[
				22
			],
			"name":"tail1",
			"rotation":[
				0.005093357525765896,
				0,
				0,
				0.999987006187439
			],
			"translation":[
				0,
				1.7804243564605713,
				-8.58306884765625e-06
			]
		},
		{
			"children":[
				23
			],
			"name":"tail0",
			"rotation":[
				-0.010811185464262962,
				0,
				0,
				0.9999415874481201
			],
			"translation":[
				0,
				14.337752342224121,
				-3.2186508178710938e-06
			]
		},
		{
			"children":[
				24
			],
			"name":"pelvis",
			"rotation":[
				-0.4329074025154114,
				0,
				0,
				0.9014384150505066
			],
			"translation":[
				0,
				9.598908424377441,
				-6.854534149169922e-07
			]
		},
		{
			"name":"leg_hind_right_hoof_end",
			"rotation":[
				-5.164184813111206e-07,
				1.0418008059787098e-05,
				7.990748827069183e-07,
				1
			],
			"scale":[
				0.9999999403953552,
				0.9999998211860657,
				0.9999998807907104
			],
			"translation":[
				0,
				2.1242594718933105,
				2.384185791015625e-07
			]
		},
		{
			"children":[
				26
			],
			"name":"leg_hind_right_hoof",
			"rotation":[
				0.0698041096329689,
				-0.9482954144477844,
				-0.027798237279057503,
				0.30836743116378784
			],
			"scale":[
				1,
				0.9999999403953552,
				1.0000001192092896
			],
			"translation":[
				-2.6226043701171875e-06,
				12.048856735229492,
				1.1920928955078125e-07
			]
		},
		{
			"children":[
				27
			],
			"name":"leg_hind_right_bot0",
			"rotation":[
				-0.10672681778669357,
				-0.8790510892868042,
				0.23311564326286316,
				0.4019150137901306
			],
			"scale":[
				1,
				1.0000001192092896,
				0.9999998807907104
			],
			"translation":[
				-3.5762786865234375e-07,
				6.799956321716309,
				2.6226043701171875e-06
			]
		},
		{
			"children":[
				28
			],
			"name":"leg_hind_right_top2",
			"rotation":[
				0.12488309293985367,
				-0.9407833814620972,
				0.28995150327682495,
				0.12352704256772995
			],
			"scale":[
				1,
				1.0000003576278687,
				1
			],
			"translation":[
				-2.1319283405318856e-06,
				9.529845237731934,
				6.67798258291441e-06
			]
		},
		{
			"children":[
				29
			],
			"name":"leg_hind_right_top1",
			"rotation":[
				-0.02642914652824402,
				0.19909045100212097,
				0.19221468269824982,
				0.9605821371078491
			],
			"translation":[
				0,
				4.605707168579102,
				-3.4570693969726562e-06
			]
		},
		{
			"children":[
				30
			],
			"name":"leg_hind_right_top0",
			"rotation":[
				0.36561691761016846,
				-0.6514191627502441,
				0.6594419479370117,
				0.08434288203716278
			],
			"scale":[
				1,
				1.000000238418579,
				1
			],
			"translation":[
				-0.2937851846218109,
				9.51812744140625,
				-1.3986356258392334
			]
		},
		{
			"name":"leg_hind_left_hoof_end",
			"rotation":[
				-5.164184813111206e-07,
				-1.0418008059787098e-05,
				-7.990748827069183e-07,
				1
			],
			"scale":[
				0.9999999403953552,
				0.9999998211860657,
				0.9999998807907104
			],
			"translation":[
				0,
				2.1242594718933105,
				2.384185791015625e-07
			]
		},
		{
			"children":[
				32
			],
			"name":"leg_hind_left_hoof",
			"rotation":[
				0.0698041096329689,
				0.9482954144477844,
				0.027798237279057503,
				0.30836743116378784
			],
			"scale":[
				1,
				0.9999999403953552,
				1.0000001192092896
			],
			"translation":[
				2.6226043701171875e-06,
				12.048856735229492,
				1.1920928955078125e-07
			]
		},
		{
			"children":[
				33
			],
			"name":"leg_hind_left_bot0",
			"rotation":[
				-0.10672681778669357,
				0.8790510892868042,
				-0.23311564326286316,
				0.4019150137901306
			],
			"scale":[
				1,
				1.0000001192092896,
				0.9999998807907104
			],
			"translation":[
				3.5762786865234375e-07,
				6.799956321716309,
				2.6226043701171875e-06
			]
		},
		{
			"children":[
				34
			],
			"name":"leg_hind_left_top2",
			"rotation":[
				0.12488309293985367,
				0.9407833814620972,
				-0.28995150327682495,
				0.12352704256772995
			],
			"scale":[
				1,
				1.0000003576278687,
				1
			],
			"translation":[
				2.1319283405318856e-06,
				9.529845237731934,
				6.67798258291441e-06
			]
		},
		{
			"children":[
				35
			],
			"name":"leg_hind_left_top1",
			"rotation":[
				-0.02642914652824402,
				-0.19909045100212097,
				-0.19221468269824982,
				0.9605821371078491
			],
			"translation":[
				0,
				4.605707168579102,
				-3.4570693969726562e-06
			]
		},
		{
			"children":[
				36
			],
			"name":"leg_hind_left_top0",
			"rotation":[
				0.36561691761016846,
				0.6514191627502441,
				-0.6594419479370117,
				0.08434288203716278
			],
			"scale":[
				1,
				1.000000238418579,
				1
			],
			"translation":[
				0.2937851846218109,
				9.51812744140625,
				-1.3986356258392334
			]
		},
		{
			"children":[
				25,
				31,
				37
			],
			"name":"body_bot",
			"rotation":[
				-0.9996742606163025,
				0,
				0,
				0.025522427633404732
			],
			"scale":[
				1,
				0.9999999403953552,
				1.0000016689300537
			],
			"translation":[
				0,
				0.9994602799415588,
				-0.02427804470062256
			]
		},
		{
			"children":[
				18,
				38
			],
			"name":"body",
			"rotation":[
				-0.019404336810112,
				0,
				0,
				0.9998117685317993
			],
			"scale":[
				1,
				0.9999999403953552,
				0.9999999403953552
			],
			"translation":[
				0,
				-18.049577713012695,
				-13.799476623535156
			]
		},
		{
			"mesh":0,
			"name":"cow",
			"skin":0
		},
		{
			"children":[
				40,
				39
			],
			"name":"rig",
			"rotation":[
				0.7071068286895752,
				0,
				0,
				0.7071068286895752
			]
		}
	],
	"materials":[
		{
			"doubleSided":true,
			"name":"tornado_cow_material",
			"pbrMetallicRoughness":{
				"baseColorFactor":[
					0.800000011920929,
					0.800000011920929,
					0.800000011920929,
					1
				],
				"metallicFactor":0,
				"roughnessFactor":0.5
			}
		}
	],
	"meshes":[
		{
			"name":"cow",
			"primitives":[
				{
					"attributes":{
						"POSITION":0,
						"NORMAL":1,
						"TEXCOORD_0":2,
						"JOINTS_0":3,
						"WEIGHTS_0":4
					},
					"indices":5,
					"material":0
				}
			]
		}
	],
	"skins":[
		{
			"inverseBindMatrices":6,
			"joints":[
				39,
				18,
				17,
				4,
				3,
				2,
				1,
				0,
				10,
				9,
				8,
				7,
				6,
				5,
				16,
				15,
				14,
				13,
				12,
				11,
				38,
				25,
				24,
				23,
				22,
				21,
				20,
				19,
				31,
				30,
				29,
				28,
				27,
				26,
				37,
				36,
				35,
				34,
				33,
				32
			],
			"name":"rig"
		}
	],
	"accessors":[
		{
			"bufferView":0,
			"componentType":5126,
			"count":2986,
			"max":[
				10.947382926940918,
				21.18069076538086,
				43.949214935302734
			],
			"min":[
				-10.947382926940918,
				-21.18069076538086,
				-43.9492073059082
			],
			"type":"VEC3"
		},
		{
			"bufferView":1,
			"componentType":5126,
			"count":2986,
			"type":"VEC3"
		},
		{
			"bufferView":2,
			"componentType":5126,
			"count":2986,
			"type":"VEC2"
		},
		{
			"bufferView":3,
			"componentType":5121,
			"count":2986,
			"type":"VEC4"
		},
		{
			"bufferView":4,
			"componentType":5126,
			"count":2986,
			"type":"VEC4"
		},
		{
			"bufferView":5,
			"componentType":5123,
			"count":14694,
			"type":"SCALAR"
		},
		{
			"bufferView":6,
			"componentType":5126,
			"count":40,
			"type":"MAT4"
		}
	],
	"bufferViews":[
		{
			"buffer":0,
			"byteLength":35832,
			"byteOffset":0,
			"target":34962
		},
		{
			"buffer":0,
			"byteLength":35832,
			"byteOffset":35832,
			"target":34962
		},
		{
			"buffer":0,
			"byteLength":23888,
			"byteOffset":71664,
			"target":34962
		},
		{
			"buffer":0,
			"byteLength":11944,
			"byteOffset":95552,
			"target":34962
		},
		{
			"buffer":0,
			"byteLength":47776,
			"byteOffset":107496,
			"target":34962
		},
		{
			"buffer":0,
			"byteLength":29388,
			"byteOffset":155272,
			"target":34963
		},
		{
			"buffer":0,
			"byteLength":2560,
			"byteOffset":184660
		}
	],
	"buffers":[
		{
			"byteLength":187220,
			"uri":"data:application/octet-stream;base64,"
		}
	]
}
