{
	"asset":{
		"generator":"Khronos glTF Blender I/O v4.1.62",
		"version":"2.0"
	},
	"scene":0,
	"scenes":[
		{
			"name":"Scene",
			"nodes":[
				35
			]
		}
	],
	"nodes":[
		{
			"name":"head0",
			"rotation":[
				0.4460313618183136,
				0.053110718727111816,
				0.038896240293979645,
				0.8925930857658386
			],
			"scale":[
				1.0000001192092896,
				1,
				1.000000238418579
			],
			"translation":[
				4.023313522338867e-07,
				4.220559120178223,
				2.4028122425079346e-07
			]
		},
		{
			"children":[
				0
			],
			"name":"neck2",
			"rotation":[
				-0.15754690766334534,
				-0.03413623943924904,
				-0.03658901900053024,
				0.9862428307533264
			],
			"translation":[
				-4.892370952802594e-10,
				3.6086747646331787,
				3.5627419947559247e-07
			]
		},
		{
			"children":[
				1
			],
			"name":"neck1",
			"rotation":[
				-0.03998930752277374,
				-0.005479319486767054,
				-0.005873020272701979,
				0.9991678595542908
			],
			"translation":[
				-7.450580596923828e-09,
				8.851078987121582,
				-6.299233064055443e-07
			]
		},
		{
			"children":[
				2
			],
			"name":"neck0",
			"rotation":[
				-0.015140500850975513,
				0.005794689524918795,
				0.0055621108040213585,
				0.9998531341552734
			],
			"scale":[
				1,
				0.9999998807907104,
				1
			],
			"translation":[
				0,
				10.258604049682617,
				-8.344650268554688e-07
			]
		},
		{
			"name":"leg_front_left_hoof",
			"rotation":[
				-0.06743936240673065,
				-0.4389916956424713,
				-0.03901553153991699,
				0.8951066732406616
			],
			"scale":[
				1.000000238418579,
				1.000000238418579,
				1
			],
			"translation":[
				-3.8743019104003906e-07,
				4.215744495391846,
				5.960464477539062e-07
			]
		},
		{
			"children":[
				4
			],
			"name":"leg_front_left_bot0",
			"rotation":[
				0.11931296437978745,
				0.1458020657300949,
				0.04064781963825226,
				0.9812511801719666
			],
			"translation":[
				8.642673492431641e-07,
				6.995716571807861,
				7.152557373046875e-07
			]
		},
		{
			"children":[
				5
			],
			"name":"leg_front_left_top2",
			"rotation":[
				-0.131801038980484,
				0.7812544107437134,
				0.11722227185964584,
				0.5987729430198669
			],
			"scale":[
				0.9999998807907104,
				1.0000001192092896,
				0.9999998807907104
			],
			"translation":[
				-3.632158041000366e-07,
				13.404656410217285,
				3.4284312278032303e-07
			]
		},
		{
			"children":[
				6
			],
			"name":"leg_front_left_top1",
			"rotation":[
				0.32642224431037903,
				0.7880340218544006,
				-0.3411072790622711,
				0.395090788602829
			],
			"scale":[
				1,
				1.0000003576278687,
				1.0000001192092896
			],
			"translation":[
				-7.152557373046875e-07,
				7.333192825317383,
				-1.1920928955078125e-06
			]
		},
		{
			"children":[
				7
			],
			"name":"leg_front_left_top0",
			"rotation":[
				-0.526136577129364,
				-0.6067482233047485,
				-0.5823953747749329,
				0.12590719759464264
			],
			"scale":[
				1,
				1.0000001192092896,
				0.9999999403953552
			],
			"translation":[
				0.392560213804245,
				10.183540344238281,
				1.2862861156463623
			]
		},
		{
			"name":"leg_front_right_hoof",
			"rotation":[
				-0.06743936240673065,
				0.4389916956424713,
				0.03901553153991699,
				0.8951066732406616
			],
			"scale":[
				1.000000238418579,
				1.000000238418579,
				1
			],
			"translation":[
				3.8743019104003906e-07,
				4.215744495391846,
				5.960464477539062e-07
			]
		},
		{
			"children":[
				9
			],
			"name":"leg_front_right_bot0",
			"rotation":[
				0.11931296437978745,
				-0.1458020657300949,
				-0.04064781963825226,
				0.9812511801719666
			],
			"translation":[
				-8.642673492431641e-07,
				6.995716571807861,
				7.152557373046875e-07
			]
		},
		{
			"children":[
				10
			],
			"name":"leg_front_right_top2",
			"rotation":[
				-0.131801038980484,
				-0.7812544107437134,
				-0.11722227185964584,
				0.5987729430198669
			],
			"scale":[
				0.9999998807907104,
				1.0000001192092896,
				0.9999998807907104
			],
			"translation":[
				3.632158041000366e-07,
				13.404656410217285,
				3.4284312278032303e-07
			]
		},
		{
			"children":[
				11
			],
			"name":"leg_front_right_top1",
			"rotation":[
				0.32642224431037903,
				-0.7880340218544006,
				0.3411072790622711,
				0.395090788602829
			],
			"scale":[
				1,
				1.0000003576278687,
				1.0000001192092896
			],
			"translation":[
				7.152557373046875e-07,
				7.333192825317383,
				-1.1920928955078125e-06
			]
		},
		{
			"children":[
				12
			],
			"name":"leg_front_right_top0",
			"rotation":[
				-0.526136577129364,
				0.6067482233047485,
				0.5823953747749329,
				0.12590719759464264
			],
			"scale":[
				1,
				1.0000001192092896,
				0.9999999403953552
			],
			"translation":[
				-0.392560213804245,
				10.183540344238281,
				1.2862861156463623
			]
		},
		{
			"children":[
				3,
				8,
				13
			],
			"name":"body_top1",
			"rotation":[
				0.04761597514152527,
				0,
				0,
				0.9988657236099243
			],
			"translation":[
				0,
				10.315217971801758,
				1.7136335372924805e-07
			]
		},
		{
			"children":[
				14
			],
			"name":"body_top0",
			"rotation":[
				-0.007752058561891317,
				0,
				0,
				0.9999699592590332
			],
			"scale":[
				1,
				0.9999999403953552,
				1
			],
			"translation":[
				0,
				9.806963920593262,
				4.291534423828125e-06
			]
		},
		{
			"name":"tail4",
			"rotation":[
				0.10164271295070648,
				0,
				0,
				0.9948209524154663
			],
			"scale":[
				1,
				1.0000001192092896,
				1
			],
			"translation":[
				0,
				3.5913827419281006,
				-4.76837158203125e-07
			]
		},
		{
			"children":[
				16
			],
			"name":"tail3",
			"rotation":[
				0.05147648975253105,
				0,
				0,
				0.998674213886261
			],
			"scale":[
				1,
				0.9999998211860657,
				0.9999998807907104
			],
			"translation":[
				0,
				1.3918161392211914,
				-9.5367431640625e-07
			]
		},
		{
			"children":[
				17
			],
			"name":"tail2",
			"rotation":[
				-7.152558509915252e-07,
				0,
				0,
				1
			],
			"scale":[
				1,
				0.9999999403953552,
				0.9999999403953552
			],
			"translation":[
				0,
				2.840064525604248,
				-9.5367431640625e-07
			]
		},
		{
			"children":[
				18
			],
			"name":"tail1",
			"rotation":[
				0.00509385671466589,
				0,
				0,
				0.999987006187439
			],
			"translation":[
				0,
				1.7804064750671387,
				-1.0311603546142578e-05
			]
		},
		{
			"children":[
				19
			],
			"name":"tail0",
			"rotation":[
				-0.0108117600902915,
				0,
				0,
				0.9999415874481201
			],
			"scale":[
				1,
				0.9999999403953552,
				0.9999999403953552
			],
			"translation":[
				0,
				14.3375825881958,
				-1.6689300537109375e-06
			]
		},
		{
			"children":[
				20
			],
			"name":"pelvis",
			"rotation":[
				-0.4329032301902771,
				0,
				0,
				0.9014403820037842
			],
			"translation":[
				0,
				9.598909378051758,
				-1.1920928955078125e-07
			]
		},
		{
			"name":"leg_hind_right_hoof",
			"rotation":[
				0.06980536133050919,
				-0.9482941627502441,
				-0.027798958122730255,
				0.3083709478378296
			],
			"scale":[
				0.9999999403953552,
				1.000000238418579,
				1
			],
			"translation":[
				-4.76837158203125e-07,
				12.048636436462402,
				2.980232238769531e-07
			]
		},
		{
			"children":[
				22
			],
			"name":"leg_hind_right_bot0",
			"rotation":[
				-0.10672742873430252,
				-0.8790514469146729,
				0.23311950266361237,
				0.4019118845462799
			],
			"scale":[
				0.9999997615814209,
				0.9999998807907104,
				0.9999999403953552
			],
			"translation":[
				2.0265579223632812e-06,
				6.799862384796143,
				-2.2649765014648438e-06
			]
		},
		{
			"children":[
				23
			],
			"name":"leg_hind_right_top2",
			"rotation":[
				0.12488529831171036,
				-0.9407820105552673,
				0.2899557054042816,
				0.1235257163643837
			],
			"scale":[
				0.9999999403953552,
				1,
				0.9999999403953552
			],
			"translation":[
				-4.777961294166744e-06,
				9.529678344726562,
				1.2178723409306258e-05
			]
		},
		{
			"children":[
				24
			],
			"name":"leg_hind_right_top1",
			"rotation":[
				-0.02642979472875595,
				0.1990882307291031,
				0.1922169178724289,
				0.9605821371078491
			],
			"scale":[
				1,
				1.0000001192092896,
				1
			],
			"translation":[
				-2.1457672119140625e-06,
				4.605650901794434,
				-8.225440979003906e-06
			]
		},
		{
			"children":[
				25
			],
			"name":"leg_hind_right_top0",
			"rotation":[
				0.36561858654022217,
				-0.6514179110527039,
				0.6594416499137878,
				0.08434716612100601
			],
			"scale":[
				1,
				1.0000003576278687,
				1.0000001192092896
			],
			"translation":[
				-0.2937851548194885,
				9.51812744140625,
				-1.3986092805862427
			]
		},
		{
			"name":"leg_hind_left_hoof",
			"rotation":[
				0.06980536133050919,
				0.9482941627502441,
				0.027798958122730255,
				0.3083709478378296
			],
			"scale":[
				0.9999999403953552,
				1.000000238418579,
				1
			],
			"translation":[
				4.76837158203125e-07,
				12.048636436462402,
				2.980232238769531e-07
			]
		},
		{
			"children":[
				27
			],
			"name":"leg_hind_left_bot0",
			"rotation":[
				-0.10672742873430252,
				0.8790514469146729,
				-0.23311950266361237,
				0.4019118845462799
			],
			"scale":[
				0.9999997615814209,
				0.9999998807907104,
				0.9999999403953552
			],
			"translation":[
				-2.0265579223632812e-06,
				6.799862384796143,
				-2.2649765014648438e-06
			]
		},
		{
			"children":[
				28
			],
			"name":"leg_hind_left_top2",
			"rotation":[
				0.12488529831171036,
				0.9407820105552673,
				-0.2899557054042816,
				0.1235257163643837
			],
			"scale":[
				0.9999999403953552,
				1,
				0.9999999403953552
			],
			"translation":[
				4.777961294166744e-06,
				9.529678344726562,
				1.2178723409306258e-05
			]
		},
		{
			"children":[
				29
			],
			"name":"leg_hind_left_top1",
			"rotation":[
				-0.02642979472875595,
				-0.1990882307291031,
				-0.1922169178724289,
				0.9605821371078491
			],
			"scale":[
				1,
				1.0000001192092896,
				1
			],
			"translation":[
				2.1457672119140625e-06,
				4.605650901794434,
				-8.225440979003906e-06
			]
		},
		{
			"children":[
				30
			],
			"name":"leg_hind_left_top0",
			"rotation":[
				0.36561858654022217,
				0.6514179110527039,
				-0.6594416499137878,
				0.08434716612100601
			],
			"scale":[
				1,
				1.0000003576278687,
				1.0000001192092896
			],
			"translation":[
				0.2937851548194885,
				9.51812744140625,
				-1.3986092805862427
			]
		},
		{
			"children":[
				21,
				26,
				31
			],
			"name":"body_bot",
			"rotation":[
				-0.9996742606163025,
				0,
				0,
				0.02552242949604988
			],
			"scale":[
				1,
				1,
				1.0000016689300537
			],
			"translation":[
				0,
				0.9994605779647827,
				-0.024277865886688232
			]
		},
		{
			"children":[
				15,
				32
			],
			"name":"body",
			"rotation":[
				-0.019404336810112,
				0,
				0,
				0.9998117685317993
			],
			"scale":[
				1,
				0.9999999403953552,
				0.9999999403953552
			],
			"translation":[
				0,
				-18.049577713012695,
				-13.799476623535156
			]
		},
		{
			"mesh":0,
			"name":"cow",
			"skin":0
		},
		{
			"children":[
				34,
				33
			],
			"name":"rig",
			"rotation":[
				0.7071068286895752,
				0,
				0,
				0.7071068286895752
			]
		}
	],
	"animations":[
		{
			"channels":[
				{
					"sampler":0,
					"target":{
						"node":33,
						"path":"translation"
					}
				},
				{
					"sampler":1,
					"target":{
						"node":33,
						"path":"rotation"
					}
				},
				{
					"sampler":2,
					"target":{
						"node":33,
						"path":"scale"
					}
				},
				{
					"sampler":3,
					"target":{
						"node":15,
						"path":"translation"
					}
				},
				{
					"sampler":4,
					"target":{
						"node":15,
						"path":"rotation"
					}
				},
				{
					"sampler":5,
					"target":{
						"node":15,
						"path":"scale"
					}
				},
				{
					"sampler":6,
					"target":{
						"node":14,
						"path":"translation"
					}
				},
				{
					"sampler":7,
					"target":{
						"node":14,
						"path":"rotation"
					}
				},
				{
					"sampler":8,
					"target":{
						"node":14,
						"path":"scale"
					}
				},
				{
					"sampler":9,
					"target":{
						"node":3,
						"path":"translation"
					}
				},
				{
					"sampler":10,
					"target":{
						"node":3,
						"path":"rotation"
					}
				},
				{
					"sampler":11,
					"target":{
						"node":3,
						"path":"scale"
					}
				},
				{
					"sampler":12,
					"target":{
						"node":2,
						"path":"translation"
					}
				},
				{
					"sampler":13,
					"target":{
						"node":2,
						"path":"rotation"
					}
				},
				{
					"sampler":14,
					"target":{
						"node":2,
						"path":"scale"
					}
				},
				{
					"sampler":15,
					"target":{
						"node":1,
						"path":"translation"
					}
				},
				{
					"sampler":16,
					"target":{
						"node":1,
						"path":"rotation"
					}
				},
				{
					"sampler":17,
					"target":{
						"node":1,
						"path":"scale"
					}
				},
				{
					"sampler":18,
					"target":{
						"node":0,
						"path":"translation"
					}
				},
				{
					"sampler":19,
					"target":{
						"node":0,
						"path":"rotation"
					}
				},
				{
					"sampler":20,
					"target":{
						"node":0,
						"path":"scale"
					}
				},
				{
					"sampler":21,
					"target":{
						"node":8,
						"path":"translation"
					}
				},
				{
					"sampler":22,
					"target":{
						"node":8,
						"path":"rotation"
					}
				},
				{
					"sampler":23,
					"target":{
						"node":8,
						"path":"scale"
					}
				},
				{
					"sampler":24,
					"target":{
						"node":7,
						"path":"translation"
					}
				},
				{
					"sampler":25,
					"target":{
						"node":7,
						"path":"rotation"
					}
				},
				{
					"sampler":26,
					"target":{
						"node":7,
						"path":"scale"
					}
				},
				{
					"sampler":27,
					"target":{
						"node":6,
						"path":"translation"
					}
				},
				{
					"sampler":28,
					"target":{
						"node":6,
						"path":"rotation"
					}
				},
				{
					"sampler":29,
					"target":{
						"node":6,
						"path":"scale"
					}
				},
				{
					"sampler":30,
					"target":{
						"node":5,
						"path":"translation"
					}
				},
				{
					"sampler":31,
					"target":{
						"node":5,
						"path":"rotation"
					}
				},
				{
					"sampler":32,
					"target":{
						"node":5,
						"path":"scale"
					}
				},
				{
					"sampler":33,
					"target":{
						"node":4,
						"path":"translation"
					}
				},
				{
					"sampler":34,
					"target":{
						"node":4,
						"path":"rotation"
					}
				},
				{
					"sampler":35,
					"target":{
						"node":4,
						"path":"scale"
					}
				},
				{
					"sampler":36,
					"target":{
						"node":13,
						"path":"translation"
					}
				},
				{
					"sampler":37,
					"target":{
						"node":13,
						"path":"rotation"
					}
				},
				{
					"sampler":38,
					"target":{
						"node":13,
						"path":"scale"
					}
				},
				{
					"sampler":39,
					"target":{
						"node":12,
						"path":"translation"
					}
				},
				{
					"sampler":40,
					"target":{
						"node":12,
						"path":"rotation"
					}
				},
				{
					"sampler":41,
					"target":{
						"node":12,
						"path":"scale"
					}
				},
				{
					"sampler":42,
					"target":{
						"node":11,
						"path":"translation"
					}
				},
				{
					"sampler":43,
					"target":{
						"node":11,
						"path":"rotation"
					}
				},
				{
					"sampler":44,
					"target":{
						"node":11,
						"path":"scale"
					}
				},
				{
					"sampler":45,
					"target":{
						"node":10,
						"path":"translation"
					}
				},
				{
					"sampler":46,
					"target":{
						"node":10,
						"path":"rotation"
					}
				},
				{
					"sampler":47,
					"target":{
						"node":10,
						"path":"scale"
					}
				},
				{
					"sampler":48,
					"target":{
						"node":9,
						"path":"translation"
					}
				},
				{
					"sampler":49,
					"target":{
						"node":9,
						"path":"rotation"
					}
				},
				{
					"sampler":50,
					"target":{
						"node":9,
						"path":"scale"
					}
				},
				{
					"sampler":51,
					"target":{
						"node":32,
						"path":"translation"
					}
				},
				{
					"sampler":52,
					"target":{
						"node":32,
						"path":"rotation"
					}
				},
				{
					"sampler":53,
					"target":{
						"node":32,
						"path":"scale"
					}
				},
				{
					"sampler":54,
					"target":{
						"node":21,
						"path":"translation"
					}
				},
				{
					"sampler":55,
					"target":{
						"node":21,
						"path":"rotation"
					}
				},
				{
					"sampler":56,
					"target":{
						"node":21,
						"path":"scale"
					}
				},
				{
					"sampler":57,
					"target":{
						"node":20,
						"path":"translation"
					}
				},
				{
					"sampler":58,
					"target":{
						"node":20,
						"path":"rotation"
					}
				},
				{
					"sampler":59,
					"target":{
						"node":20,
						"path":"scale"
					}
				},
				{
					"sampler":60,
					"target":{
						"node":19,
						"path":"translation"
					}
				},
				{
					"sampler":61,
					"target":{
						"node":19,
						"path":"rotation"
					}
				},
				{
					"sampler":62,
					"target":{
						"node":19,
						"path":"scale"
					}
				},
				{
					"sampler":63,
					"target":{
						"node":18,
						"path":"translation"
					}
				},
				{
					"sampler":64,
					"target":{
						"node":18,
						"path":"rotation"
					}
				},
				{
					"sampler":65,
					"target":{
						"node":18,
						"path":"scale"
					}
				},
				{
					"sampler":66,
					"target":{
						"node":17,
						"path":"translation"
					}
				},
				{
					"sampler":67,
					"target":{
						"node":17,
						"path":"rotation"
					}
				},
				{
					"sampler":68,
					"target":{
						"node":17,
						"path":"scale"
					}
				},
				{
					"sampler":69,
					"target":{
						"node":16,
						"path":"translation"
					}
				},
				{
					"sampler":70,
					"target":{
						"node":16,
						"path":"rotation"
					}
				},
				{
					"sampler":71,
					"target":{
						"node":16,
						"path":"scale"
					}
				},
				{
					"sampler":72,
					"target":{
						"node":26,
						"path":"translation"
					}
				},
				{
					"sampler":73,
					"target":{
						"node":26,
						"path":"rotation"
					}
				},
				{
					"sampler":74,
					"target":{
						"node":26,
						"path":"scale"
					}
				},
				{
					"sampler":75,
					"target":{
						"node":25,
						"path":"translation"
					}
				},
				{
					"sampler":76,
					"target":{
						"node":25,
						"path":"rotation"
					}
				},
				{
					"sampler":77,
					"target":{
						"node":25,
						"path":"scale"
					}
				},
				{
					"sampler":78,
					"target":{
						"node":24,
						"path":"translation"
					}
				},
				{
					"sampler":79,
					"target":{
						"node":24,
						"path":"rotation"
					}
				},
				{
					"sampler":80,
					"target":{
						"node":24,
						"path":"scale"
					}
				},
				{
					"sampler":81,
					"target":{
						"node":23,
						"path":"translation"
					}
				},
				{
					"sampler":82,
					"target":{
						"node":23,
						"path":"rotation"
					}
				},
				{
					"sampler":83,
					"target":{
						"node":23,
						"path":"scale"
					}
				},
				{
					"sampler":84,
					"target":{
						"node":22,
						"path":"translation"
					}
				},
				{
					"sampler":85,
					"target":{
						"node":22,
						"path":"rotation"
					}
				},
				{
					"sampler":86,
					"target":{
						"node":22,
						"path":"scale"
					}
				},
				{
					"sampler":87,
					"target":{
						"node":31,
						"path":"translation"
					}
				},
				{
					"sampler":88,
					"target":{
						"node":31,
						"path":"rotation"
					}
				},
				{
					"sampler":89,
					"target":{
						"node":31,
						"path":"scale"
					}
				},
				{
					"sampler":90,
					"target":{
						"node":30,
						"path":"translation"
					}
				},
				{
					"sampler":91,
					"target":{
						"node":30,
						"path":"rotation"
					}
				},
				{
					"sampler":92,
					"target":{
						"node":30,
						"path":"scale"
					}
				},
				{
					"sampler":93,
					"target":{
						"node":29,
						"path":"translation"
					}
				},
				{
					"sampler":94,
					"target":{
						"node":29,
						"path":"rotation"
					}
				},
				{
					"sampler":95,
					"target":{
						"node":29,
						"path":"scale"
					}
				},
				{
					"sampler":96,
					"target":{
						"node":28,
						"path":"translation"
					}
				},
				{
					"sampler":97,
					"target":{
						"node":28,
						"path":"rotation"
					}
				},
				{
					"sampler":98,
					"target":{
						"node":28,
						"path":"scale"
					}
				},
				{
					"sampler":99,
					"target":{
						"node":27,
						"path":"translation"
					}
				},
				{
					"sampler":100,
					"target":{
						"node":27,
						"path":"rotation"
					}
				},
				{
					"sampler":101,
					"target":{
						"node":27,
						"path":"scale"
					}
				},
				{
					"sampler":102,
					"target":{
						"node":35,
						"path":"translation"
					}
				},
				{
					"sampler":103,
					"target":{
						"node":35,
						"path":"rotation"
					}
				},
				{
					"sampler":104,
					"target":{
						"node":35,
						"path":"scale"
					}
				}
			],
			"name":"rig|rig|run",
			"samplers":[
				{
					"input":7,
					"interpolation":"STEP",
					"output":8
				},
				{
					"input":7,
					"interpolation":"STEP",
					"output":9
				},
				{
					"input":7,
					"interpolation":"STEP",
					"output":10
				},
				{
					"input":7,
					"interpolation":"STEP",
					"output":11
				},
				{
					"input":12,
					"interpolation":"LINEAR",
					"output":13
				},
				{
					"input":7,
					"interpolation":"STEP",
					"output":14
				},
				{
					"input":7,
					"interpolation":"STEP",
					"output":15
				},
				{
					"input":12,
					"interpolation":"LINEAR",
					"output":16
				},
				{
					"input":7,
					"interpolation":"STEP",
					"output":17
				},
				{
					"input":7,
					"interpolation":"STEP",
					"output":18
				},
				{
					"input":12,
					"interpolation":"LINEAR",
					"output":19
				},
				{
					"input":7,
					"interpolation":"STEP",
					"output":20
				},
				{
					"input":7,
					"interpolation":"STEP",
					"output":21
				},
				{
					"input":12,
					"interpolation":"LINEAR",
					"output":22
				},
				{
					"input":7,
					"interpolation":"STEP",
					"output":23
				},
				{
					"input":7,
					"interpolation":"STEP",
					"output":24
				},
				{
					"input":12,
					"interpolation":"LINEAR",
					"output":25
				},
				{
					"input":7,
					"interpolation":"STEP",
					"output":26
				},
				{
					"input":7,
					"interpolation":"STEP",
					"output":27
				},
				{
					"input":12,
					"interpolation":"LINEAR",
					"output":28
				},
				{
					"input":7,
					"interpolation":"STEP",
					"output":29
				},
				{
					"input":7,
					"interpolation":"STEP",
					"output":30
				},
				{
					"input":12,
					"interpolation":"LINEAR",
					"output":31
				},
				{
					"input":7,
					"interpolation":"STEP",
					"output":32
				},
				{
					"input":7,
					"interpolation":"STEP",
					"output":33
				},
				{
					"input":12,
					"interpolation":"LINEAR",
					"output":34
				},
				{
					"input":7,
					"interpolation":"STEP",
					"output":35
				},
				{
					"input":7,
					"interpolation":"STEP",
					"output":36
				},
				{
					"input":12,
					"interpolation":"LINEAR",
					"output":37
				},
				{
					"input":7,
					"interpolation":"STEP",
					"output":38
				},
				{
					"input":7,
					"interpolation":"STEP",
					"output":39
				},
				{
					"input":12,
					"interpolation":"LINEAR",
					"output":40
				},
				{
					"input":7,
					"interpolation":"STEP",
					"output":41
				},
				{
					"input":7,
					"interpolation":"STEP",
					"output":42
				},
				{
					"input":12,
					"interpolation":"LINEAR",
					"output":43
				},
				{
					"input":7,
					"interpolation":"STEP",
					"output":44
				},
				{
					"input":7,
					"interpolation":"STEP",
					"output":45
				},
				{
					"input":12,
					"interpolation":"LINEAR",
					"output":46
				},
				{
					"input":7,
					"interpolation":"STEP",
					"output":47
				},
				{
					"input":7,
					"interpolation":"STEP",
					"output":48
				},
				{
					"input":12,
					"interpolation":"LINEAR",
					"output":49
				},
				{
					"input":7,
					"interpolation":"STEP",
					"output":50
				},
				{
					"input":7,
					"interpolation":"STEP",
					"output":51
				},
				{
					"input":12,
					"interpolation":"LINEAR",
					"output":52
				},
				{
					"input":7,
					"interpolation":"STEP",
					"output":53
				},
				{
					"input":7,
					"interpolation":"STEP",
					"output":54
				},
				{
					"input":12,
					"interpolation":"LINEAR",
					"output":55
				},
				{
					"input":7,
					"interpolation":"STEP",
					"output":56
				},
				{
					"input":7,
					"interpolation":"STEP",
					"output":57
				},
				{
					"input":12,
					"interpolation":"LINEAR",
					"output":58
				},
				{
					"input":7,
					"interpolation":"STEP",
					"output":59
				},
				{
					"input":7,
					"interpolation":"STEP",
					"output":60
				},
				{
					"input":12,
					"interpolation":"LINEAR",
					"output":61
				},
				{
					"input":7,
					"interpolation":"STEP",
					"output":62
				},
				{
					"input":7,
					"interpolation":"STEP",
					"output":63
				},
				{
					"input":12,
					"interpolation":"LINEAR",
					"output":64
				},
				{
					"input":7,
					"interpolation":"STEP",
					"output":65
				},
				{
					"input":7,
					"interpolation":"STEP",
					"output":66
				},
				{
					"input":12,
					"interpolation":"LINEAR",
					"output":67
				},
				{
					"input":7,
					"interpolation":"STEP",
					"output":68
				},
				{
					"input":12,
					"interpolation":"LINEAR",
					"output":69
				},
				{
					"input":12,
					"interpolation":"LINEAR",
					"output":70
				},
				{
					"input":7,
					"interpolation":"STEP",
					"output":71
				},
				{
					"input":7,
					"interpolation":"STEP",
					"output":72
				},
				{
					"input":12,
					"interpolation":"LINEAR",
					"output":73
				},
				{
					"input":7,
					"interpolation":"STEP",
					"output":74
				},
				{
					"input":7,
					"interpolation":"STEP",
					"output":75
				},
				{
					"input":12,
					"interpolation":"LINEAR",
					"output":76
				},
				{
					"input":7,
					"interpolation":"STEP",
					"output":77
				},
				{
					"input":7,
					"interpolation":"STEP",
					"output":78
				},
				{
					"input":12,
					"interpolation":"LINEAR",
					"output":79
				},
				{
					"input":7,
					"interpolation":"STEP",
					"output":80
				},
				{
					"input":7,
					"interpolation":"STEP",
					"output":81
				},
				{
					"input":12,
					"interpolation":"LINEAR",
					"output":82
				},
				{
					"input":7,
					"interpolation":"STEP",
					"output":83
				},
				{
					"input":7,
					"interpolation":"STEP",
					"output":84
				},
				{
					"input":12,
					"interpolation":"LINEAR",
					"output":85
				},
				{
					"input":7,
					"interpolation":"STEP",
					"output":86
				},
				{
					"input":7,
					"interpolation":"LINEAR",
					"output":87
				},
				{
					"input":12,
					"interpolation":"LINEAR",
					"output":88
				},
				{
					"input":7,
					"interpolation":"STEP",
					"output":89
				},
				{
					"input":7,
					"interpolation":"STEP",
					"output":90
				},
				{
					"input":12,
					"interpolation":"LINEAR",
					"output":91
				},
				{
					"input":7,
					"interpolation":"STEP",
					"output":92
				},
				{
					"input":7,
					"interpolation":"STEP",
					"output":93
				},
				{
					"input":12,
					"interpolation":"LINEAR",
					"output":94
				},
				{
					"input":7,
					"interpolation":"STEP",
					"output":95
				},
				{
					"input":7,
					"interpolation":"STEP",
					"output":96
				},
				{
					"input":12,
					"interpolation":"LINEAR",
					"output":97
				},
				{
					"input":7,
					"interpolation":"STEP",
					"output":98
				},
				{
					"input":7,
					"interpolation":"STEP",
					"output":99
				},
				{
					"input":12,
					"interpolation":"LINEAR",
					"output":100
				},
				{
					"input":7,
					"interpolation":"STEP",
					"output":101
				},
				{
					"input":7,
					"interpolation":"STEP",
					"output":102
				},
				{
					"input":12,
					"interpolation":"LINEAR",
					"output":103
				},
				{
					"input":7,
					"interpolation":"STEP",
					"output":104
				},
				{
					"input":7,
					"interpolation":"LINEAR",
					"output":105
				},
				{
					"input":12,
					"interpolation":"LINEAR",
					"output":106
				},
				{
					"input":7,
					"interpolation":"STEP",
					"output":107
				},
				{
					"input":7,
					"interpolation":"LINEAR",
					"output":108
				},
				{
					"input":12,
					"interpolation":"LINEAR",
					"output":109
				},
				{
					"input":7,
					"interpolation":"LINEAR",
					"output":110
				},
				{
					"input":7,
					"interpolation":"STEP",
					"output":111
				},
				{
					"input":7,
					"interpolation":"STEP",
					"output":112
				},
				{
					"input":7,
					"interpolation":"STEP",
					"output":113
				}
			]
		}
	],
	"materials":[
		{
			"doubleSided":true,
			"name":"tornado_cow_material",
			"pbrMetallicRoughness":{
				"baseColorFactor":[
					0.800000011920929,
					0.800000011920929,
					0.800000011920929,
					1
				],
				"metallicFactor":0,
				"roughnessFactor":0.5
			}
		}
	],
	"meshes":[
		{
			"name":"cow",
			"primitives":[
				{
					"attributes":{
						"POSITION":0,
						"NORMAL":1,
						"TEXCOORD_0":2,
						"JOINTS_0":3,
						"WEIGHTS_0":4
					},
					"indices":5,
					"material":0
				}
			]
		}
	],
	"skins":[
		{
			"inverseBindMatrices":6,
			"joints":[
				33,
				15,
				14,
				3,
				2,
				1,
				0,
				8,
				7,
				6,
				5,
				4,
				13,
				12,
				11,
				10,
				9,
				32,
				21,
				20,
				19,
				18,
				17,
				16,
				26,
				25,
				24,
				23,
				22,
				31,
				30,
				29,
				28,
				27
			],
			"name":"rig"
		}
	],
	"accessors":[
		{
			"bufferView":0,
			"componentType":5126,
			"count":2986,
			"max":[
				10.947381973266602,
				21.180688858032227,
				43.94921112060547
			],
			"min":[
				-10.94738483428955,
				-21.180688858032227,
				-43.94919967651367
			],
			"type":"VEC3"
		},
		{
			"bufferView":1,
			"componentType":5126,
			"count":2986,
			"type":"VEC3"
		},
		{
			"bufferView":2,
			"componentType":5126,
			"count":2986,
			"type":"VEC2"
		},
		{
			"bufferView":3,
			"componentType":5121,
			"count":2986,
			"type":"VEC4"
		},
		{
			"bufferView":4,
			"componentType":5126,
			"count":2986,
			"type":"VEC4"
		},
		{
			"bufferView":5,
			"componentType":5123,
			"count":14694,
			"type":"SCALAR"
		},
		{
			"bufferView":6,
			"componentType":5126,
			"count":34,
			"type":"MAT4"
		},
		{
			"bufferView":7,
			"componentType":5126,
			"count":2,
			"max":[
				0.5666666666666667
			],
			"min":[
				0.03333333333333333
			],
			"type":"SCALAR"
		},
		{
			"bufferView":8,
			"componentType":5126,
			"count":2,
			"type":"VEC3"
		},
		{
			"bufferView":9,
			"componentType":5126,
			"count":2,
			"type":"VEC4"
		},
		{
			"bufferView":10,
			"componentType":5126,
			"count":2,
			"type":"VEC3"
		},
		{
			"bufferView":11,
			"componentType":5126,
			"count":2,
			"type":"VEC3"
		},
		{
			"bufferView":12,
			"componentType":5126,
			"count":17,
			"max":[
				0.5666666666666667
			],
			"min":[
				0.03333333333333333
			],
			"type":"SCALAR"
		},
		{
			"bufferView":13,
			"componentType":5126,
			"count":17,
			"type":"VEC4"
		},
		{
			"bufferView":14,
			"componentType":5126,
			"count":2,
			"type":"VEC3"
		},
		{
			"bufferView":15,
			"componentType":5126,
			"count":2,
			"type":"VEC3"
		},
		{
			"bufferView":16,
			"componentType":5126,
			"count":17,
			"type":"VEC4"
		},
		{
			"bufferView":17,
			"componentType":5126,
			"count":2,
			"type":"VEC3"
		},
		{
			"bufferView":18,
			"componentType":5126,
			"count":2,
			"type":"VEC3"
		},
		{
			"bufferView":19,
			"componentType":5126,
			"count":17,
			"type":"VEC4"
		},
		{
			"bufferView":20,
			"componentType":5126,
			"count":2,
			"type":"VEC3"
		},
		{
			"bufferView":21,
			"componentType":5126,
			"count":2,
			"type":"VEC3"
		},
		{
			"bufferView":22,
			"componentType":5126,
			"count":17,
			"type":"VEC4"
		},
		{
			"bufferView":23,
			"componentType":5126,
			"count":2,
			"type":"VEC3"
		},
		{
			"bufferView":24,
			"componentType":5126,
			"count":2,
			"type":"VEC3"
		},
		{
			"bufferView":25,
			"componentType":5126,
			"count":17,
			"type":"VEC4"
		},
		{
			"bufferView":26,
			"componentType":5126,
			"count":2,
			"type":"VEC3"
		},
		{
			"bufferView":27,
			"componentType":5126,
			"count":2,
			"type":"VEC3"
		},
		{
			"bufferView":28,
			"componentType":5126,
			"count":17,
			"type":"VEC4"
		},
		{
			"bufferView":29,
			"componentType":5126,
			"count":2,
			"type":"VEC3"
		},
		{
			"bufferView":30,
			"componentType":5126,
			"count":2,
			"type":"VEC3"
		},
		{
			"bufferView":31,
			"componentType":5126,
			"count":17,
			"type":"VEC4"
		},
		{
			"bufferView":32,
			"componentType":5126,
			"count":2,
			"type":"VEC3"
		},
		{
			"bufferView":33,
			"componentType":5126,
			"count":2,
			"type":"VEC3"
		},
		{
			"bufferView":34,
			"componentType":5126,
			"count":17,
			"type":"VEC4"
		},
		{
			"bufferView":35,
			"componentType":5126,
			"count":2,
			"type":"VEC3"
		},
		{
			"bufferView":36,
			"componentType":5126,
			"count":2,
			"type":"VEC3"
		},
		{
			"bufferView":37,
			"componentType":5126,
			"count":17,
			"type":"VEC4"
		},
		{
			"bufferView":38,
			"componentType":5126,
			"count":2,
			"type":"VEC3"
		},
		{
			"bufferView":39,
			"componentType":5126,
			"count":2,
			"type":"VEC3"
		},
		{
			"bufferView":40,
			"componentType":5126,
			"count":17,
			"type":"VEC4"
		},
		{
			"bufferView":41,
			"componentType":5126,
			"count":2,
			"type":"VEC3"
		},
		{
			"bufferView":42,
			"componentType":5126,
			"count":2,
			"type":"VEC3"
		},
		{
			"bufferView":43,
			"componentType":5126,
			"count":17,
			"type":"VEC4"
		},
		{
			"bufferView":44,
			"componentType":5126,
			"count":2,
			"type":"VEC3"
		},
		{
			"bufferView":45,
			"componentType":5126,
			"count":2,
			"type":"VEC3"
		},
		{
			"bufferView":46,
			"componentType":5126,
			"count":17,
			"type":"VEC4"
		},
		{
			"bufferView":47,
			"componentType":5126,
			"count":2,
			"type":"VEC3"
		},
		{
			"bufferView":48,
			"componentType":5126,
			"count":2,
			"type":"VEC3"
		},
		{
			"bufferView":49,
			"componentType":5126,
			"count":17,
			"type":"VEC4"
		},
		{
			"bufferView":50,
			"componentType":5126,
			"count":2,
			"type":"VEC3"
		},
		{
			"bufferView":51,
			"componentType":5126,
			"count":2,
			"type":"VEC3"
		},
		{
			"bufferView":52,
			"componentType":5126,
			"count":17,
			"type":"VEC4"
		},
		{
			"bufferView":53,
			"componentType":5126,
			"count":2,
			"type":"VEC3"
		},
		{
			"bufferView":54,
			"componentType":5126,
			"count":2,
			"type":"VEC3"
		},
		{
			"bufferView":55,
			"componentType":5126,
			"count":17,
			"type":"VEC4"
		},
		{
			"bufferView":56,
			"componentType":5126,
			"count":2,
			"type":"VEC3"
		},
		{
			"bufferView":57,
			"componentType":5126,
			"count":2,
			"type":"VEC3"
		},
		{
			"bufferView":58,
			"componentType":5126,
			"count":17,
			"type":"VEC4"
		},
		{
			"bufferView":59,
			"componentType":5126,
			"count":2,
			"type":"VEC3"
		},
		{
			"bufferView":60,
			"componentType":5126,
			"count":2,
			"type":"VEC3"
		},
		{
			"bufferView":61,
			"componentType":5126,
			"count":17,
			"type":"VEC4"
		},
		{
			"bufferView":62,
			"componentType":5126,
			"count":2,
			"type":"VEC3"
		},
		{
			"bufferView":63,
			"componentType":5126,
			"count":2,
			"type":"VEC3"
		},
		{
			"bufferView":64,
			"componentType":5126,
			"count":17,
			"type":"VEC4"
		},
		{
			"bufferView":65,
			"componentType":5126,
			"count":2,
			"type":"VEC3"
		},
		{
			"bufferView":66,
			"componentType":5126,
			"count":2,
			"type":"VEC3"
		},
		{
			"bufferView":67,
			"componentType":5126,
			"count":17,
			"type":"VEC4"
		},
		{
			"bufferView":68,
			"componentType":5126,
			"count":2,
			"type":"VEC3"
		},
		{
			"bufferView":69,
			"componentType":5126,
			"count":17,
			"type":"VEC3"
		},
		{
			"bufferView":70,
			"componentType":5126,
			"count":17,
			"type":"VEC4"
		},
		{
			"bufferView":71,
			"componentType":5126,
			"count":2,
			"type":"VEC3"
		},
		{
			"bufferView":72,
			"componentType":5126,
			"count":2,
			"type":"VEC3"
		},
		{
			"bufferView":73,
			"componentType":5126,
			"count":17,
			"type":"VEC4"
		},
		{
			"bufferView":74,
			"componentType":5126,
			"count":2,
			"type":"VEC3"
		},
		{
			"bufferView":75,
			"componentType":5126,
			"count":2,
			"type":"VEC3"
		},
		{
			"bufferView":76,
			"componentType":5126,
			"count":17,
			"type":"VEC4"
		},
		{
			"bufferView":77,
			"componentType":5126,
			"count":2,
			"type":"VEC3"
		},
		{
			"bufferView":78,
			"componentType":5126,
			"count":2,
			"type":"VEC3"
		},
		{
			"bufferView":79,
			"componentType":5126,
			"count":17,
			"type":"VEC4"
		},
		{
			"bufferView":80,
			"componentType":5126,
			"count":2,
			"type":"VEC3"
		},
		{
			"bufferView":81,
			"componentType":5126,
			"count":2,
			"type":"VEC3"
		},
		{
			"bufferView":82,
			"componentType":5126,
			"count":17,
			"type":"VEC4"
		},
		{
			"bufferView":83,
			"componentType":5126,
			"count":2,
			"type":"VEC3"
		},
		{
			"bufferView":84,
			"componentType":5126,
			"count":2,
			"type":"VEC3"
		},
		{
			"bufferView":85,
			"componentType":5126,
			"count":17,
			"type":"VEC4"
		},
		{
			"bufferView":86,
			"componentType":5126,
			"count":2,
			"type":"VEC3"
		},
		{
			"bufferView":87,
			"componentType":5126,
			"count":2,
			"type":"VEC3"
		},
		{
			"bufferView":88,
			"componentType":5126,
			"count":17,
			"type":"VEC4"
		},
		{
			"bufferView":89,
			"componentType":5126,
			"count":2,
			"type":"VEC3"
		},
		{
			"bufferView":90,
			"componentType":5126,
			"count":2,
			"type":"VEC3"
		},
		{
			"bufferView":91,
			"componentType":5126,
			"count":17,
			"type":"VEC4"
		},
		{
			"bufferView":92,
			"componentType":5126,
			"count":2,
			"type":"VEC3"
		},
		{
			"bufferView":93,
			"componentType":5126,
			"count":2,
			"type":"VEC3"
		},
		{
			"bufferView":94,
			"componentType":5126,
			"count":17,
			"type":"VEC4"
		},
		{
			"bufferView":95,
			"componentType":5126,
			"count":2,
			"type":"VEC3"
		},
		{
			"bufferView":96,
			"componentType":5126,
			"count":2,
			"type":"VEC3"
		},
		{
			"bufferView":97,
			"componentType":5126,
			"count":17,
			"type":"VEC4"
		},
		{
			"bufferView":98,
			"componentType":5126,
			"count":2,
			"type":"VEC3"
		},
		{
			"bufferView":99,
			"componentType":5126,
			"count":2,
			"type":"VEC3"
		},
		{
			"bufferView":100,
			"componentType":5126,
			"count":17,
			"type":"VEC4"
		},
		{
			"bufferView":101,
			"componentType":5126,
			"count":2,
			"type":"VEC3"
		},
		{
			"bufferView":102,
			"componentType":5126,
			"count":2,
			"type":"VEC3"
		},
		{
			"bufferView":103,
			"componentType":5126,
			"count":17,
			"type":"VEC4"
		},
		{
			"bufferView":104,
			"componentType":5126,
			"count":2,
			"type":"VEC3"
		},
		{
			"bufferView":105,
			"componentType":5126,
			"count":2,
			"type":"VEC3"
		},
		{
			"bufferView":106,
			"componentType":5126,
			"count":17,
			"type":"VEC4"
		},
		{
			"bufferView":107,
			"componentType":5126,
			"count":2,
			"type":"VEC3"
		},
		{
			"bufferView":108,
			"componentType":5126,
			"count":2,
			"type":"VEC3"
		},
		{
			"bufferView":109,
			"componentType":5126,
			"count":17,
			"type":"VEC4"
		},
		{
			"bufferView":110,
			"componentType":5126,
			"count":2,
			"type":"VEC3"
		},
		{
			"bufferView":111,
			"componentType":5126,
			"count":2,
			"type":"VEC3"
		},
		{
			"bufferView":112,
			"componentType":5126,
			"count":2,
			"type":"VEC4"
		},
		{
			"bufferView":113,
			"componentType":5126,
			"count":2,
			"type":"VEC3"
		}
	],
	"bufferViews":[
		{
			"buffer":0,
			"byteLength":35832,
			"byteOffset":0,
			"target":34962
		},
		{
			"buffer":0,
			"byteLength":35832,
			"byteOffset":35832,
			"target":34962
		},
		{
			"buffer":0,
			"byteLength":23888,
			"byteOffset":71664,
			"target":34962
		},
		{
			"buffer":0,
			"byteLength":11944,
			"byteOffset":95552,
			"target":34962
		},
		{
			"buffer":0,
			"byteLength":47776,
			"byteOffset":107496,
			"target":34962
		},
		{
			"buffer":0,
			"byteLength":29388,
			"byteOffset":155272,
			"target":34963
		},
		{
			"buffer":0,
			"byteLength":2176,
			"byteOffset":184660
		},
		{
			"buffer":0,
			"byteLength":8,
			"byteOffset":186836
		},
		{
			"buffer":0,
			"byteLength":24,
			"byteOffset":186844
		},
		{
			"buffer":0,
			"byteLength":32,
			"byteOffset":186868
		},
		{
			"buffer":0,
			"byteLength":24,
			"byteOffset":186900
		},
		{
			"buffer":0,
			"byteLength":24,
			"byteOffset":186924
		},
		{
			"buffer":0,
			"byteLength":68,
			"byteOffset":186948
		},
		{
			"buffer":0,
			"byteLength":272,
			"byteOffset":187016
		},
		{
			"buffer":0,
			"byteLength":24,
			"byteOffset":187288
		},
		{
			"buffer":0,
			"byteLength":24,
			"byteOffset":187312
		},
		{
			"buffer":0,
			"byteLength":272,
			"byteOffset":187336
		},
		{
			"buffer":0,
			"byteLength":24,
			"byteOffset":187608
		},
		{
			"buffer":0,
			"byteLength":24,
			"byteOffset":187632
		},
		{
			"buffer":0,
			"byteLength":272,
			"byteOffset":187656
		},
		{
			"buffer":0,
			"byteLength":24,
			"byteOffset":187928
		},
		{
			"buffer":0,
			"byteLength":24,
			"byteOffset":187952
		},
		{
			"buffer":0,
			"byteLength":272,
			"byteOffset":187976
		},
		{
			"buffer":0,
			"byteLength":24,
			"byteOffset":188248
		},
		{
			"buffer":0,
			"byteLength":24,
			"byteOffset":188272
		},
		{
			"buffer":0,
			"byteLength":272,
			"byteOffset":188296
		},
		{
			"buffer":0,
			"byteLength":24,
			"byteOffset":188568
		},
		{
			"buffer":0,
			"byteLength":24,
			"byteOffset":188592
		},
		{
			"buffer":0,
			"byteLength":272,
			"byteOffset":188616
		},
		{
			"buffer":0,
			"byteLength":24,
			"byteOffset":188888
		},
		{
			"buffer":0,
			"byteLength":24,
			"byteOffset":188912
		},
		{
			"buffer":0,
			"byteLength":272,
			"byteOffset":188936
		},
		{
			"buffer":0,
			"byteLength":24,
			"byteOffset":189208
		},
		{
			"buffer":0,
			"byteLength":24,
			"byteOffset":189232
		},
		{
			"buffer":0,
			"byteLength":272,
			"byteOffset":189256
		},
		{
			"buffer":0,
			"byteLength":24,
			"byteOffset":189528
		},
		{
			"buffer":0,
			"byteLength":24,
			"byteOffset":189552
		},
		{
			"buffer":0,
			"byteLength":272,
			"byteOffset":189576
		},
		{
			"buffer":0,
			"byteLength":24,
			"byteOffset":189848
		},
		{
			"buffer":0,
			"byteLength":24,
			"byteOffset":189872
		},
		{
			"buffer":0,
			"byteLength":272,
			"byteOffset":189896
		},
		{
			"buffer":0,
			"byteLength":24,
			"byteOffset":190168
		},
		{
			"buffer":0,
			"byteLength":24,
			"byteOffset":190192
		},
		{
			"buffer":0,
			"byteLength":272,
			"byteOffset":190216
		},
		{
			"buffer":0,
			"byteLength":24,
			"byteOffset":190488
		},
		{
			"buffer":0,
			"byteLength":24,
			"byteOffset":190512
		},
		{
			"buffer":0,
			"byteLength":272,
			"byteOffset":190536
		},
		{
			"buffer":0,
			"byteLength":24,
			"byteOffset":190808
		},
		{
			"buffer":0,
			"byteLength":24,
			"byteOffset":190832
		},
		{
			"buffer":0,
			"byteLength":272,
			"byteOffset":190856
		},
		{
			"buffer":0,
			"byteLength":24,
			"byteOffset":191128
		},
		{
			"buffer":0,
			"byteLength":24,
			"byteOffset":191152
		},
		{
			"buffer":0,
			"byteLength":272,
			"byteOffset":191176
		},
		{
			"buffer":0,
			"byteLength":24,
			"byteOffset":191448
		},
		{
			"buffer":0,
			"byteLength":24,
			"byteOffset":191472
		},
		{
			"buffer":0,
			"byteLength":272,
			"byteOffset":191496
		},
		{
			"buffer":0,
			"byteLength":24,
			"byteOffset":191768
		},
		{
			"buffer":0,
			"byteLength":24,
			"byteOffset":191792
		},
		{
			"buffer":0,
			"byteLength":272,
			"byteOffset":191816
		},
		{
			"buffer":0,
			"byteLength":24,
			"byteOffset":192088
		},
		{
			"buffer":0,
			"byteLength":24,
			"byteOffset":192112
		},
		{
			"buffer":0,
			"byteLength":272,
			"byteOffset":192136
		},
		{
			"buffer":0,
			"byteLength":24,
			"byteOffset":192408
		},
		{
			"buffer":0,
			"byteLength":24,
			"byteOffset":192432
		},
		{
			"buffer":0,
			"byteLength":272,
			"byteOffset":192456
		},
		{
			"buffer":0,
			"byteLength":24,
			"byteOffset":192728
		},
		{
			"buffer":0,
			"byteLength":24,
			"byteOffset":192752
		},
		{
			"buffer":0,
			"byteLength":272,
			"byteOffset":192776
		},
		{
			"buffer":0,
			"byteLength":24,
			"byteOffset":193048
		},
		{
			"buffer":0,
			"byteLength":204,
			"byteOffset":193072
		},
		{
			"buffer":0,
			"byteLength":272,
			"byteOffset":193276
		},
		{
			"buffer":0,
			"byteLength":24,
			"byteOffset":193548
		},
		{
			"buffer":0,
			"byteLength":24,
			"byteOffset":193572
		},
		{
			"buffer":0,
			"byteLength":272,
			"byteOffset":193596
		},
		{
			"buffer":0,
			"byteLength":24,
			"byteOffset":193868
		},
		{
			"buffer":0,
			"byteLength":24,
			"byteOffset":193892
		},
		{
			"buffer":0,
			"byteLength":272,
			"byteOffset":193916
		},
		{
			"buffer":0,
			"byteLength":24,
			"byteOffset":194188
		},
		{
			"buffer":0,
			"byteLength":24,
			"byteOffset":194212
		},
		{
			"buffer":0,
			"byteLength":272,
			"byteOffset":194236
		},
		{
			"buffer":0,
			"byteLength":24,
			"byteOffset":194508
		},
		{
			"buffer":0,
			"byteLength":24,
			"byteOffset":194532
		},
		{
			"buffer":0,
			"byteLength":272,
			"byteOffset":194556
		},
		{
			"buffer":0,
			"byteLength":24,
			"byteOffset":194828
		},
		{
			"buffer":0,
			"byteLength":24,
			"byteOffset":194852
		},
		{
			"buffer":0,
			"byteLength":272,
			"byteOffset":194876
		},
		{
			"buffer":0,
			"byteLength":24,
			"byteOffset":195148
		},
		{
			"buffer":0,
			"byteLength":24,
			"byteOffset":195172
		},
		{
			"buffer":0,
			"byteLength":272,
			"byteOffset":195196
		},
		{
			"buffer":0,
			"byteLength":24,
			"byteOffset":195468
		},
		{
			"buffer":0,
			"byteLength":24,
			"byteOffset":195492
		},
		{
			"buffer":0,
			"byteLength":272,
			"byteOffset":195516
		},
		{
			"buffer":0,
			"byteLength":24,
			"byteOffset":195788
		},
		{
			"buffer":0,
			"byteLength":24,
			"byteOffset":195812
		},
		{
			"buffer":0,
			"byteLength":272,
			"byteOffset":195836
		},
		{
			"buffer":0,
			"byteLength":24,
			"byteOffset":196108
		},
		{
			"buffer":0,
			"byteLength":24,
			"byteOffset":196132
		},
		{
			"buffer":0,
			"byteLength":272,
			"byteOffset":196156
		},
		{
			"buffer":0,
			"byteLength":24,
			"byteOffset":196428
		},
		{
			"buffer":0,
			"byteLength":24,
			"byteOffset":196452
		},
		{
			"buffer":0,
			"byteLength":272,
			"byteOffset":196476
		},
		{
			"buffer":0,
			"byteLength":24,
			"byteOffset":196748
		},
		{
			"buffer":0,
			"byteLength":24,
			"byteOffset":196772
		},
		{
			"buffer":0,
			"byteLength":272,
			"byteOffset":196796
		},
		{
			"buffer":0,
			"byteLength":24,
			"byteOffset":197068
		},
		{
			"buffer":0,
			"byteLength":24,
			"byteOffset":197092
		},
		{
			"buffer":0,
			"byteLength":272,
			"byteOffset":197116
		},
		{
			"buffer":0,
			"byteLength":24,
			"byteOffset":197388
		},
		{
			"buffer":0,
			"byteLength":24,
			"byteOffset":197412
		},
		{
			"buffer":0,
			"byteLength":272,
			"byteOffset":197436
		},
		{
			"buffer":0,
			"byteLength":24,
			"byteOffset":197708
		},
		{
			"buffer":0,
			"byteLength":24,
			"byteOffset":197732
		},
		{
			"buffer":0,
			"byteLength":32,
			"byteOffset":197756
		},
		{
			"buffer":0,
			"byteLength":24,
			"byteOffset":197788
		}
	],
	"buffers":[
		{
			"byteLength":197812,
			"uri":"cow_run.bin"
		}
	]
}
